<?xml version="1.0" encoding="utf-8"?>
<!-- Generator: Adobe Illustrator 20.0.0, SVG Export Plug-In . SVG Version: 6.00 Build 0)  -->
<svg version="1.1" id="Layer_1" xmlns="http://www.w3.org/2000/svg" xmlns:xlink="http://www.w3.org/1999/xlink" x="0px" y="0px"
	 viewBox="0 0 377.1 366.1" style="enable-background:new 0 0 377.1 366.1;" xml:space="preserve">
<g>
	<path d="M163.5,285.4h-4c-0.1,0-0.2,0.1-0.3,0.2c-0.1,0.1-0.1,0.2-0.1,0.3l-0.9,11.6l-1.9-5.4c-0.1-0.3-0.3-0.5-0.6-0.5h-2.7
		c-0.1,0-0.3,0.1-0.4,0.2c-0.1,0.1-0.2,0.2-0.2,0.3l-1.9,5.4l-0.8-11.6c0-0.1-0.1-0.2-0.2-0.3c-0.1-0.1-0.2-0.2-0.4-0.2h-4
		c-0.1,0-0.3,0.1-0.4,0.2c-0.1,0.1-0.1,0.2-0.1,0.3l1.8,22.7c0,0.1,0,0.2,0.1,0.3s0.2,0.2,0.3,0.2h4.2c0.2,0,0.4-0.2,0.5-0.5
		l2.7-8.6l0.2-1.7l0.2,1.7l2.4,8.6c0.1,0.3,0.2,0.5,0.5,0.5h4.2c0.2,0,0.3-0.1,0.4-0.2c0.1-0.1,0.1-0.2,0.1-0.3l1.8-22.8
		c0-0.1,0-0.2-0.1-0.3C163.7,285.5,163.6,285.4,163.5,285.4z"/>
	<path d="M176,286c-0.1-0.3-0.3-0.5-0.5-0.5h-4c-0.2,0-0.4,0.2-0.5,0.5l-6.7,22.8c0,0.1,0,0.2,0.1,0.3c0.1,0.1,0.2,0.2,0.5,0.2h3.9
		c0.1,0,0.3-0.1,0.4-0.2c0.1-0.1,0.2-0.2,0.2-0.3l0.8-2.8h6.8l0.8,2.8c0,0.1,0.1,0.2,0.2,0.3c0.1,0.1,0.2,0.2,0.4,0.2h3.9
		c0.2,0,0.3-0.1,0.4-0.2c0.1-0.1,0.1-0.2,0.1-0.3L176,286z M171.5,301.4l2.1-7l2,7H171.5z"/>
	<path d="M196.8,300.1l2-2c0.1-0.1,0.2-0.3,0.3-0.4c0-0.1,0.1-0.3,0.1-0.5v-8.6c0-0.1,0-0.3,0-0.4c0-0.1-0.1-0.3-0.3-0.5l-1.9-1.9
		c-0.2-0.2-0.5-0.3-0.9-0.3h-10.8c-0.1,0-0.2,0-0.3,0.1c-0.1,0.1-0.2,0.2-0.2,0.3v22.8c0,0.1,0.1,0.2,0.2,0.3
		c0.1,0.1,0.2,0.2,0.3,0.2h4c0.1,0,0.2-0.1,0.3-0.2c0.1-0.1,0.1-0.2,0.1-0.3v-8.3h1.6l3.3,8.3c0,0.1,0.1,0.2,0.2,0.3
		c0.1,0.1,0.2,0.2,0.4,0.2h4.7c0.2,0,0.3-0.1,0.3-0.2c0-0.1,0-0.2,0-0.3L196.8,300.1z M194.2,294.5c0,0.1,0,0.2-0.1,0.3l-0.5,0.5
		c-0.1,0.1-0.1,0.1-0.2,0.1h-3.6v-5h3.4c0.1,0,0.2,0,0.2,0s0.1,0.1,0.2,0.1l0.5,0.5c0.1,0.1,0.1,0.2,0.1,0.3V294.5z"/>
	<path d="M216.6,287.7l-1.9-1.9c-0.2-0.2-0.3-0.3-0.5-0.3c-0.1,0-0.3-0.1-0.4-0.1H203c-0.3,0-0.5,0.2-0.5,0.5v22.8
		c0,0.3,0.2,0.5,0.5,0.5h10.8c0.3,0,0.6-0.1,0.9-0.4l1.9-1.9c0.2-0.2,0.3-0.3,0.3-0.5c0-0.1,0.1-0.3,0.1-0.4v-17.4
		c0-0.1,0-0.2-0.1-0.4C216.9,288,216.8,287.9,216.6,287.7z M212,303.5c0,0.1,0,0.1-0.1,0.2l-0.5,0.5h-3.9v-13.7h3.5
		c0.1,0,0.2,0,0.2,0.1l0.6,0.6c0.1,0.1,0.1,0.1,0.1,0.2V303.5z"/>
	<path d="M235.4,285.4H231c-0.1,0-0.3,0.1-0.4,0.2c-0.1,0.1-0.2,0.2-0.2,0.3l-3.4,6.7l-3.4-6.7c0-0.1-0.1-0.2-0.2-0.3
		c-0.1-0.1-0.2-0.2-0.4-0.2h-4.4c-0.2,0-0.4,0.1-0.4,0.2c-0.1,0.1-0.1,0.3,0,0.4l6.3,12.2v10.4c0,0.1,0.1,0.2,0.2,0.3
		s0.2,0.1,0.3,0.1h4.1c0.1,0,0.2,0,0.3-0.1c0.1-0.1,0.2-0.2,0.2-0.3v-10.4l6.3-12.2c0.1-0.2,0.1-0.3,0-0.4
		C235.8,285.5,235.6,285.4,235.4,285.4z"/>
	<path d="M168.9,199.2c-0.1,0-0.1-0.1-0.2,0l-2.1,0.2c-0.1,0-0.1,0-0.2,0.1c-0.1,0-0.1,0.1-0.1,0.2l0.8,9.3c0,0,0,0.1,0,0.1
		l-0.2,0.3l-2.1,0.2l-0.3-0.2c0,0-0.1-0.1-0.1-0.1l-0.1-1.3c0-0.1,0-0.1-0.1-0.2c-0.1,0-0.1-0.1-0.2-0.1l-2.1,0.2
		c-0.2,0-0.2,0.1-0.2,0.3l0.2,2.8c0,0.1,0.1,0.2,0.2,0.3l1.1,0.9c0.1,0.1,0.2,0.1,0.2,0.1s0.1,0,0.2,0l4.7-0.4c0,0,0.1,0,0.2,0
		c0.1,0,0.2-0.1,0.2-0.2l0.9-1.1c0.1-0.1,0.1-0.1,0.1-0.2c0-0.1,0-0.2,0-0.3l-0.9-10.6C169,199.2,169,199.2,168.9,199.2z"/>
	<path d="M176.2,198.8c-0.1-0.2-0.2-0.3-0.3-0.2l-2.1,0.2c-0.1,0-0.2,0.1-0.2,0.3l-2.6,12.3c0,0.1,0,0.1,0,0.2c0,0,0.1,0.1,0.2,0.1
		l2-0.2c0.1,0,0.1,0,0.2-0.1s0.1-0.1,0.1-0.2l0.3-1.5l3.6-0.3l0.5,1.4c0,0.1,0.1,0.1,0.1,0.2c0.1,0,0.1,0.1,0.2,0.1l2-0.2
		c0.1,0,0.2,0,0.2-0.1c0-0.1,0.1-0.1,0-0.2L176.2,198.8z M174.5,207.1l0.8-3.8l1.4,3.6L174.5,207.1z"/>
	<path d="M187.8,205.3l1-1.1c0.1-0.1,0.1-0.1,0.1-0.2s0-0.2,0-0.3l-0.4-4.5c0-0.1,0-0.1,0-0.2c0-0.1-0.1-0.2-0.2-0.3l-1.1-0.9
		c-0.1-0.1-0.3-0.2-0.5-0.1l-5.7,0.5c-0.1,0-0.1,0-0.2,0.1c-0.1,0.1-0.1,0.1-0.1,0.2l1,12c0,0.1,0,0.1,0.1,0.2
		c0.1,0,0.1,0.1,0.2,0.1l2.1-0.2c0.1,0,0.1,0,0.2-0.1s0.1-0.1,0.1-0.2l-0.4-4.4l0.8-0.1l2.1,4.2c0,0.1,0.1,0.1,0.1,0.2
		c0.1,0,0.1,0.1,0.2,0.1l2.5-0.2c0.1,0,0.2,0,0.2-0.1c0-0.1,0-0.1,0-0.2L187.8,205.3z M186.2,202.6l-0.3,0.3c0,0-0.1,0.1-0.1,0.1
		l-1.9,0.2l-0.2-2.6l1.8-0.1c0,0,0.1,0,0.1,0c0,0,0.1,0,0.1,0.1l0.3,0.2c0,0,0.1,0.1,0.1,0.2l0.1,1.6
		C186.2,202.6,186.2,202.6,186.2,202.6z"/>
	<path d="M198,206.7c-0.1,0-0.1-0.1-0.2-0.1l-4.1,0.3l-0.2-2.3l3.2-0.3c0.2,0,0.2-0.1,0.2-0.3l-0.2-2.1c0-0.2-0.1-0.2-0.3-0.2
		l-3.2,0.3l-0.2-2.3l4.1-0.3c0.1,0,0.1,0,0.2-0.1c0-0.1,0.1-0.1,0.1-0.2l-0.2-2.1c0-0.1,0-0.1-0.1-0.2c-0.1,0-0.1-0.1-0.2-0.1
		l-6.5,0.5c-0.2,0-0.2,0.1-0.2,0.3l1,12c0,0.2,0.1,0.2,0.3,0.2l6.5-0.5c0.1,0,0.1,0,0.2-0.1c0-0.1,0.1-0.1,0.1-0.2l-0.2-2.1
		C198,206.8,198,206.8,198,206.7z"/>
	<path d="M206.3,197.5c0-0.1-0.1-0.2-0.2-0.2l-1.1-0.9c-0.1-0.1-0.2-0.1-0.3-0.1c-0.1,0-0.2,0-0.2,0l-5.7,0.5
		c-0.2,0-0.2,0.1-0.2,0.3l1,12c0,0.2,0.1,0.2,0.3,0.2l5.7-0.5c0.2,0,0.3-0.1,0.5-0.2l0.9-1.1c0.1-0.1,0.1-0.2,0.1-0.3s0-0.1,0-0.2
		l-0.8-9.2C206.3,197.6,206.3,197.6,206.3,197.5z M204.3,205.9l-0.2,0.3l-2,0.2l-0.6-7.2l1.9-0.2c0.1,0,0.1,0,0.1,0l0.3,0.3
		c0,0,0.1,0.1,0.1,0.1l0.5,6.4C204.4,205.8,204.3,205.8,204.3,205.9z"/>
	<path d="M317.4,157.3c-0.4,0.3-0.8,0.5-1.3,0.8c0.4,1.4,0.7,2.8,1.1,4.2c-0.3,0.1-0.6,0.2-0.7,0.3c0.2,1.2-0.4,1.4-1.4,1.3
		c0.2-1-0.9-0.9-1.3-1.4c0-0.3,0.1-0.6,0.1-0.7c-0.7-1.7-1.3-3.2-1.8-4.6c-1.6-0.4-1.4-1.9-2.3-2.8c-0.2,0-0.5,0-0.9,0
		c0.2-0.6,0.4-1.1,0.7-1.7c-0.1-0.1-0.1-0.2-0.2-0.2c-0.1-0.1-0.1-0.1-0.2-0.2c-0.4-0.5-0.8-1-0.6-1.8l0,0c0,0,0,0,0,0l0,0.1
		c-0.5,0.2-1,0.3-1.8,0.6c0.1-0.1,0.1-0.2,0.2-0.3c0.1-0.2,0.1-0.3,0.1-0.4c0-0.1,0-0.1,0-0.2c0-0.2-0.1-0.3-0.2-0.4
		c0,0,0-0.1-0.1-0.1c-0.1-0.1-0.2-0.2-0.3-0.3c-0.2-0.2-0.5-0.4-0.5-0.7c0.7-0.3,0.8-0.8,0.9-1.4c0-0.2,0.1-0.4,0.1-0.6
		c-0.5,0-1.1,0.5-1.5-0.2c1.6-0.8-1.2-1.4,0.4-2.4c-1.6,0.1-1.2-1.1-2-1.5c0.3-0.1,0.5-0.2,0.5-0.2c-0.3-0.1-0.7-0.2-1.1-0.4
		c0.7-0.6,0.1-0.8-0.4-1.1c0.3-0.2,0.5-0.4,0.6-0.5c-0.2-0.1-0.3-0.2-0.5-0.2c-0.2-1.1,0.9-0.6,1.2-0.9c-0.3-0.6-0.5-1.2-0.8-1.8
		c-0.9,0-1.6-0.4-0.9-1.4c-0.3-0.5-0.6-0.9-0.9-1.5c0.4-0.5,0.8-1,1.1-1.5c-0.2-0.1-0.5-0.1-0.9-0.2c0.2-0.5,0.4-0.8,0.5-1.1
		c-0.3-0.6-0.6-1.2-0.9-1.7c-0.3-0.1-0.6-0.2-1.1-0.4c0.4-0.5,0.7-0.8,1.1-1.3c-0.9-0.1-0.7-1.3-1.8-1.1c0.5-0.8-0.8-1.5,0-2.1
		c-0.5-0.6-0.9-1.1-1.3-1.7c0.1-0.4,0.3-0.8,0.4-1.2c-0.9-0.6-1.9-1.1-2.9-1.7c0.6-1.7,1-3.6,3-4.5c0.3,0.2,0.6,0.3,0.9,0.5
		c1-1-0.4-1.9,0-2.9c1-0.4,1.2-1.2,1.2-2.3c-0.1-2.9-2.6-4-4.1-5.8c0.2,0.6,0.5,1.1,0.7,1.6c-1.4,1.6-1.4,4.3-4,4.6
		c-0.8-0.4-0.3-1.3-0.7-2.1c1.4-1.6,3.5-2.7,2.5-5.6c-0.7-2-0.6-4.4-0.9-6.4c-0.3,1.1-0.6,2.3-0.9,3.6c1,0.7,0,2.1,1,2.7
		c-0.3,0.7-0.8,1.1-1.4,1.2c-0.8-0.6-1.6-1.1-2.5-1.8c-0.3,0-0.5,0-0.8,0c-0.8,0.1-1.4,0.6-2.1,1.3c-0.1,0.4-0.3,0.8-0.4,1.2
		c-0.8,0.4-1.8-0.1-2,1c-1.7-0.5-3.6-0.1-5.1-1.5c-3.8,0.8-6.5-1.9-9.6-3.6c0.2-2.4,1.2-5.4,2.3-6.8c0.8-0.7,1.3,0.4,2.1,0.2
		c0-0.4,0.1-0.8,0.1-1.1c-0.4-0.4-0.7-0.8-1-1.2c0-0.9,0.4-1.5,0.9-2.1c1.3,0.1,2.6,0.3,3.9,0.4c-1.1-0.4-0.9-1.5-1.6-2.4
		c1.1,0.1,1.9,0.2,2.4,0.3c1.9,3,3.6,5.8,5.5,8.7c0.4-0.6,0.7-1,1-1.4c-1.6-2.2,0.3-4.3,0.2-6.3c-1.3-1-2.9,0.7-4.2-1
		c2-0.4,3.6-0.6,6-1.1c-1.2-0.3-1.5-0.3-1.9-0.4c0-0.4,0-0.7,0.1-1.2c-0.8-0.2-1.5-0.3-2.3-0.5c0.2-0.7,0.3-1.3,0.5-1.9
		c-1-0.7-1.3,0.6-2.3,0.4c-0.6-0.9-1.9,0-2.7-0.8c0.6-0.8,1.1-1.4,1.6-2.1c-0.1-0.3-0.2-0.7-0.4-1c0.2-0.3,0.5-0.7,0.7-1
		c-0.7-0.4-0.7-1.4-1.6-1.4c0.5,0,0.5,0.6,0.6,1c0.3,1-0.4,1.5-1.2,2.1c-0.2-0.3-0.5-0.5-0.8-0.8c0.4-0.8,0.7-1.4,1.1-2.1
		c-0.3,0.1-0.5,0.1-0.7,0.2c-0.1,0-0.1,0-0.1,0c-2.6,2.1-4.1,4.7-4.6,7.7c-0.4,2.8-2,2.4-3.9,2.2c-0.1-1.6,0.6-2.8,1.8-3.8
		c-1-0.7-0.9-1.6-0.8-2.5c-1.1,1.7-0.9,3.6-1.4,5.4c-1.5,0-2.1-1-2.4-2c-0.5-1.7-0.8-3.6,0.6-5.2c-0.2-0.5-0.3-1-0.6-1.8
		c-0.4,1-0.7,1.7-1,2.5c-0.6-0.8-1.1-1.4-1.6-2.2c-1.1-0.1-1.4-1.1-1.7-2c0.2-0.3,0.3-0.6,0.5-0.9c-2.5-2.4-5.8-10.5-4.5-11.4
		c-1.3,0.2-1.7,1-1.9,2c-0.3,1.9,0.6,3.5,1.5,5c3.7,5.8,8.1,11.4,8.6,18.7c0.1,2,1.8,4,0.1,5.9c-1.6,0.3-2.8-0.7-4.2-1
		c-0.2,1.5,0,3-0.7,4.3c-1.3-0.2-0.9-1.6-1.7-2c-3.1-1.5-5.9-3.6-8.8-5.6c1.7,2.6,3.1,6,5.6,7.1c4.8,2.3,8.9,5.5,13.8,7.6
		c3.3,1.4,7.2,2.3,9.5,5.4c-0.1,3.6,1.1,6.2,4,8.3c1.8,9,8.5,17.4,4.5,28.1c-8.5-0.9-15.6-7-24.3-7.1c10.7,4.2,20.8,9.3,28.8,17.5
		c-0.2,0.4-0.5,0.7-0.7,1.1c-0.6-0.4-1.1-0.8-1.7-1.1c-0.3,0.5-0.7,1-1.1,1.6c1.7,1.6,3.9,2.8,4.9,5.1c0.6,1.6,1.5,3.3-0.4,5
		c-0.1,0-0.4,0.1-0.6,0.1c-6.3-1.6-8-2.5-11.5-6.3c0.4-0.4,0.8-0.8,1.2-1.2c0.4,0.1,0.9,0.1,1.4,0.2c-0.2-0.5-0.3-0.8-0.5-1.1
		c-1.9-0.3-3.8-0.6-5.8-0.9c-2,1.1-3.4-0.8-5.8-1.5c2.6-0.8,5.1,0,7-2.1c-2.5-1.5-5.5-0.2-7.3-1.3c-6.4-0.1-11.9-2.3-18.3-2.2
		c-3.2-1-7.1-2.3-11.6-3.7c1.8,1.2,2.9,2.1,4.7,3.3c-2.7-0.3-4.6-0.6-6.8-0.9c1.3-1.9,2.4-3.5,3.5-5.2c-0.5,0.1-1,0-1.4,0.3
		c-6.8,4.6-9.8,12.3-15.7,18c-0.8-0.2-0.2-2.5-2.2-2.6c0.5,0.8,0.9,1.3,1.2,1.9c-0.5,0.5-0.9,0.7-1.3-0.1c-0.7,1.1-1.7,0-2.4,0.4
		c0.3,0.3,0.7,0.5,1,0.8c0.4-0.3,0.9-0.6,1.3-0.3c0.1,0.2,0.2,0.3,0.3,0.5c0.5,1.1,0.3,2.2-0.2,3.2c-1.2,0.5-1.5,2.2-2.9,2.5
		c-0.2,0-0.4,0.1-0.7,0c-0.9-1.5-0.9-3.9-3-5.2c0.3,1.5,0.5,2.7,0.7,4.3c-1,1.2-0.7,3.8-3,4.2c-2.2,0.4-4.6,0.3-6.8,0.5
		c-3.5,0.3-33.7,2.8-37.8,3.2c0-0.1,0-0.3,0-0.4c0.3-0.1,0.5-0.1,0.7-0.2c-0.2-0.1-0.4-0.3-0.7-0.5c0.4-0.2,0.6-0.2,0.9-0.3
		c-0.5-0.6-0.9-1.3-1.5-2.1c-0.8,0.1-1.8,0.2-2.8,0.3c1.2,0.4,1.6,1.2,1.8,2.2c-4.9,0.7-6,0-8.6-5.4c0.4-0.7-0.1-1.7,0.8-2.3
		c-0.6-1.7-1.9-1.9-3.6-1.5c0.8-1.8,1.9-2.2,3.3-2c1.1-1.1,1-2.4,0.2-3.9c-0.1,0-0.4-0.1-0.8-0.2c0.1,1,0.1,1.9,0.2,2.8
		c-0.9,0-1.6,0-2.1,0c-3.2-3.9-1.6-7.4,0.2-10.5c0-4.4,1.5-8.3,0.3-12.3c-0.1,0.1-0.4,0.2-0.8,0.4c0.4,2,0.1,4-0.6,5.7
		c-0.8,1.9,1.4,3.9-0.3,5.3c-0.3,1.7-0.5,3.2-0.8,4.8c-0.2,0.3-0.4,0.6-0.6,0.8c0.2,1,0.4,1.9,0.6,3c-0.8,0-1.5,0-1.9,0
		c-1.8-1.7-1.6-3.9-1.8-6c-0.5,0.6-0.9,1.1-1.8,0.7c0.4-0.7,0.8-1.4,1.2-2.1c0.4,0.3,0.7,0.5,1.1,0.7c0.1-1.1-1.1-0.7-1.3-1.1
		c-2,0.2-3,1.9-4.6,2.7c-0.4-0.8-1-1.5-1.5-1.2c-1.1,0.8-1.2,2.2-1.5,3.4c-2.9-1-4.8-3.4-7.2-4.9c-2.5-1.6-4.9-3.6-8.3-3.8
		c0.7,1.1,2.6,1.4,1.8,2.7c-5.2,2.1-10.1,4-14.9,6c-1.7,0.8-4-0.1-5.1,1.3c-2.1,1.2-4.3,0.8-5.6,2.6c2.9,2,5.7,0.3,8.5,0.2
		c3-0.1,5.6-1.3,8.2-2.3c0.8,2.1-0.7,2.5-1.7,3c-1.1,0.5-2.3,0.9-3.4,1.3c-1.1,0.3-2.3-0.2-3.3,0.8c1.3-0.1,2.5-0.2,3.9-0.3
		c-0.2,0.7-0.4,1.1-0.6,1.6c-1.6,1.2-3.5,1.5-5.2,2.1c-1.3,2-11.1,6.1-13.1,5.5c-0.7-1.6,1.5-1.4,1.6-2.3c-6.6,0-12,4.4-18.5,5.6
		c-0.3-2.9,1.2-4.6,1.9-6.3c-1.8-0.2-2.7,1.2-4.1,2.2c0.4,0.7,0.3,1.3-0.5,1.8c-0.1-0.3-0.3-0.5-0.4-0.7c-0.5,0.2-1,0.4-1.4,0.6
		c0,0,0,0,0,0c0.1,0,0.1,0,0,0l0,0c0,0,0,0,0,0l0,0c-1,0.1-1.8,0.8-1.6,1.8c0.2,1.6-0.8,2.1-1.9,2.6c-2.1,1-3.9-0.6-5.9-0.9
		c-1.9-0.3-3.5-2.4-5.6-0.6c-0.5-0.2-0.9-0.3-1.3-0.4c-0.4-0.7-0.8-1.2-1-1.6c0-0.6-0.2-1,0-1.3c0.4-1.2-1.6-2.6,0.2-3.6
		c0,0,0,0,0,0c0,0,0-0.1,0,0c0,0,0,0,0,0l0,0c0.4,0,0.6-0.3,0.8-0.6c0-0.1,0.1-0.2,0.1-0.3c0.9-2.5-0.1-5.2,1.1-7.7
		c0.2-0.5,0.9-1.2,0.3-1.5c0.6-2.7,1.2-5.1,1.9-7.9c0.7-0.4,1-1.3,0.6-2.3c1.7-1.8,2.1-3.9,2.4-5.8c0.9-1.9,1.6-3.4,2.6-5.6
		c-0.5,0.7-0.6,0.8-0.7,0.9c-4.7,9.1-8.2,18.6-10.4,28.5c-2.5,11.5,1.1,13.6,12.1,13.4c6.4-0.1,12.6-1.8,19-2.5
		c8.2-0.8,16.1-2.3,23.4-6.4c3.8-2.1,7.7-4.1,11.6-6.1c1.2-0.6,2.2-0.3,2.7,1.1c1.8,5.5,3,11.2,6,16.3c2.5,4.2,2.9,9.1,3.2,14
		c0.2,3.2,1.5,6.6,1.6,9.8c0.5,10.1,2,19.9,3.8,29.8c0.7,4,1.9,7.9,3,12.2c1.5-1.6,1.4-3.8,3.2-4.7c0.1,0.2,0.3,0.4,0.7,1.1
		c-0.3-1.1-0.7-1.6,0.1-2c0.3,0.1,0.8,0.3,1.5,0.5c-0.7-0.3-1-0.4-1.5-0.6c0.9-1.1,1.6-2,2.6-3.2c0.3,0.7,0.4,1.1,0.5,1.4
		c1.5-0.6,2.4-1.6,2.9-3.1c0.5,0.1,0.8,0.2,1.2,0.3c0.5-0.6,1-1.2,1.6-1.9c0.6,0.2,1.3,0.3,1.7,0.5c1.4-0.2,2.6-0.3,3.9-0.5
		c0,0.6,0,1,0,1.2c0.6,1.1,1.9,0.1,2.6,1.1c-1.8,1-3.1,3.5-5.1,1.6c-2.9,1.2-5.1,3-7.2,4.8c-0.6-0.2-1-0.3-1.5-0.4l0,0
		c-0.9,0.9-1.7,2.1-3.4,2.4c1.2,0.7,2.3,1.3,3.5,2c-0.2,0.9-0.3,1.9-0.5,3c-2.6-1-3-3.2-3.5-5.2c-0.6,0.1-1.1,0.2-1.5,0.3
		c-0.5,0.7-1,1.3-1.8,2.3c0.1,1.3-0.9,3.2-0.4,5.1c0.3,0.1,0.5,0.2,0.7,0.2c0.2,0.1,0.4,0.1,0.6,0.2l0,0c0,0,0,0,0,0c0,0,0,0,0,0
		c0,0,0,0,0,0c0,0,0,0,0,0l0,0l0,0c-0.4-1-0.7-1.9-1-2.8c0.7-1.1,1.7-1.5,2.7-1.9c1.9,3,3.7,5.9,5.5,8.9c-0.8,0.4-1,1.5-1.8,1.1
		c-0.8,2.4-3.3,2.9-4.9,4.5c-0.6-1.1-1-2-1.5-2.8c-0.2-0.6-0.4-1.3-0.5-1.9c-0.1,0-0.2,0.1-0.3,0.1c0.3,0.6,0.5,1.2,0.8,1.8
		c0.3,0.9,0.5,1.8,0.8,2.8c-1.3,0.4-2.4,0.8-3.6,1.1c3.3-1.1,6.3,0.5,9.9,0.8c-1.5-0.7-2.5-1.2-3.6-1.8c0.8-1.7,2-2.8,3.5-3.9
		c1.3,1.5,2.6,3,3.7,4.3c0.2-2.2-1.4-4.1-2-6.3c0.7-0.8,1.3-1.5,1.9-2.1c-0.2-0.1-0.3-0.4-0.4-0.7c-0.3,1.1-0.9,2-1.7,2.3
		c-0.7-3-2.2-5.9-0.6-9.3c4.5,2.4,8,6.1,12,9.1c-0.4,0.7-0.6,1-0.9,1.5c-0.8-0.1-1.6-0.3-2.5-0.5c0.1,0.5,0.2,1.1,0.4,1.8
		c0-0.7,0.3-0.9,0.8-1.1c0.5,0.2,1.1,0.3,1.7,0.5c0.5-0.3,1.1-0.7,1.8-1.1c0.5,0.4,1.1,0.7,1.9,1.2c-3.2,1.8-6.1,3.4-8.8,4.9
		c1.5-0.2,3.2-0.5,4.6-0.7c1-0.5,1.2-2.1,2.7-1.5c-0.2,0.5-0.3,0.9-0.4,1.2c0.4,0.3,0.8,0.6,1.2,0.9c0.5-0.7,1.8,0.1,1.9-1.2
		c0.7,0,1.3-0.1,1.8-0.1c0.5-0.6,1-1.2,1.4-1.7c1,0.2,1.5,0.8,1.5,0.9c1.4,0.7,2.3,1.2,3.3,1.7c-0.1,0.6-0.1,1-0.2,1.7
		c0.3-0.6,0.5-0.9,0.7-1.3c0.8,0.5,1.6,0.9,2.4,1.4s1.6,0.9,2.4,1.4l0,0c0.2,0.1,0.3,0.2,0.5,0.2l0,0l0,0c-0.2-0.1-0.3-0.2-0.5-0.3
		c-1.5-1.2-2.9-2.4-4.4-3.6c0.2-0.5,0.4-1,0.5-1.4l0,0c0,0,0,0,0,0c0,0,0,0,0,0c0-0.1,0,0,0,0l0,0c0,0,0,0,0,0l0,0
		c-0.3,0.2-0.6,0.4-1,0.6c-0.4-0.2-0.8-0.4-1.2-0.5c0.3-2.8,1.5-5.2,2.6-7.6c0.2,0,0.4,0.1,0.5,0.1s0.3,0.1,0.5,0.1l0,0
		c-0.2-0.2-0.5-0.4-0.8-0.7c1.1-0.6,1.9-1.1,3-1.8c-0.9,0.4-1.6,0.7-2.4,1c0.1-0.4,0.1-0.7,0.2-0.9l0,0c-0.1,0.2-0.3,0.5-0.4,0.7
		c-0.1,0.2-0.3,0.4-0.4,0.6c-1,0.6-1.6-0.4-2.4-0.3c0,0,0,0,0,0c0,0,0.1-0.1,0.1,0c0.3,0.2,0.6,0.5,1.1,0.8
		c-1.3,0.7-2.1,1.8-3.6,0.9c0.1,1.2-1.3,2.1-5.7,3.8c-1.5-1.6-1.9-4.1-4.2-5.8c1.3,1.3,2.2,2.8,3.1,4.5c-0.5,0.3-0.9,0.5-1.4,0.8
		c-0.8-2.5-3.2-3.3-5.1-4.9c0.7-0.6,1.2-1,1.9-1.6c0.5,0.3,1,0.7,1.4,1.1c2.8,0.1,3.9,2.3,5.8,2.8c-1.2-0.8-0.7-2.6-2.2-3.3
		c-0.2,0.3-0.3,0.7-0.5,1.1c-0.6-0.2-1.1-0.4-1.3-0.8c0,0.1,0,0.2,0,0.3c-1.2-0.5-2.2-0.9-3.3-1.4c0.4-1,0.7-1.9,1-2.8
		c-0.4,0.8-0.8,1.6-1.3,2.4c-0.5,0.8-1,1.6-1.9,2.2c-0.3-0.9-1.8-0.6-1.2-2c-1,0.7-1.5-0.4-2.1-0.8c-1.6-1-3.2-2.2-4.9-3.3
		c0.1-0.3,0.2-0.6,0.3-0.9c0.4,0,0.8,0,1.3,0c0.2,0.4,0.3,0.9,0.5,1.3c2.9-3.1,5-4.2,7.6-3.9c1.2,1.2,1.5,2.5,0.9,3.7
		c-0.2,0.4-0.5,0.8-0.9,1.2l0,0c0,0-0.1,0.1-0.1,0.1c0,0,0.1-0.1,0.1-0.1c0,0,0,0,0,0c0.5-0.4,1-0.9,1.5-1.4
		c0.3,0.3,0.4,0.5,0.4,0.7c0,0.2-0.1,0.4-0.3,0.6c0.6,0,0.9,0.2,1.1,0.6c0,0.1,0.1,0.2,0.1,0.3c0.1,0.2,0.1,0.4,0.2,0.6
		c0.1,0.4,0.2,0.8,0.5,1.1c-0.3-0.7-0.5-1.3-0.8-2c-0.3-0.7-0.5-1.3-0.8-1.9c0.5-1.3,1.5-1.8,2.5-2.3c0.7-1.2,1.4-2.3,2.6-3.1
		c0.6,1.2,1.2,2.4,2.2,4.5c-0.4-2.1-0.7-3.3-0.9-4.6c1.4-0.2,1,1.3,1.6,1.6c1.4-2.4,3.6-1.9,5.8-1.8c0.4,1.4-1.3,1.8-1.2,3
		c-0.4,0-0.7,0-1,0c-0.1-0.1-0.2-0.2-0.2-0.2v0c0,0-0.1-0.1-0.4-0.4c0.3,0.3,0.4,0.4,0.4,0.4c0.1,0.1,0.2,0.2,0.2,0.2
		c0.1,0.2,0.2,0.4,0.4,0.5c0.5,0.4,1.2,0.4,1.9,0.8c-0.3-0.5-0.5-0.7-0.7-1.1c2.6-1.7,3.5-5.9,8-4.9c-0.5,0.7-0.7,1.5-1,2.3
		c-0.4,1.3-0.8,2.7-2.2,3.5l0,0c0.5,1,0,1.5-0.6,1.9c-0.2,0.1-0.4,0.3-0.6,0.4c0.8,1.4-0.9,2.2-0.9,3.5c-0.1,0.2-0.2,0.3-0.2,0.5
		c0,0,0,0,0,0c0.1-0.2,0.2-0.3,0.2-0.5c0.5-0.9,1-1.8,1.6-2.8c1.4,0.9,2.7,1.8,4.1,2.7c-1.1-1.1-1.9-2.3-1.8-4c1,0,2.1,0,2.9,0
		c-1.2-0.5-2.8,0.2-4-1.2c1.2-2.2,2.4-4.3,3.7-6.6c2,1.8,3.7,3.5,5.5,5.1c0.1-0.1,0.1-0.1,0.2-0.2c-1.5-1.7-2.9-3.5-4.4-5.3
		c3.6-0.6,7.6,2.2,8.6,5.8c-0.5,0.2-0.9,0.5-2.1,1c1.8-0.8,3-1.2,4-1.7c0.2,0,0.3,0.1,0.4,0.1c0.2,0.1,0.2,0.3,0.2,0.4c0,0,0,0,0,0
		c0,0.1,0,0.1,0,0.2c0,0.1,0,0.2-0.1,0.4c0,0.3,0,0.5,0.4,0.6c0.9-0.8,1.6-1.8,3.1-2.2c-0.2,1.1-0.3,2-0.4,2.9
		c1.1-5,3.8-8.9,7.9-11.7c-1.1,0.9-1.4,2.4-1.7,3.8c-0.1,0.4-0.2,0.8-0.3,1.2c-0.2,0.8-0.6,1.5-1.2,2c-0.5,0.4-1.1,0.7-1.9,0.8
		c0,0,0,0,0,0c-0.1,0-0.1,0.1-0.2,0.1c0,0,0,0,0,0c0,0,0.1-0.1,0.1-0.1c0.8,0,1.7-0.8,2.5-0.3c0.3-0.3,0.7-0.6,1.1-0.9c0,0,0,0,0,0
		l0,0c-1-1,0.3-1.8,0.2-2.6c0.3-0.2,0.5-0.4,0.7-0.5c0.2-0.2,0.4-0.3,0.6-0.5l0,0c-0.1,0-0.1,0-0.2,0.1c-0.2,0.1-0.4,0.1-0.8,0.3
		c0.6-1.3,1.1-2.3,1.7-3.4c0.7,0.5,1.7,0.5,1.7,1.6c-0.2,0.2-0.5,0.3-0.7,0.5c-0.6,0.3-1.1,0.6-1.7,1l0,0c0.5-0.1,0.9-0.1,1.4-0.2
		c0.1-0.3,0.2-0.5,0.3-0.8c0.2-0.2,0.5-0.3,0.7-0.5c0.5,0,1.1,0.1,1.5,0.1c-0.2-0.3-0.5-0.7-0.1-1.1c-0.9,0.6-1.5,0-2.3-0.7
		c1.3-0.2,2.4-0.9,3.9-0.5c-0.6,0.5-1.1,0.8-1.6,1.2c0.5-0.2,0.9-0.5,1.4-0.7c0.5-0.2,0.9-0.5,1.4-0.7c-0.4-0.1-0.6-0.2-2-0.6
		c3.6-0.2,4.9-2.8,7.5-3.1c-0.1,0.3-0.2,0.5-0.4,1.1c0.8-0.4,1.3-0.7,1.6-0.9c-1.3-1.3-0.3-2.6,0-3.9c0.4,2.6,2.6,3.7,4.3,5.4
		c0.2-0.3,0.4-0.6,0.5-0.8c0.2,0.2,0.3,0.3,0.4,0.5c0.2-0.9-0.6-1.7,0.3-2.4c0.7,0.4,1.3,0.8,2.2,1.4c-1-0.8-1.7-1.5-2.5-2.1
		c-0.1,0.3-0.2,0.8-0.3,1.4c-0.3-0.4-0.4-0.5-0.5-0.8c-0.1,0.3-0.3,0.5-0.3,0.7c-0.1-0.1-0.3-0.1-0.4-0.2c-0.2-0.1-0.4-0.3-0.6-0.5
		c-0.4-0.4-0.5-0.9-0.3-1.5l0,0c-2.1-1.4-1.8-3.8-2.6-5.7c-0.2-0.5,0-1,0.5-1c-0.6-2.1,0-4.1,0.6-6.1c0.7,0,1.2,0,1.5,0
		c0.7,0.5,1.1,0.9,2.1,1.6c0.2,0.1-0.8,0.8-0.3,1.3c0.5-0.9,0.9-0.8,1.2-0.2c1.8-2.7,0.1-5.5-0.5-8.4c1.2,0.4,1.1,1.3,1.4,2
		c1.2,0.4,1.1,1.8,2,2.6c0.7-0.9,1.4-1.8,2.5-2.2c1.2-3.6,2.4-7.2,1.4-10.9c0,0.6-0.1,1.2-0.1,2c-0.6,0.5-1.3,1.1-1.7,1.5
		c0.2,0,0.8-0.1,1.3-0.2c0.2,1.2-0.8,1.5-1.2,2.2c-1-0.1-1.7-0.7-2-1.8c-1.4,0.2-2.8,1.1-4.4,0.3c0-2.1,1.7-3.7,2-5.9
		c0.3,0.1,0.6,0.2,1,0.3c-0.1,0.5-0.2,0.8-0.4,1.5c0.7-0.9,1.3-0.4,1.7-0.3c0.4-0.4,0.7-0.8,1.2-1.4c0.1,1.2,0.2,2.1,0.3,2.9
		c0.1-0.9,0.8-1.3,1.4-1.6c-0.9-0.8,0.4-1.2,0.2-2.9c0.5-1.7-2.1-3.3-2.6-5.7c0.2-0.4,0.3-0.8,0.5-1.2c-0.4,0.2-0.6,0.3-1.2,0.6
		c0.2-2-0.2-3.8,1.6-5.4c0,0.7,0.1,1,0,0.7c0.8-2.1,0.1-5,0.3-7.9c0.7-7,4.6-12.9,6.2-19.6c0.4-1.9,1.9-2.2,3.6-1.8
		c3.4,1,6.8,1.9,10.2,3.1c8,2.8,16,5.6,24.5,6.4c5.6,0.5,11.1,1.5,16.6,2.7c6.3,1.3,12.5,3.6,18.8-0.1c2.2-1.2,3.6-2.4,3.9-5
		C318.8,164.9,318,161.2,317.4,157.3z M303,140C303,140,303,140,303,140L303,140C303,140,303,140,303,140L303,140
		C303,140.1,303,140.1,303,140C303,140.1,303,140.1,303,140z M280.5,79.3C280.6,79.3,280.6,79.3,280.5,79.3c0.1,0.1,0.1,0.2,0.1,0.2
		c0,0-0.1,0-0.1,0C280.5,79.5,280.5,79.4,280.5,79.3z M290.4,111.2c-0.5-0.3-0.7-1,0-1.6c0.5,0,1.1,0,1.9,0c0.3,0.9,0.5,1.7,0.8,2.5
		C291.5,113.1,291.1,111.7,290.4,111.2z M125.3,158.7L125.3,158.7L125.3,158.7L125.3,158.7z M146.5,253.3L146.5,253.3
		C146.5,253.3,146.5,253.3,146.5,253.3C146.5,253.3,146.5,253.3,146.5,253.3L146.5,253.3L146.5,253.3c0-0.4,0.1-0.8,0.3-1.1
		c0.2-0.3,0.5-0.6,0.9-0.8c0.2,0.4,0.4,0.8,0.6,1.3C147.7,252.9,147.1,253.1,146.5,253.3z M155.3,266.3c-0.9-1.1-1.6-1.9-2.3-2.8
		c0.2-0.2,0.5-0.5,0.9-1C154.7,263.6,155.3,264.6,155.3,266.3z M151.3,254.8C151.2,254.8,151.1,254.7,151.3,254.8L151.3,254.8z
		 M152.7,258.4c-0.5-1.2-0.9-2.4-1.4-3.7l0,0c-0.1,0-0.1-0.1-0.1-0.1c0,0,0,0,0.1,0.1c0.8,0.4,1.1,0.9,1.3,1.6
		C152.8,257,152.8,257.7,152.7,258.4z M176.3,259.8c-0.1,0.6-0.2,1-0.3,1.4c-0.1,0.4-0.2,0.7-0.2,1c0.3-0.6,0.6-1.2,0.9-1.8
		c0.6,0,1.1,0.1,1.8,0.1c-0.2,2-1.6,3.3-2.3,5.1c-0.5-0.1-0.9-0.2-1.5-0.4c0.2-0.7,0.4-1.4,0.7-2c-0.1,0.2-0.3,0.5-0.5,0.8
		c-0.8-0.6-1.6-1.1-2.5-1.8C173.6,261.4,174.8,260.7,176.3,259.8z M184.2,251.6c0.3,0.7,0.5,1.2,1,2.3c-1.1-0.6-1.7-1-2.7-1.5
		C183.3,252,183.7,251.9,184.2,251.6z M215.8,238.3C215.8,238.3,215.8,238.3,215.8,238.3C215.8,238.4,215.8,238.4,215.8,238.3
		C215.8,238.4,215.8,238.4,215.8,238.3C215.8,238.4,215.8,238.3,215.8,238.3C215.7,238.3,215.8,238.3,215.8,238.3z M227.5,234.4
		C227.6,234.4,227.6,234.5,227.5,234.4C227.5,234.5,227.5,234.4,227.5,234.4z M234.1,210.9L234.1,210.9L234.1,210.9L234.1,210.9z
		 M228.8,181.4c0.3,0.3,0.3,1.2,0.1,1.6c-0.8,1.4-2.3,1.1-3.7,1.8c-0.1-0.8,0.1-1.5-1.1-1.5c0.4-0.8,0.7-1.4,1-2
		C226.5,181.1,227.7,180.1,228.8,181.4z M226.2,165.5c0.1,0,0.1,0,0.2,0c0,0,0,0,0,0.1C226.4,165.6,226.3,165.6,226.2,165.5
		C226.2,165.6,226.2,165.6,226.2,165.5z M226.1,175.3c0.2,0.9-0.8,1.4-1.6,1.9c-0.9-1.2-1.7-2.4-2-4.6
		C223.7,174.1,225.7,173.6,226.1,175.3z M223.3,188.5c1.4-0.5,1.6,1.3,2.5,1.5c-0.1-0.3-0.3-0.6-0.6-1c1.4-0.3,2.2-1.6,3.7-1.6
		c1.4,1.6,2,3.4,1.9,5.5c0,0.5-0.1,1.3-1,1.1c-0.1-0.2-0.2-0.3-0.2-0.5l0,0c0.1,0.2,0.2,0.3,0.2,0.5c0.6,0.9,0,1.3-0.7,1.9
		c-0.3-0.6-0.6-1-0.9-1.5c-0.6-0.3-1.1-0.5-1.9-0.9c-1.8,0-3.8-1.9-3.5-3.7c-0.3,0.1-0.5,0.2-0.8,0.3c-0.7-1-0.6-2.1-0.5-3.4
		C222.4,187.4,223.3,187.6,223.3,188.5z M220.1,171.4c0.6,0.9,1.1,1.7,1.6,2.5c0-0.1,0-0.1,0.1-0.2c0,0,0,0,0,0l0,0c0,0,0.1,0,0.1,0
		c0,0.1-0.1,0.1-0.1,0.2v0l0,0c-0.1,0.6-0.3,1.2-0.6,1.7c-0.3,0.5-0.8,0.9-1.3,1.3c-0.1-1.3-1-1.5-2.2-1.4
		C218.4,174,219.2,172.8,220.1,171.4z M206.5,178.4c1.4-0.1,2.2,0.6,2.5,1.3l-1.3,0.8c-0.2-0.4-0.6-0.7-1.1-0.7
		c-0.8,0.1-1.2,0.7-1.2,1.4c0.1,0.7,0.6,1.3,1.4,1.2c0.5,0,0.9-0.4,1-0.9l1.4,0.5c-0.3,0.7-0.9,1.6-2.3,1.8c-1.7,0.1-3-0.9-3.1-2.5
		C203.7,179.7,204.9,178.5,206.5,178.4z M205.3,186.7c0-0.6,0.4-1,1.1-1.1c0.5,0,1,0.1,1.3,0.4l-0.3,0.5c-0.3-0.2-0.7-0.3-1-0.3
		c-0.3,0-0.5,0.2-0.5,0.5c0.1,0.6,2,0.1,2.1,1.3c0,0.6-0.3,1.1-1.2,1.1c-0.6,0-1.1-0.1-1.4-0.4l0.3-0.5c0.2,0.2,0.6,0.4,1.1,0.4
		c0.5,0,0.6-0.3,0.6-0.5C207.3,187.3,205.4,187.9,205.3,186.7z M203.1,178.8l0.4,5.3l-1.6,0.1l-0.4-5.3L203.1,178.8z M203.2,189.3
		l-2.1,0.2l-0.3-3.3l0.6,0l0.2,2.8l1.5-0.1L203.2,189.3z M199,179.1c1.2-0.1,2,0.7,2.1,1.7c0.1,1-0.5,1.9-1.8,2l-1.2,0.1l0.1,1.7
		l-1.6,0.1l-0.4-5.3L199,179.1z M199,189.6l-0.7,0.1L198,189l-1.5,0.1l-0.2,0.7l-0.7,0.1l1-3.4l0.7-0.1L199,189.6z M191.2,179.7
		l1.1,2.5l0.7-2.6l2.2-0.2l0.4,5.3l-1.6,0.1l-0.3-3.2l-0.9,3.3l-0.7,0.1l-1.4-3.1l0.3,3.2l-1.6,0.1l-0.4-5.3L191.2,179.7z
		 M193.5,190.1l-0.6,0l-0.3-3.3l0.6,0L193.5,190.1z M188.5,190.5l-0.6,0l-0.3-3.3l1.5-0.1c0.7-0.1,1.1,0.3,1.2,1
		c0,0.6-0.3,0.9-0.7,1l0.9,1.2l-0.7,0.1l-0.8-1.2l-0.6,0L188.5,190.5z M184.9,180.2l1.1,1.7l0.8-1.9l1.8-0.1l-1.7,3.4l0.2,2.1
		l-1.6,0.1l-0.2-2.1l-2.3-3L184.9,180.2z M184.5,190.8l-0.6,0l-0.2-2.8l-1,0.1l0-0.5l2.6-0.2l0,0.5l-1,0.1L184.5,190.8z
		 M182.1,180.5l0.3,3.9l2-0.2l0.1,1.4l-3.6,0.3l-0.4-5.3L182.1,180.5z M177,180.8c1.6-0.1,3,0.9,3.1,2.5c0.1,1.6-1,2.9-2.7,3
		c-1.6,0.1-3-0.9-3.1-2.5C174.1,182.2,175.3,180.9,177,180.8z M174.6,188.3l1.1,2.2l0.7-2.4l0.8-0.1l0.3,3.3l-0.6,0l-0.2-2.6
		l-0.8,2.7l-0.2,0l-1.2-2.5l0.2,2.6l-0.6,0l-0.3-3.3L174.6,188.3z M171.1,185.1c0.5,0,0.9,0.3,0.9,0.8c0,0.5-0.3,0.9-0.8,0.9
		c-0.5,0-0.9-0.3-0.9-0.8C170.2,185.6,170.6,185.1,171.1,185.1z M170.3,188.6l1.6,3.2l-0.7,0.1l-0.3-0.6l-1.5,0.1l-0.2,0.7l-0.7,0.1
		l1-3.4L170.3,188.6z M167.1,181.6c0.9-0.1,1.7,0.1,2.3,0.6l-0.8,1.2c-0.5-0.3-1.1-0.4-1.6-0.4c-0.3,0-0.4,0.1-0.4,0.3
		c0,0.5,3-0.2,3.1,1.8c0.1,1.2-0.7,1.9-2.1,2c-1.1,0.1-1.9-0.2-2.5-0.6l0.7-1.3c0.4,0.4,1.1,0.6,1.8,0.5c0.3,0,0.6-0.1,0.6-0.3
		c0-0.5-3,0.2-3.1-1.8C165,182.7,165.7,181.7,167.1,181.6z M164.5,190.5l1.7-0.1l0,0.5l-1.7,0.1l0.1,0.9l1.7-0.1l0,0.5l-2.3,0.2
		l-0.3-3.3l2.3-0.2l0,0.5l-1.7,0.1L164.5,190.5z M163.9,185.7c0.5,0,0.9,0.3,0.9,0.8s-0.3,0.9-0.8,0.9c-0.5,0-0.9-0.3-0.9-0.8
		S163.5,185.7,163.9,185.7z M162.3,182.1l0.3,3.1c0.1,1.3-0.6,2.4-2.4,2.5c-1.8,0.1-2.7-0.7-2.8-2.1l-0.3-3.1l1.6-0.1l0.3,3.1
		c0,0.5,0.4,0.9,1.1,0.8c0.7-0.1,1-0.5,0.9-1l-0.3-3.1L162.3,182.1z M160.8,192.7l-0.6,0L160,190l-1,0.1l0-0.5l2.6-0.2l0,0.5l-1,0.1
		L160.8,192.7z M158.2,176.6c0.8,0.9,3,1.2,1.1,3.2c-1-0.9-2.1-0.3-3.3-0.5c-0.2-0.2-0.5-0.6-0.9-0.9c0.1-0.1,0.2-0.1,0.3-0.2
		c-0.5,0-1-0.1-1.5-0.1C153.5,176.4,153.8,176.3,158.2,176.6z M152.2,158c0.3,1.1,0.6,2.1,0.9,3.3c-0.2,0.6-1,0.8-1.4,0.4
		c-1-1-2.9-1.1-2.9-3.2C150,158.2,151.1,157.6,152.2,158z M147.9,176.7c0.7,0.8,1.9,1,2,2.5c-0.9,0.3-1.8,0.7-2.6,1
		c-0.7-0.2-1.2-0.6-1.3-1.4C146.5,178.1,146.9,177.2,147.9,176.7z M125.6,158.3c1.8-1.5,3.7-2.8,6.1-3.6c0.9,0.7,1,1.6,1,2.7
		C130.3,157.4,128.3,159.7,125.6,158.3z M131.6,175.3c-0.1-0.4-0.2-0.9-0.3-1.4c0.4-0.3,0.7-0.7,1.3-1.2c1.3,2.5,3.2,4.5,4,8.2
		C133.5,179.7,133,177.1,131.6,175.3z M141.6,181.3c-0.6,3.4-1.2,6.8-2.6,10.1c-0.2,0.4-0.2,0.9-0.9,0.7c0.2-1,0.1-2.1-0.3-2.6
		c-0.2-3.1-0.3-5.7-0.5-8.3c-0.1-1.3-0.2-2.5-0.2-3.8c0-0.9,0.7-1.5,1.6-1C140.5,177.5,142,178.8,141.6,181.3z M142.6,218.3
		c0.7-0.9,1.2-1.2,1.9-0.8c0.6-0.7,1.3-1.3,2.5-1.3c1.5,7.3,2.1,14.8,4.2,22C147.3,232,144.9,225,142.6,218.3z M166.7,248.1
		c0-0.6,0-0.9,0-1.2c0-0.1,0-0.2,0-0.3c-0.4,0.6-0.5,1.3-0.7,2c-0.2,0.7-0.4,1.4-1.2,1.8c-0.4-0.9-0.8-1.8-1.2-2.7
		c1.1-1,1.6-2.6,3.4-3.2c-0.1,0.8-0.2,1.4-0.3,2c0.1-0.2,0.2-0.5,0.4-0.7c0.1-0.2,0.3-0.5,0.4-0.8c0.4,0,0.8,0.1,1.6,0.2
		C168.2,246.2,167.6,247,166.7,248.1z M179.8,245.1c-1.3,0.1-2.5,0.4-3.7,0.4c-1.5,0-2.9-0.1-4.5-0.2c0.4-1.2,0.4-2.8,1.7-2.9
		c3.2-0.4,6.4-0.4,9.6-1.1C181.9,242.5,180.9,243.8,179.8,245.1z M186.8,229.1c-3,0-6.1-3-6.1-6c0-3.2,2.7-5.9,5.9-6
		c3.2,0,5.8,2.7,5.8,6.1C192.4,226.4,189.8,229.1,186.8,229.1z M204.9,243.9c0-0.4,0-0.8,0-1.1c0-0.1,0-0.2,0-0.3l0,0
		c0-0.4,0.1-0.8,0.1-1.3c0,0-0.1,0-0.1,0c0,0.4,0,0.8,0,1.3c-0.3,2.9-2.3,4.3-4.8,5.3c-0.2-0.1-0.5-0.3-1-0.5c0,0.3,0.1,0.6,0.1,1
		c-0.5,0.2-1,0.5-1.6,0.8c-1-1.8-2-3.4-3-5.2c2-1.3,3.9-2.5,5.9-3.8c-2.1,0.9-4.3,1.8-6.4,2.6c0,0.1,0,0.1-0.1,0.2
		c0,0-0.1-0.1-0.1-0.1c0.1,0,0.1-0.1,0.2-0.1c0-0.2,0-0.3,0-0.5c-0.5,0.3-0.8,1.2-1.7,0.4c-0.2-1.8,1.5-1.7,2.4-2.4
		c0.3-0.3,0.6-0.3,0.5,0.3c0.3-0.4,0.9-0.7,1.5-0.9c0.3-0.1,0.6-0.2,0.9-0.3c0.3-0.1,0.7-0.2,1-0.2c1.3-0.2,2.5-0.1,2.8,0.5
		c0.4-0.3,0.7-0.4,1-0.5c0.4-0.1,0.7-0.1,1.4,0c0.2,0.4,0.3,0.7,0.5,1.2c0.1-0.3,0.2-0.5,0.3-0.7c0-0.2,0-0.4,0-0.7
		c1.1,0.1,2.2,0.3,3.3,0.4C207.3,241,206.3,242.4,204.9,243.9z M195.1,220.8c-2.1-4.6-5.2-6.7-9-6.4c-4.3,0.4-6.6,2.6-8.2,7.8
		c-8.7,0.7-17.5,1.5-26.3,2.2c-1.1-9.6-2.1-19.1-3.2-28.7c24-2.1,47.9-4.1,72.1-6.2c0.5,9.8,1,19.3,1.5,29
		C212.9,219.2,204,220,195.1,220.8z M228.2,220.5c-0.5-0.6-0.9-1-1.3-1.5c-0.5-0.2-1-0.4-1.6-0.6c-0.6,0.1-1.4,0.2-2.6,0.3
		c0,0,0,0,0,0c1,0.3,1.5,0.4,2.1,0.6c-0.3,2-0.6,3.9-0.9,6c-0.8-0.8-1.2-3.6-1.2-6.6c0,0,0,0,0,0c0,0,0,0,0,0c0-3.6,0.5-7.3,1.4-7.8
		c1.5-0.1,1.3,1.7,2.3,2c0.2,1-0.4,2.2,0.9,2.7C226.5,217.4,229.3,218.4,228.2,220.5z M226.8,209.3c0.4-0.6,0.7-1.1,1.2-2
		c0.2,1.2,0.3,2.1,0.4,3.1c-0.4,0.1-0.8,0.1-1.2,0.2C227.1,210,227,209.6,226.8,209.3z M231.7,199.7c-1.2-1.3-0.5-2.5-0.8-3.3
		c0.1,2.2-0.2,4.6-1,7c-0.4,0.2-0.8,0.4-1.3,0.6c-0.1-0.4-0.2-0.7-0.3-1c-0.6,1.8,0.3,4.1-1.7,5.5c-1-0.7-1.9-1.5-3.2-1
		c-0.2,0.3-0.4,0.6-0.7,1.2c-0.1-2.4-0.9-4.6,0.7-6.7c0.2,0.2,0.3,0.4,0.5,0.5c0.1-1,1.2-2.2-0.7-2.6c0.3,0.8,0,1.5-0.7,2.3
		c-0.2-1.9-0.3-3.5-0.4-5.3c1.4,0.2,2.5,0.3,3.6,0.4c-0.1,0.3-0.1,0.5-0.2,0.6c2.8,0.1,4.4-1.5,5.8-3.9
		C231.6,196,232.4,197.6,231.7,199.7z M236.9,172.9c-1.9,3.9-2.2,8-2.7,12.2c0,0.2-0.1,0.4-0.2,1c-2-4.1-3.5-7.9-4.4-11.9
		c2.1-3.3,4.2-6.5,6.4-9.8c0.2-0.3,1-0.5,1.1-0.5c0.6,0.9,1.4,1.8,1.6,2.8C239,169,237.8,171,236.9,172.9z M273.8,165.6
		c0.3,0.4,0.5,0.7,1,1.3c-1.1-0.1-1.9-0.2-2.1-0.2c-4.6-2.5-9.6-2.5-14.2-5.8c8.5,0.7,16.1,1.6,24,3.7c0.1,0.2,0.5,0.8,1.1,1.6
		C280,168.2,277.1,165.3,273.8,165.6z M283.5,165.5c0,0,0-0.1,0-0.1c0.1,0,0.2,0,0.2-0.1c0,0,0,0.1,0,0.1
		C283.6,165.4,283.6,165.4,283.5,165.5z M305.2,154.5c-0.3,0.4-0.7,0.6-1.2,0.8c-0.6-0.4-1.2-0.7-1.8-1.2c0.1-2.1-1-3.5-2.5-4.9
		c0.7-1.2,0-2.5,0.4-4.2c0.4,0.9,0.5,1.2,0.7,1.6c0.4-0.6,0.8-1.2,1.7-0.8c0.5,0.5,0.9,1,1.2,1.5
		C305.6,150.1,306.2,153.1,305.2,154.5z M306.3,151c0,0,0-0.1,0-0.1c0.1,0,0.2,0,0.2-0.1c0,0,0,0.1,0,0.1
		C306.4,151,306.4,151,306.3,151z"/>
	<polygon points="196.6,188.6 197.8,188.5 197.1,187 	"/>
	<path d="M189.7,188.1c0-0.3-0.3-0.5-0.6-0.5l-0.8,0.1l0.1,1.1l0.8-0.1C189.5,188.6,189.7,188.4,189.7,188.1z"/>
	<path d="M199,181.3c0.3,0,0.5-0.2,0.5-0.5c0-0.3-0.2-0.4-0.5-0.4l-1,0.1l0.1,0.8L199,181.3z"/>
	<path d="M177.3,184.9c0.8-0.1,1.2-0.7,1.2-1.4c-0.1-0.7-0.6-1.3-1.4-1.2c-0.8,0.1-1.2,0.7-1.2,1.4C176,184.4,176.5,185,177.3,184.9
		z"/>
	<polygon points="170.7,190.8 169.9,189.2 169.5,190.9 	"/>
	<polygon points="209.2,245.9 209.2,245.9 209.2,245.9 	"/>
	<path d="M162.5,264c0,0.2,0.1,0.4,0.1,0.7C162.6,264.4,162.6,264.2,162.5,264z"/>
	<path d="M155.8,255.5c-0.3,0.7-0.3,2.5,0.1,3.6C156.1,258,156.1,256.8,155.8,255.5z"/>
	<path d="M157.5,103.2c0.4,1.1,1.5,2.7,3.6,1.6c0.9,3.5,4.7,5.2,5.1,9.2c0.3,3.1,0.2,6.3,0.9,9.3c0.9,3.9-0.3,6-4.3,6.4
		c0,0-0.1,0.1-0.2,0.2c1.1,0.4,2.4,0.3,3.3,1.6c-0.4,0.7-0.8,1.5-1.2,2.3c0.2,0.2,0.5,0.3,0.9,0.6c0-1.2,1.7-0.8,1.4-2.1
		c0.2,0.1,0.4,0.1,0.5,0.1c0.5-0.5,0.8-0.7,0.9-0.8c1.1,0.6,1.9,0.9,2.7,1.3l0,0l0,0c0,0,0,0,0,0l0,0c0,0,0,0,0,0
		c0.3-0.2,0.6-0.3,0.8-0.4c-0.1-1.5-0.1-3.1-0.2-4.7c-0.9,0-0.7-0.9-1-1.5c-0.7,0.2-1-0.3-1.6-1.1c2.1,0.7,3.7-0.6,5.4-0.6
		c0.4,0.7,0.7,1.2,1,1.9c0.4-1.1-1.1-2.3,0.5-3.3c0.7,1.7,0.4,3.7,1.6,5.1c1-0.6,1.2-1.4,0.7-2.5c0.4-0.2,0.7-0.4,1-0.6
		c-0.6-0.5-0.8-1.1-0.6-1.8l0,0c-0.1-0.1-0.2-0.2-0.2-0.2c0,0,0,0,0,0h0l0,0c-0.1,0-0.1,0,0,0c-0.1-0.1,0,0,0,0c0,0,0,0,0,0l0,0l0,0
		c0.1,0.1,0.2,0.2,0.2,0.2c0.1-0.2,0.2-0.5,0.2-0.5c-0.9-0.7-0.9-1.6-0.5-2.4c0.4-1,1.4-1.3,2.4-1.4c0.4,1.1,0.7,2.1,1.1,3.3
		c0.2,0.1,0.5,0.4,1.1,0.8c-0.5,0.2-0.8,0.3-1.2,0.4c0.7,0.5,1.1,0.9,1.5,1.2c0.6-0.1,1.2-0.2,2.1-0.3c-1.4-1.9-0.7-3.5,0.3-5
		c-0.1-0.2-0.4-0.4-0.7-0.7c-0.4,0.7-0.9,1.2-1.8,1.3c-0.6-0.8-1.2-1.6-1.8-2.4c2-1.7,4.4,0.9,6.2-0.8c1,0.7-0.3,1.7,0.8,2.4
		c0.1,0,0.5,0.1,0.9,0.1c-0.4-0.6-1.3-0.8-1.1-1.6c0.8-1.2,1.5,0.7,2.1,0.1c1.2,0.2-0.1,1.4,1.1,1.7c-0.1-0.6-0.2-1.2-0.4-1.9
		c2.7-1.7,6.8-0.3,8.6-4.3c0.8,1.5-0.7,2.8,0.4,3.6c-1,1.9,0.6,3.6,0.1,5.3c0,0,0,0,0,0c0,0,0-0.1,0,0c0,0,0.1,0,0,0l0,0h0
		c0,0,0,0,0,0l0,0c0.1,1.6,0.2,3.3,0.3,5.1c0.4,0,0.8-0.1,1.2-0.1c0.8,1.7,1.7,3.3,1.3,5.2c0.4,0.4,0.7,0.9,1.1,1.3
		c-0.3,0.9-0.5,1.8-0.9,2.9c1-0.1,1.7-0.2,2.4-0.2c0.2-0.3,0.4-0.6,0.6-0.9c4.1,0.3,5.7,5,9.8,5.2c-0.2,1-0.4,1.6-0.6,2.4
		c0.6,0.3,1.2,0.5,1.8,0.8c0.2-0.9,0.4-1.6,0.5-2.3c0.5-0.2,0.9-0.4,1.5-0.6c-1.4-3.8-2.7-7.6-4.1-11.3c-0.8-2.1-2.1-3.5-4.5-3.5
		c-3,0-5.8-1.7-8.8-1.1c-2.7-6.3-0.1-17.9,5-22.9c-1.5,0-3.4,0.3-3.8-1.5c-0.8-3.4,0.9-6.5,1.6-9.7c1.4,0.3,2.4,0.4,3.4,0.6
		c0.2-5.9,1.4-11.9-2.3-16.9c0.3-1,0.5-1.7,0.7-2.3c0,0,0-0.1,0.1-0.1c-1.1,0-0.9-1-1.2-1.8c0,0.6,0,0.9-0.6,0.9
		c-0.1-0.3-0.2-0.5-0.2-0.5c-1.6-0.5-2.9-0.9-4.2-1.3c0-0.1,0-0.2,0.1-0.3c0-0.1,0-0.1,0.1-0.2c0,0,0-0.1,0.1-0.1c0,0,0,0,0-0.1
		c0,0,0,0,0.1,0c0,0,0.1,0,0.1-0.1c0,0,0,0,0,0c0.3-0.1,0.9-0.1,2.2,0c0,0,0,0,0,0c-3.6-1.9-6.5-5.3-10.7-5c-0.9-1.1,0-2.5-1.3-3.2
		c0.4,0.8-0.3,1.1-0.6,1.6c-0.8,0.1-1-0.4-1.1-1c-0.3,0.1-0.6,0.2-1.2,0.5c0.8-1.7,1.9-1.2,2.9-1.2c-0.6-0.1-1.1-0.3-1.6-0.5
		s-1-0.5-1.5-0.8c-0.9-0.6-1.8-1.4-2.5-2.3c-0.5,1-1.1,1.3-1.6,1.3c-0.9,0-1.8-0.8-2.7-1c0.1,0.4,0.3,0.9,0.5,1.6
		c-1.4-0.9-2.6-0.1-3.9-0.1c-0.3,0.9-0.4,1.9,0.3,3c-1-0.4-1.7-0.6-2.4-0.9c0,0.2,0,0.4-0.1,0.6c-0.7-0.5-1.3-0.9-2.3-0.7
		c0.7,0.4,1.3,0.7,2,1c-0.1,0.6-0.2,1.1-0.4,1.6c-0.6,0.1-1.1,0.2-1.1,0.2c-1.1,1.6-2,2.6-3,2.8c-11.3,6.4-14.1,16.3-12.3,28.3
		C156.1,97.2,156.4,100.3,157.5,103.2z M173.5,68.6c-1.1,0.2-2.2-0.1-3.2,0.7c-0.1-0.5-0.3-0.8-0.2-0.9c2.5-3.4,5.6-6.4,9.8-7
		c3.9-0.6,7.9,0.1,11.4,2.2c2.3,1.4,4.1,3.4,5.9,5.3c6.6,5.3,8.5,12.5,8.5,20.4c-0.8-8.2-2.7-15.7-11.2-19.3
		c-3.5-1.5-7.1-1.2-10.8,0c0.3,1.1,0.6,2.2,0.9,3.4c-1.5-0.4-2.2-3.2-3.8-1.5c-1.3,1.4-1.9,3.5-3,5.6c2.2-1.3,1.6-4.3,3.9-4.9
		c1.7,1.2,1.6,3.8,4.1,3.9c-0.1-1.1,0.2-1.7,1.5-1.5c0.1-0.1,0.2-0.4,0.2-0.4c1.3,1,2.6,2,4.2,3.2c0.5-0.2,1.2,0.8,2.4,1.1
		c-2.3-0.1-4.3-0.4-6.5,0.2c4.2,2.2,9.3,1.2,13.3,4.7c0-0.2,0-0.3-0.1-0.4c0,0,0,0,0,0c0,0,0,0,0-0.1c0,0,0,0,0,0
		c-0.1-0.7-0.2-1.1-0.3-1.6c2,1.9,0.8,4.6,2.3,7.1c-1-0.4-1.2-0.5-1.5-0.7c-1.2,1-1.6,2.6-2,3.8c0.2,0.2,0.4,0.5,0.5,0.7
		c0.4,1-0.4,1.9-0.1,2.8l0,0c0,0,0,0,0,0l0,0c1.1,1.9-0.3,3.7-0.2,5.5c0,0.5,0,0.9,0,1.4l0,0v0c0,0,0,0,0,0c0.1,0.1,0.2,0.2,0,0
		c0,0,0,0.1,0,0.1c0,0,0,0,0-0.1l0,0v0c0,0,0,0,0,0c0,0.1-0.1,0.2-0.1,0.3c-0.4,0.7-1.4,1.2-1.1,2.3c0.5,0.1,0.8-0.7,1.3-0.1
		c-0.8,1.4-0.9,3.3-2.5,4.3c-0.1-0.3-0.1-0.5-0.3-0.8c-0.5,0.3-0.9,0.5-1.3,0.8c-0.5-0.1-1-0.2-1.9-0.4c-1.1-3,2.3-5.4,1.5-8.7
		c0.4,0.3,0.5,0.4,0.5,0.4c0-0.8,0-1.8,0-2.9c-1.6,0.6-0.9,1.7-1.1,2.7c-1.1-0.2-1-1-1.1-2.4c0.4,2.5-1.3,3.7-1.2,5.5
		c-0.7,0.7-1.4,1.4-2.2,2.1c-0.2-0.3-0.3-0.6-0.5-0.9c-0.7,0.7-1.9,0.9-2.4,2c-0.2-0.1-0.4-0.2-0.5-0.3c-0.1,0.2-0.2,0.5-0.5,0.9
		c-0.1-0.4-0.2-0.7-0.3-1.1c-0.4,0.4-0.9,0.7-1.3,1c-1.1-0.1-2.1-0.2-2.4-1.6c-0.2,0.5-0.4,0.9-0.6,1.2c-3.5,0.5-6.1-1-8.6-3.1
		c-0.4,0-0.9-0.1-1.3-0.1c-0.6-0.5,0.1-1.7-0.9-1.6c-1.1-4.2,0.3-8.6-2.3-12.4c-0.2-0.5-0.5-1-0.7-1.4c-0.1,1-0.1,2-0.3,3.7
		c-1.5-2-1.4-3.7-1.3-5.4c-0.2-0.1-0.5-0.2-0.9-0.3c0,0,0,0,0,0c0,0,0,0,0,0c0,0.1,0,0.2,0,0.2c-0.1,0-0.1-0.1-0.1-0.1
		c0.1-0.1,0.1-0.1,0.2-0.2c0,0,0,0,0,0c0,0,0,0,0,0c-0.2-2.9,2.2-3.9,4.1-4.8c2.1-1,4.8-0.6,7.1-2.2c-0.7,2.8-1.2,5.1-3.1,7.1
		c-2.8,2.8-3.3,6.5-1.4,10.5c0.4-1.7,0.8-3.4,1.2-5c0.3,1.9-0.4,3.9,1.3,5.5c-1.2,1.6-0.1,3-0.1,4.5c1.2,0,2.3,0,4.4,0
		c-1.4-0.5-1.8-0.6-2.3-0.8c0.1-0.4,0.1-0.9,0.2-1.4c-0.4-0.2-0.8-0.4-1.3-0.7c0.6-0.7,1.2-0.7,1.9-0.6c-0.4-0.1-0.7-0.3-1.2-0.4
		c3.4-2,6.8-2,10.4-1.1c0.1-0.3,0.2-0.6,0.4-1.6c0.1,1,0.1,1.4,0.2,2c2.2,0,2.5-1.8,3.4-3.6c0.2,1.3,0.4,2.2,0.5,2.9
		c0.3-2.4,1.4-5.1,0.6-7.7c-0.8-2.6-3.3-3.9-5-5.8c0-0.5,0.8-0.9,0.1-1.5c-0.2,0.3-0.5,0.6-0.8,0.9c-0.4-0.1-0.9-0.2-1.7-0.4
		c0.7-0.4,1.1-0.7,1.6-1c-0.3-1.5-1.7-1.2-2.6-1.6c-0.5-0.2-0.8,0.2-0.9,0.8c0.6,0.5,1.2,1,1.9,1.6c-1.1,0.6-2.5,1-3,2.6
		c0.6,0.3,1.2,0.7,2.2,1.3c-1.8,0-3.1,0-4.6,0c0.9-0.8,1.9-1,1.8-2.1c-0.1-0.2-0.3-0.6-0.5-1c-0.6,0.3-1.2,0.3-1.4-0.6
		c0.3-0.2,0.7-0.4,1-0.6c0.5-1.1,0.9-2.1-0.5-2.9c-0.6,0.4-1.1,0.6-1.7,1c0-0.6-0.1-0.9-0.1-1.3c-0.4,0.2-0.7,0.4-1.1,0.7
		c-0.3-0.1-0.9-0.2-0.6-1c2.5-0.2,2.2-2.8,3.5-4.2c-1.2-1.3,0.6-2.3,0.1-3.9c-8-1.4-14.3,1-17.9,9.6C160.2,74.8,167.5,69,173.5,68.6
		z M175.2,92.2L175.2,92.2c-0.1,0-0.3,0-0.6,0c0.6-0.6,0.8-1.1,0-1.7c0.4-0.2,0.7-0.3,1.1-0.5c0.1-0.4,0.2-1,0.3-1.3
		c3.2-2.7,6.6-2.5,10.4-1.1c1.3,0.9,2,2.6,2.6,5.2C184.2,87.8,180,88,175.2,92.2C175.2,92.2,175.3,92.2,175.2,92.2z"/>
	<path d="M167.5,132.5C167.6,132.6,167.6,132.6,167.5,132.5L167.5,132.5z"/>
	<path d="M180.9,57.2C180.8,57.2,180.8,57.2,180.9,57.2C180.8,57.2,180.8,57.2,180.9,57.2C180.8,57.1,180.8,57.2,180.9,57.2
		C180.8,57.2,180.8,57.2,180.9,57.2L180.9,57.2C180.8,57.2,180.8,57.2,180.9,57.2L180.9,57.2C180.9,57.2,180.9,57.2,180.9,57.2z"/>
	<path d="M149.2,149.1c0,1,0.1,1.8,0.1,2.7c-0.1,0.2-0.3,0.6-0.5,0.9c0.1,0.4,0.2,0.8,0.3,1.1c1.7-0.3,3.2-1,4.4-2.3
		c-0.5-3.8,2-10.2,4.4-11.3c1.9,1.1,3.8-0.8,6.1,0.3c2.4,4.5-2.5,9.1,0.2,14.4c-0.4-0.4-0.2-0.1,0,0c0,0.8,0,1.4,0,2.1
		c-0.7,0.3-1.3,0.6-1.3,1.5c0.9,0.7,1.6-0.4,2.4-0.2c-0.1-1.1-0.1-2.1-0.2-3.1c-0.2-1.9,2.3-5.1,4.4-4.9c1.9,0.2,2,2.2,2,3.8
		c0,2.4,0.4,4.9-2.4,6.7c1.7,0.1,2.9,0.2,4.7,0.3c-1.2-0.5-1.7-0.8-2.4-1.1c0.6-0.7,1.1-1.3,1.6-1.9c-0.2-0.3-0.4-0.5-0.6-0.8
		c0.2-0.7,0.4-1.3,0.6-1.9c-0.4-0.1-0.8-0.3-1.1-0.4c-0.2-1.5,1.2-0.6,1.6-1.1c-0.5-0.2-0.9-0.4-1.6-0.7c1.1-2.8,3.2-4.2,5.8-5.5
		c0.8,2.6,3.9,0.4,4.9,2.4c0.5-0.2,1-0.4,2.1-0.8c-1.5,2-1.3,3.8-1.4,5.7c-0.9,0.1-1.7,0.1-2.5,0.2c0,0,0,0,0,0
		c0.8,0.6,0.8,1.4,0.5,2.2c0.3,0.4,0.6,0.7,1,1c0.7-1.4,0.6-0.1,1.2,2.3c0.8-3.1,6.9-7.4,6.9-7.2c0.3-0.5,0.4-1,0.5-1.7
		c1.6-5.5,7.1-7.2,9.8-11.5c-1.2,1-2.2,2.3-4.4,3.3c0.5-0.6,0.8-0.9,1-1.1c-9.6,5.7-19,6.7-28.2-0.9c-3.7-3-7.9-6.1-8.7-11.8
		c-3,0.8-6.5,0.4-9.1,1.8c-1.4,7-2.7,13.5-4,20.2c0.1,0.2,0.4,0.5,0.7,0.9C148.8,151.8,147.4,150,149.2,149.1z M149.4,141.4
		c1.1,0.9,0.6,6.7-0.4,7.3C148,146.3,148.9,144,149.4,141.4z"/>
	<ellipse transform="matrix(0.5536 -0.8328 0.8328 0.5536 -161.5205 240.3114)" cx="143.4" cy="270.8" rx="0" ry="0"/>
	<path d="M78.3,173.3c1.8-2.6,4.4-4.5,5.5-7.9c1-3,3.1-5.7,3.6-8.7c0.8-4.6,0.9-9.4,2.5-13.7c2.1-5.7,5-11.2,7.3-16.9
		c3.9-10,10.4-17.2,21-20.1c1.3-0.4,2.6-0.4,3.8-1.5c3.5-3.4,7.5-6,12.4-7.2c0.8-0.2,1-0.7,0.8-1.4c-1.1,0.3-2.2,0.5-3.3,0.7
		c-1.1,0.2-2.2,0.5-3.2,0.7c-0.4,1.4-6.8,5.8-8.4,5.8c0-0.5-0.1-1.1-0.1-1.3c-1.1,3.8-5,3.6-7.8,4.2c-3.1,0.7-6.3,1.1-9.1,2.3
		c0.2,0.3,0.6,0.8,1,1.5c-0.9,0.1-1.6,0.1-2.3,0.2c-0.1,0.8-0.2,1.5,0.3,2.1c-0.6,0.9-2.3,0.6-2.1,2.2c0.4,0.1,0.7,0.2,1.4,0.3
		c-2.5,4.9-4.9,9.7-7.2,14.5c-1.1,2.6-2.3,5.2-4.2,7.4c0.2,0.2,0.3,0.5,0.5,0.7c-1,1-1.5,2.2-1.7,3.6c-0.2,0.1-0.3,0.2-0.4,0.3
		c-1.5,5.3-3.1,10.1-5.9,15.1c0.1,1.8-4.6,10.9-6.3,11.4c0.3,0.3,0.7,0.6,0.9,0.8C76.6,172.9,76.6,172.9,78.3,173.3z"/>
	<path d="M108.1,84.3C108.1,84.3,108.1,84.3,108.1,84.3c1.1,1.8-0.7,3.1-0.5,4.8c0.3,2.2,1.7,2.8,3.4,3c0.4,0.4,0.7,0.8,1.2,1.3
		c1.5,0,3.2,0,4.7,0c1.8-0.5,1.4-2.9,3-3.6c0,0.1,10.5-10.1,13.3-17.7c-2.2,1.6-3.8,2.8-5.5,4c0,0.4-0.1,1-0.1,1.5
		c-0.5,0.3-0.9,0.6-1.2,0.8c-0.5,0.9,0.1,1.5,0.4,2.2c-1.6,2.4-3.9,4.1-6.3,6.2c0-1.8,0.7-5.1,0.9-5.5c-0.9,2.7-2.7,3.5-6.1,2.6
		c0.2-0.9,0.3-1.9,0.4-2.6c-2.9,0.1-6.4,1.1-4.5-4.4c-3.6,1.3-4.9-1.9-7.2-2.9c-0.4,0.3-0.9,0.6-1.4,1c-0.4,0-0.8-0.1-1.4-0.2
		C104.1,77.5,104.3,81.5,108.1,84.3z M113,86.8c0.7-0.6,1.3-0.5,1.8,0.5c-0.7,0.6-1.4,1.2-2,1.8C111.8,88.1,112.3,87.5,113,86.8z
		 M112.3,84.6c-0.9,0.7-1.6,1.3-2.4,2c-0.4-0.5-0.7-0.9-1.1-1.4C109.8,84.4,110.6,83,112.3,84.6z M105,76.8c1.5-0.8,1.7,1,3.3,1.1
		c-1.1,1-1.8,1.5-2.5,2.1C103.9,79.2,105,77.9,105,76.8z"/>
	<path d="M108.1,84.3c-0.1,0-0.2-0.1-0.3-0.1C107.9,84.2,108,84.3,108.1,84.3z"/>
	<path d="M284.4,77.5c0.5,1.3,0.9,2.4,1.3,3.4c0.9,0.1,1.7,0.3,2.3,0.3c0.7-0.1,0.9-1.3,1.8-0.2c-0.1-5.3-0.8-10.2-3.2-15.5
		c-0.8-1.4-2.3-0.4-3-0.4C282.4,69.4,286,73.5,284.4,77.5z"/>
	<path d="M218.4,244.6c0-0.6-0.4-1.3,0.5-1.4c-0.1-1.6,0.3-2.9,1.6-4.2c0-0.1,0-0.3,0.1-0.7c0.1,0.2,0.1,0.4,0.2,0.5c0,0,0,0,0,0
		c0.5,0.6,0.8,1.1,1.2,1.5c0.7-0.5,0-1.8,1.3-1.9c0.8,0.5,1.2,1.3,1,2.3c2.2-0.6,4.1-0.2,5.8,1.2c-0.9-1.4-1.1-3.1-2.5-4
		c-0.4,0.2-0.8,0.3-1.1,0.4c-0.7-0.9-1.4-1.6-2.1-2.4c-0.5,0.4-1,0.8-1.5,1.2c-0.2-0.3-0.3-0.5-0.4-0.7c-0.1,0.3-0.2,0.6-0.4,1.3
		c-0.1-0.6-0.2-0.9-0.3-1.4c-0.7,0.7-1.3,1.2-1.6,1.8c-1.9,3.8-3.7,7.7-5.8,11.4c-0.1,0.2-0.2,0.5-0.2,0.7c-0.2,0.9-0.4,1.9-1.8,1.6
		l0,0c0,1.8-0.7,3.1-1.7,4.3c0.2-0.1,0.4-0.2,0.5-0.3c0.1-0.1,0.2-0.2,0.2-0.3c0.5-0.7,0.6-1.6,1.9-1.3l0,0
		c-0.2-0.8,2.8-7.4,3.5-7.8c0.1,0.1,0.1,0.2,0.2,0.4C217.3,245.9,217.4,245.1,218.4,244.6z"/>
	<path d="M209.3,257.8c0.3,0,0.6,0,1.2-0.1c-0.8,1-1.7,1-2.4,1c0.2,0.1,0.6,0.1,0.9,0.2c0.3,1.4,1.3,2.4,2.1,3.5
		c-0.3,0.3-0.6,0.5-0.8,0.7s-0.5,0.5-0.8,0.7c-0.3,0.2-0.6,0.5-1,0.7c-0.1,0.1-0.2,0.2-0.2,0.2c0,0,0,0.1,0,0.1c0,0,0-0.1,0.1-0.1v0
		c0.1-0.1,0.2-0.2,0.2-0.2c0.3-0.2,0.6-0.5,1-0.7c0.4-0.2,0.9-0.4,1.5-0.6c0.2,0.2,0.5,0.4,0.8,0.6c0.2,0.1,0.5,0.2,0.7,0.3
		c0.7,0.3,1.4,0.6,1.6,1.7l0,0c0,0,0,0,0,0c0,0,0,0-0.1,0c0,0,0,0,0.1,0c0,0-0.1,0.1,0,0l0,0l0,0c1-1.2,1.6,0.6,2.4,0.4
		c-0.2-0.3-0.3-0.7-0.5-1.1c0.2-0.2,0.4-0.4,0.5-0.4c-0.9-1.6,0.1-3.2-0.1-4.9c-0.3,1.8-0.5,3.5-0.8,5.8c-1.9-1.7-3.5-2.8-4.8-4.3
		c-1.2-1.3,0.3-2.6,0.4-4.1c0.4-0.2,0.9-0.4,1.2-0.6c-0.2,0-0.5-0.1-1.3-0.3C210.3,256.8,209.8,257.3,209.3,257.8z M214,265.8
		C214,265.8,214,265.8,214,265.8C214,265.8,214,265.8,214,265.8C214,265.8,214,265.8,214,265.8z"/>
	<path d="M217.2,246.9C217.2,246.9,217.2,246.8,217.2,246.9C217.2,246.8,217.2,246.9,217.2,246.9
		C217.2,246.8,217.2,246.9,217.2,246.9z"/>
	<path d="M210.8,256.3C210.8,256.2,210.8,256.2,210.8,256.3C210.8,256.2,210.8,256.2,210.8,256.3
		C210.7,256.2,210.8,256.2,210.8,256.3z"/>
	<path d="M232.1,225.1c1.3,0.5,1.8,1.8,2.8,2.8c-0.4-1.5-0.7-2.9-2-3.8c0.1-0.9,0.1-1.8,0.2-3.1c-0.8,1.9-0.8,3.7-2.1,5.1
		c-0.5-0.6-0.9-1.2-1.3-1.8c-0.3,1.1-0.8,1.9-1.8,2.1c-0.3,0.6-0.6,1.2-0.9,1.8c-0.6-0.8-1.1-1.5-1.9-2.6c0.9,1.9,1.5,3.3,2.1,4.6
		c0.8-0.4,1.2,0.2,1.7,0.7c0,0.4,0,0.9,0,1.4C230.9,230.4,231,227.6,232.1,225.1z"/>
	<path d="M178.1,155.5C178.1,155.5,178.1,155.5,178.1,155.5C177.9,155.5,177.9,155.5,178.1,155.5z"/>
	<path d="M183.6,165.7c-0.5-0.4-4.2-6.4-5.4-8.8c0.3-0.4,0.6-0.6,0.9-0.8s0.7-0.1,1,0l0,0c-0.2-0.2-1.7-0.5-2.1-0.6
		c-2.1,2.8,2.8,5,0.3,7.7c0.5,0.6,0.9,1.2,1.2,1.7c-0.1,0.4-0.2,0.7-0.3,1c0.9,0,1.3-0.5,1.7-1.1c0.4,0,0.7,0,1.2,0
		C182.3,165.7,182.9,165.7,183.6,165.7z"/>
	<path d="M190.1,268c0,0.7,0,1.2,0,2c0.2-0.9,0.3-1.5,0.4-1.9c0.8-0.3,1.4-0.5,2.4-0.9c-1.3,0.3-1.4-0.6-1.8-1.1
		c0.2-1.1,0.5-2.1,0.7-3.2c-1.1,0.4-1.9-1-2.9-0.4c0.4,0.2,0.9,0.5,1.5,0.8c-0.3,0.6,0.1,1.4-0.8,1.7c0,0-0.1-0.1-0.2-0.2
		c0.1,0.8,0.2,1.6,0.3,2.5c-1.2,0-2.1,0-2.7,0C187.8,267.4,188.9,267.7,190.1,268z"/>
	<path d="M260.3,140.3L260.3,140.3c0.1,0,0.3,0,0.6,0c-2.4-1.7-4.7-3.3-7.1-5C255.6,137.3,255.8,141.3,260.3,140.3z"/>
	<path d="M260.9,140.4C260.9,140.4,260.9,140.4,260.9,140.4C260.9,140.4,260.9,140.4,260.9,140.4
		C260.9,140.4,260.9,140.4,260.9,140.4C260.9,140.4,260.9,140.4,260.9,140.4L260.9,140.4z"/>
	<path d="M203.7,267.9c0,0.1,0.2-0.4,0.9-0.6c0.3,0.3,0.5,0.6,0.7,0.9c0.1-0.1,0.2-0.1,0.3-0.2c-0.4-0.9-0.8-1.8-1.3-2.6l0,0
		c0,0,0,0,0,0c0,0,0-0.1,0-0.1c0,0,0,0,0,0c0-0.1,0,0,0,0l0,0l0,0c-0.1-0.1,0,0,0,0c0,0.3-0.1,0.5-0.2,1.1c-0.2-0.5-0.3-0.7-0.6-1.4
		c0.3,1.9-0.9,2.2-1.6,2.9c-0.3-0.1-0.5-0.2-0.6-0.3c0.1,2.1-2.2,2.8-2.7,4.7C200.2,270.8,201.8,269.5,203.7,267.9z"/>
	<path d="M234.8,249.3c0.3-0.2,0.6-0.3,0.9-0.5c0.2-0.2,0.5-0.4,0.9-0.7c-2.9,0.8-2.2,3.3-2.8,5c0.8,0.7,1.3,0.2,1.9-0.1
		c-0.1-0.3-0.2-0.6-0.3-0.8c0.6-1,1.4-1.7,1.3-2.9c-0.5,0.5-1,0.9-1.5,1.4C235,250.2,234.9,249.7,234.8,249.3z"/>
	<path d="M181.4,175.8c0.1-1.1,0.2-2.1,0.3-3.1c-0.3-0.1-0.6-0.2-0.9-0.3c-0.7,1.1-1.3,2-1.9,2.9c0.3-0.1,0.7-0.2,1.3-0.4
		c-0.3,1-0.6,1.7-0.8,2.4C179.7,176.3,180.7,176.1,181.4,175.8z"/>
	<path d="M194.4,252.4c0.5,0.5,1,0.9,1.5,1.3c0-0.4,0-0.7,0-1.2c0.2,0.1,0.3,0.2,0.4,0.3c0.9,0.7,1.2,2,2.4,2.1l0,0
		c-0.2-0.3-0.4-0.6-0.5-0.7c0.3-0.7,0.5-1.4,0.8-2.2c-0.9,0.5-1.5,1.2-2.4,0.5c0.1-0.2,0.2-0.4,0.4-0.8c-0.4,0.3-0.7,0.3-0.9,0.2
		c-0.3-0.1-0.5-0.3-0.7-0.4l0,0c0.1,0.3,0.1,0.6,0.2,0.9C195.3,252.3,194.9,252.4,194.4,252.4z"/>
	<path d="M204.8,95.3c1-0.7,1.5-1,2-1.3c0.8,0.5,1.5,0.9,2.6,1.5c-0.2-1.6-0.8-2.4-1.8-3.1C206.3,92.8,205.5,93.7,204.8,95.3z"/>
	<path d="M228.9,262.7c1.4-1.4,2.8-2.9,3.1-5l0,0c0.1,0,0.2,0,0.2-0.1c0.2-0.1,0.1-0.3-0.1-0.5c0,0.3-0.1,0.4-0.1,0.6
		c-1.5,2.2-3,4.3-4.4,6.5C228,263.6,228.4,263.1,228.9,262.7z"/>
	<path d="M202.2,260.4c0-1.1,1-1.2,1.6-1.9c-1.1,0-1.7-0.4-2.5-1c-0.3,0.9,0.1,1.9-0.8,2.3l0,0C201.2,259.4,201.7,259.7,202.2,260.4
		z"/>
	<path d="M95,94.6c-0.5,1-0.5,2.9-0.6,4.9C95.6,97.7,94.7,95.7,95,94.6z"/>
	<path d="M233.6,262.8L233.6,262.8c-0.5-0.2-0.9-0.4-1.4-0.6c0,0,0,0,0,0c0,0.2,0,0.3,0.1,0.5c-0.1,0-0.2,0-0.2,0
		c0-0.2,0-0.3-0.1-0.5c-0.2,0.5-0.5,1-0.7,1.4l0,0c0,0,0,0,0,0l0,0c0.8-0.2,1.6,0.5,2.4-0.1C233.4,263.2,233,262.9,233.6,262.8z"/>
	<path d="M233.8,262.7c-0.1,0-0.2,0-0.2,0C233.6,262.8,233.7,262.8,233.8,262.7C233.7,262.8,233.7,262.8,233.8,262.7z"/>
	<path d="M233.6,263.5C233.6,263.5,233.6,263.5,233.6,263.5C233.6,263.5,233.6,263.5,233.6,263.5
		C233.6,263.5,233.6,263.5,233.6,263.5z"/>
	<path d="M206.1,97.5c-0.6-0.8-0.9-1.4-1.4-2.1c0,0.8,0,1.4-0.6,1.9C204.7,97.3,205.2,97.4,206.1,97.5z"/>
	<path d="M172.4,134.7c-0.2-1-0.6-1.5-1.4-1.7c0,0.4,0.2,0.7,0.4,1C171.7,134.3,172,134.5,172.4,134.7z"/>
	<path d="M195.3,251.1c-0.1-0.1-0.1-0.3-0.2-0.4c-0.1-0.1-0.2-0.2-0.3-0.3c-0.2-0.1-0.4-0.1-0.7,0c0.6,0.5,1,0.7,1.4,1l0,0
		C195.4,251.3,195.3,251.2,195.3,251.1z"/>
	<path d="M203,68.8C202.9,68.8,202.9,68.8,203,68.8C202.9,68.8,202.9,68.8,203,68.8c-0.1,0-0.1,0-0.2,0
		C202.8,68.8,202.8,68.8,203,68.8C202.9,68.8,202.9,68.8,203,68.8z"/>
	<path d="M203,68.8c0.2,0,0.3,0,0.3,0C203.2,68.9,203.1,68.8,203,68.8z"/>
	<path d="M203.1,68.9c0,0-0.1,0-0.1-0.1h0c0,0,0,0,0,0C203.2,69,203.5,69.1,203.1,68.9z"/>
	<path d="M180.2,156.1C180.1,156.1,180.1,156.1,180.2,156.1L180.2,156.1C180.1,156.1,180.1,156.1,180.2,156.1z"/>
	<path d="M180.2,156.1L180.2,156.1C180.2,156.2,180.2,156.2,180.2,156.1z"/>
	<path d="M180.2,156.1C180.2,156.1,180.2,156.1,180.2,156.1C180.2,156.2,180.2,156.2,180.2,156.1
		C180.2,156.2,180.2,156.2,180.2,156.1C180.2,156.2,180.2,156.1,180.2,156.1L180.2,156.1L180.2,156.1z"/>
	<path d="M200.5,259.8C200.3,259.9,200.4,259.9,200.5,259.8L200.5,259.8z"/>
	<path d="M200.5,259.8C200.3,260,200.4,259.9,200.5,259.8L200.5,259.8z"/>
	<polygon points="144.6,277.9 144.7,277.9 144.6,277.9 	"/>
	<path d="M179.4,266C179.4,265.9,179.4,266,179.4,266L179.4,266z"/>
	<path d="M180.9,258.7C180.9,258.6,180.9,258.6,180.9,258.7L180.9,258.7C180.9,258.6,180.9,258.6,180.9,258.7z"/>
	<polygon points="209.2,245.9 209.2,245.9 209.2,245.9 	"/>
	<polygon points="260.9,140.4 260.9,140.4 260.9,140.4 260.9,140.4 260.9,140.4 260.9,140.4 	"/>
	<path d="M226.7,232.2C226.7,232.2,226.7,232.2,226.7,232.2L226.7,232.2C226.7,232.2,226.7,232.2,226.7,232.2z"/>
	<path d="M226.7,232.2C226.7,232.1,226.7,232.1,226.7,232.2C226.7,232.2,226.7,232.2,226.7,232.2
		C226.7,232.2,226.7,232.2,226.7,232.2z"/>
	<path d="M226.7,232.2C226.7,232.2,226.7,232.2,226.7,232.2C226.7,232.2,226.7,232.2,226.7,232.2
		C226.7,232.2,226.7,232.2,226.7,232.2z"/>
	<path d="M226.7,232.2C226.7,232.2,226.7,232.2,226.7,232.2C226.7,232.1,226.7,232.1,226.7,232.2z"/>
	<polygon points="228.9,223.3 229,223.3 229,223.2 	"/>
	<path d="M153,247.5L153,247.5L153,247.5L153,247.5C153,247.5,153,247.5,153,247.5z"/>
	<path d="M175.2,255c0.1-0.1,0.1-0.9-0.2-0.9c-0.1,0.4-0.3,0.8-0.4,1.2c-0.7-0.2-1.4-0.6-1.9-1c-0.2-0.2-0.4-0.4-0.7-0.5
		c-0.6-0.6-1.2-1.2-1.7-1.9l0,0l0,0c-0.1-0.1-0.2-0.3-0.3-0.4c0,0,0,0,0,0c0,0,0,0,0,0c0,0,0,0,0,0l0,0c0,0,0,0,0,0c0,0,0,0,0,0
		c0,0,0,0,0,0c0,0,0,0,0,0c0,0,0,0,0,0c0,0,0,0,0,0c0,0,0,0,0,0l0,0c0,0,0,0,0,0l0,0l0,0l0,0c0.1,0.1,0.2,0.3,0.2,0.4c0,0,0,0,0,0.1
		l0,0c0.2,0.4,0.4,0.8,0.6,1.2c-0.6,0.6-1.1,1.2-1.6,1.7l0,0c-0.1,0.1-0.2,0.2-0.2,0.2l0,0c0,0,0,0,0,0c0.1-0.1,0.2-0.2,0.2-0.2
		c0.2-0.1,0.4-0.3,0.6-0.4c0.2-0.1,0.4-0.2,0.6-0.4c1,0.7,2,1.3,3,2c-0.1,0.2-0.3,0.5-0.4,0.7c-0.3,0-0.6,0-1,0l0,0
		c0,0.9,0.6,0.8,1.2,0.9c0.2,0,0.3,0.1,0.5,0.2c0-0.6-1-0.4-0.7-1.1c0.4-0.3,0.7-0.5,1.1-0.8c0.4,0,0.8,0.1,1.3,0.1
		C175.6,255.5,175.3,254.9,175.2,255z"/>
	<path d="M172,256.5c-0.1,0-0.1-0.1-0.2-0.1l0,0c-0.1-0.1-0.2-0.2-0.2-0.2h0c-0.1-0.1-0.2-0.2-0.2-0.2c0,0-0.1,0-0.1,0
		c0,0,0.1,0,0.1,0.1c0.1,0.1,0.2,0.2,0.2,0.2c0.1,0.1,0.2,0.2,0.2,0.2c0.2,0.1,0.3,0.2,0.5,0.3l0,0C172.1,256.6,172,256.6,172,256.5
		z"/>
	<path d="M169.9,251.4C169.9,251.4,169.9,251.4,169.9,251.4C169.9,251.4,169.9,251.4,169.9,251.4z"/>
	<path d="M169.9,251.3c0,0,0,0,0.1,0.1l0,0C170,251.4,169.9,251.3,169.9,251.3z"/>
	<path d="M170.3,251.8L170.3,251.8c-0.1-0.1-0.2-0.3-0.3-0.4l0,0C170.1,251.6,170.2,251.7,170.3,251.8z"/>
	<path d="M169.1,255c-0.1,0.1-0.2,0.2-0.2,0.2l0,0c-0.1,0.1-0.2,0.2-0.2,0.2c0,0-0.1,0.1-0.1,0.1c0,0,0,0,0,0c0,0,0.1-0.1,0.1-0.1
		l0,0c0.1-0.1,0.2-0.2,0.2-0.2C168.9,255.2,169,255.1,169.1,255L169.1,255L169.1,255z"/>
	<path d="M163.1,252.8L163.1,252.8L163.1,252.8C163,252.9,162.9,252.9,163.1,252.8z"/>
	<path d="M161.2,254.7L161.2,254.7C161.3,254.5,161.2,254.6,161.2,254.7z"/>
	<path d="M161.2,254.7C161.3,254.6,161.3,254.6,161.2,254.7L161.2,254.7z"/>
	<path d="M160.7,255.2c-0.1,0.1-0.2,0.2-0.2,0.2l0,0C160.5,255.4,160.6,255.3,160.7,255.2c0.2-0.2,0.3-0.3,0.5-0.5c0,0,0,0,0,0
		c0,0,0,0,0,0C161,254.9,160.8,255.1,160.7,255.2z"/>
	<path d="M229.3,193.3c-0.1-0.1-0.3-0.3-0.4-0.4C229,193,229.2,193.2,229.3,193.3L229.3,193.3L229.3,193.3c0.1,0.1,0.2,0.2,0.2,0.2
		l0,0C229.5,193.5,229.4,193.4,229.3,193.3z"/>
	<path d="M194.1,242.3c0.3-0.4,0.6-0.8,0.9-1.2C194.4,241.2,194.1,241.6,194.1,242.3z"/>
</g>
</svg>
