<svg id="Layer_1" data-name="Layer 1" xmlns="http://www.w3.org/2000/svg" viewBox="0 0 48 48"><title>Profile</title><path d="M24,10a8,8,0,1,0,8,8A8,8,0,0,0,24,10Zm0,13a5,5,0,1,1,5-5A5,5,0,0,1,24,23Z"/><path d="M24,2A22,22,0,1,0,46,24,22,22,0,0,0,24,2ZM14.56,40.47a11.93,11.93,0,0,1,2.95-7.06A8.75,8.75,0,0,1,24,31a8.76,8.76,0,0,1,6.48,2.39,12,12,0,0,1,3,7.07,18.85,18.85,0,0,1-18.88,0Zm21.63-1.91a14.09,14.09,0,0,0-3.56-7.26A11.64,11.64,0,0,0,24,28a11.64,11.64,0,0,0-8.62,3.3,14.09,14.09,0,0,0-3.56,7.26,19,19,0,1,1,24.38,0Z"/></svg>