<svg id="Layer_1" data-name="Layer 1" xmlns="http://www.w3.org/2000/svg" viewBox="0 0 48 48"><title>Shirt</title><path d="M44.75,14,31.24,3a2.05,2.05,0,0,0-1.29-.46,1.89,1.89,0,0,0-1,.27A9.51,9.51,0,0,1,24,4a9.43,9.43,0,0,1-5-1.15,1.9,1.9,0,0,0-1-.28A2,2,0,0,0,16.74,3L3.25,14a2,2,0,0,0-.53,2.45l4.21,8.42a2,2,0,0,0,3,.71L12,24l-.17,20a2,2,0,0,0,2,2H34a2,2,0,0,0,2-2V24l2.08,1.56a2,2,0,0,0,3-.71l4.21-8.42A2,2,0,0,0,44.75,14ZM14.91,34H33v3H14.89Zm-.08,9,0-3H33v3ZM38.92,22.44,37.8,21.6,33,18V31H14.94L15,24,15.05,18,10.2,21.6l-1.12.84L5.76,15.81l12.35-10A13.06,13.06,0,0,0,24,7a13,13,0,0,0,5.86-1.25L42.24,15.81Z"/></svg>