<?xml version="1.0" standalone="no"?>
<!DOCTYPE svg PUBLIC "-//W3C//DTD SVG 1.1//EN" "http://www.w3.org/Graphics/SVG/1.1/DTD/svg11.dtd" >
<svg xmlns="http://www.w3.org/2000/svg">
<metadata>Generated by IcoMoon</metadata>
<defs>
<font id="vivint-icons" horiz-adv-x="1024">
<font-face units-per-em="1024" ascent="768" descent="-256" />
<missing-glyph horiz-adv-x="1024" />
<glyph unicode="&#x20;" horiz-adv-x="512" d="" />
<glyph unicode="&#xe900;" glyph-name="ac-not-plugged" d="M349.867 187.733l53.333 53.333c0 4.267 0 10.667 0 14.933 0 93.867 74.667 166.4 170.667 166.4h12.8l64 64h-76.8c-119.467 0-217.6-85.333-232.533-200.533h-298.667v-64h298.667c2.133-10.667 4.267-21.333 8.533-34.133zM981.333 341.333v64h-181.333v55.467l142.933 142.933-44.8 44.8-160-160h-2.133v-2.133l-605.867-605.867 44.8-44.8 245.333 245.333c40.533-36.267 93.867-57.6 153.6-57.6h162.133v-64h64v147.2h181.333v64h-181.333v170.667h181.333zM573.867 87.467c-40.533 0-78.933 14.933-108.8 38.4l270.933 270.933v-309.333h-162.133z" />
<glyph unicode="&#xe901;" glyph-name="ac-plugged-in" d="M981.333 341.333v64h-181.333v149.333h-64v-66.133h-162.133c-119.467 0-217.6-85.333-232.533-200.533h-298.667v-64h298.667c17.067-113.067 113.067-200.533 232.533-200.533h162.133v-64h64v147.2h181.333v64h-181.333v170.667h181.333zM736 87.467h-162.133c-93.867 0-170.667 76.8-170.667 170.667s74.667 166.4 170.667 166.4h162.133v-337.067z" />
<glyph unicode="&#xe902;" glyph-name="add-encircled" d="M512 725.333c-260.267 0-469.333-209.067-469.333-469.333s209.067-469.333 469.333-469.333 469.333 209.067 469.333 469.333-209.067 469.333-469.333 469.333zM512-149.333c-224 0-405.333 181.333-405.333 405.333s181.333 405.333 405.333 405.333c224 0 405.333-181.333 405.333-405.333s-181.333-405.333-405.333-405.333zM544 426.667h-64v-140.8h-138.667v-64h138.667v-136.533h64v136.533h138.667v64h-138.667z" />
<glyph unicode="&#xe903;" glyph-name="android-back-arrow" d="M853.333 298.667h-518.4l238.933 238.933-61.867 59.733-341.333-341.333 341.333-341.333 59.733 59.733-236.8 238.933h518.4v85.333z" />
<glyph unicode="&#xe904;" glyph-name="android-share" d="M795.733 96c-46.933 0-87.467-19.2-117.333-51.2l-298.667 179.2c6.4 17.067 8.533 34.133 8.533 53.333 0 14.933-2.133 29.867-6.4 44.8l288 151.467c29.867-36.267 74.667-57.6 123.733-57.6 87.467 0 160 72.533 160 160s-72.533 160-160 160c-87.467 0-160-72.533-160-160 0-14.933 2.133-29.867 6.4-44.8l-288-151.467c-29.867 36.267-74.667 57.6-123.733 57.6-87.467 0-160-72.533-160-160s72.533-160 160-160c46.933 0 87.467 19.2 117.333 51.2l298.667-179.2c-6.4-17.067-8.533-34.133-8.533-53.333 0-87.467 72.533-160 160-160s160 72.533 160 160-72.533 160-160 160zM699.733 576c0 53.333 42.667 96 96 96s96-42.667 96-96-42.667-96-96-96c-25.6 0-46.933 10.667-64 25.6-14.933 14.933-25.6 34.133-29.867 57.6-2.133 4.267-2.133 8.533-2.133 12.8zM290.133 202.667c-17.067-12.8-38.4-21.333-59.733-21.333-53.333 0-96 42.667-96 96s42.667 96 96 96c25.6 0 46.933-10.667 64-25.6 14.933-14.933 25.6-34.133 29.867-57.6 0-4.267 2.133-8.533 2.133-12.8 0-6.4 0-12.8-2.133-19.2-6.4-21.333-17.067-40.533-34.133-55.467zM795.733-160c-53.333 0-96 42.667-96 96 0 6.4 0 12.8 2.133 19.2 4.267 21.333 17.067 40.533 34.133 55.467 17.067 12.8 38.4 21.333 59.733 21.333 53.333 0 96-42.667 96-96s-42.667-96-96-96z" />
<glyph unicode="&#xe905;" glyph-name="arm-leaving" d="M465.067 142.933l221.867 224-44.8 44.8-172.8-174.933-81.067 89.6-46.933-42.667 21.333-23.467zM149.333 130.133c0-78.933 42.667-149.333 108.8-192l258.133-164.267 251.733 164.267c66.133 42.667 106.667 121.6 106.667 198.4v546.133h-725.333v-552.533zM213.333 618.667h597.333v-482.133c0-55.467-27.733-115.2-74.667-145.067l-219.733-140.8-224 140.8c-46.933 29.867-78.933 83.2-78.933 138.667v488.533z" />
<glyph unicode="&#xe906;" glyph-name="arm-staying" d="M501.333 247.467c76.8 0 138.667 61.867 138.667 138.667s-61.867 138.667-138.667 138.667c-76.8 0-138.667-61.867-138.667-138.667s61.867-138.667 138.667-138.667zM450.133 439.467c12.8 12.8 32 21.333 53.333 21.333s38.4-8.533 53.333-21.333c12.8-12.8 21.333-32 21.333-53.333s-8.533-38.4-21.333-53.333c-12.8-12.8-32-21.333-53.333-21.333s-38.4 8.533-53.333 21.333c-12.8 12.8-21.333 32-21.333 53.333-2.133 21.333 6.4 38.4 21.333 53.333zM405.333 110.933c25.6 25.6 59.733 40.533 98.133 40.533s72.533-14.933 98.133-40.533c23.467-23.467 38.4-57.6 40.533-93.867l57.6 44.8c-21.333 87.467-102.4 153.6-196.267 153.6s-174.933-64-196.267-153.6l57.6-44.8c0 38.4 14.933 70.4 40.533 93.867zM149.333 130.133c0-78.933 42.667-149.333 108.8-192l258.133-164.267 251.733 164.267c66.133 42.667 106.667 121.6 106.667 198.4v546.133h-725.333v-552.533zM213.333 618.667h597.333v-482.133c0-25.6-6.4-51.2-17.067-74.667-2.133-2.133-2.133-6.4-4.267-8.533-12.8-25.6-32-46.933-55.467-61.867l-142.933-93.867-38.4-25.6-36.267-21.333-55.467 34.133-155.733 98.133-12.8 8.533c-12.8 8.533-23.467 17.067-34.133 27.733-14.933 17.067-27.733 36.267-34.133 57.6-6.4 17.067-10.667 34.133-10.667 53.333v488.533z" />
<glyph unicode="&#xe907;" glyph-name="arrow-down" d="M480 725.333v-768h-138.667l170.667-170.667 170.667 170.667h-138.667v768z" />
<glyph unicode="&#xe908;" glyph-name="arrow-left" d="M981.333 288h-768v138.667l-170.667-170.667 170.667-170.667v138.667h768z" />
<glyph unicode="&#xe909;" glyph-name="arrow-right" d="M42.667 224h768v-138.667l170.667 170.667-170.667 170.667v-138.667h-768z" />
<glyph unicode="&#xe90a;" glyph-name="arrow-up" d="M682.667 550.4l-170.667 170.667-170.667-170.667h138.667v-763.733h64v763.733z" />
<glyph unicode="&#xe90b;" glyph-name="auto-mode" d="M256 405.333c83.2 0 149.333-66.133 149.333-149.333s-66.133-149.333-149.333-149.333-149.333 66.133-149.333 149.333 66.133 149.333 149.333 149.333zM256 469.333c-117.333 0-213.333-96-213.333-213.333s96-213.333 213.333-213.333 213.333 96 213.333 213.333-96 213.333-213.333 213.333v0zM768 405.333c83.2 0 149.333-66.133 149.333-149.333s-66.133-149.333-149.333-149.333-149.333 66.133-149.333 149.333 66.133 149.333 149.333 149.333zM768 469.333c-117.333 0-213.333-96-213.333-213.333s96-213.333 213.333-213.333 213.333 96 213.333 213.333-96 213.333-213.333 213.333v0zM341.333 256c0-47.128-38.205-85.333-85.333-85.333s-85.333 38.205-85.333 85.333c0 47.128 38.205 85.333 85.333 85.333s85.333-38.205 85.333-85.333z" />
<glyph unicode="&#xe90c;" glyph-name="battery-0" d="M917.333 343.467h64v-192h-64v192zM874.667 23.467h-832v448h832v-448zM106.667 87.467h704v320h-704v-320z" />
<glyph unicode="&#xe90d;" glyph-name="battery-20" d="M917.333 343.467h64v-192h-64v192zM170.667 343.467h64v-192h-64v192zM874.667 23.467h-832v448h832v-448zM106.667 87.467h704v320h-704v-320z" />
<glyph unicode="&#xe90e;" glyph-name="battery-40" d="M917.333 343.467h64v-192h-64v192zM170.667 343.467h64v-192h-64v192zM298.667 343.467h64v-192h-64v192zM874.667 23.467h-832v448h832v-448zM106.667 87.467h704v320h-704v-320z" />
<glyph unicode="&#xe90f;" glyph-name="battery-60" d="M917.333 343.467h64v-192h-64v192zM170.667 343.467h64v-192h-64v192zM298.667 343.467h64v-192h-64v192zM426.667 343.467h64v-192h-64v192zM874.667 23.467h-832v448h832v-448zM106.667 87.467h704v320h-704v-320z" />
<glyph unicode="&#xe910;" glyph-name="battery-80" d="M917.333 343.467h64v-192h-64v192zM170.667 343.467h64v-192h-64v192zM298.667 343.467h64v-192h-64v192zM426.667 343.467h64v-192h-64v192zM554.667 343.467h64v-192h-64v192zM874.667 23.467h-832v448h832v-448zM106.667 87.467h704v320h-704v-320z" />
<glyph unicode="&#xe911;" glyph-name="battery-100" d="M917.333 341.333h64v-192h-64v192zM170.667 341.333h64v-192h-64v192zM298.667 341.333h64v-192h-64v192zM426.667 341.333h64v-192h-64v192zM554.667 341.333h64v-192h-64v192zM682.667 341.333h64v-192h-64v192zM874.667 21.333h-832v448h832v-448zM106.667 85.333h704v320h-704v-320z" />
<glyph unicode="&#xe912;" glyph-name="battery-bad" d="M917.333 343.467h64v-192h-64v192zM320 23.467h-277.333v448h277.333v-64h-213.333v-320h213.333zM874.667 23.467h-298.667v64h234.667v320h-234.667v64h298.667zM450.133 123.733c23.467 0 44.8-19.2 44.8-44.8 0-23.467-19.2-42.667-44.8-42.667-23.467 0-42.667 19.2-42.667 42.667 0 25.6 19.2 44.8 42.667 44.8zM475.733 166.4h-49.067l-17.067 296.533h83.2l-17.067-296.533z" />
<glyph unicode="&#xe913;" glyph-name="battery-charging" d="M917.333 343.467h64v-192h-64v192zM608 407.467h202.667v-320h-317.867l-53.333-64h435.2v448h-213.333zM106.667 87.467v320h224l32 64h-320v-448h262.4l25.6 64zM317.867-55.467l302.933 362.667h-151.467l181.333 217.6h-211.2l-151.467-290.133h151.467z" />
<glyph unicode="&#xe914;" glyph-name="bell" d="M970.667-74.667h-917.333v115.2c0 53.333 34.133 102.4 85.333 123.733 70.4 27.733 106.667 117.333 106.667 192v61.867c0 151.467 117.333 275.2 264.533 275.2v0h4.267c147.2-2.133 264.533-125.867 264.533-275.2v-61.867c0-46.933 10.667-157.867 98.133-192 55.467-21.333 93.867-70.4 93.867-125.867v-113.067zM117.333-10.667h789.333v49.067c0 27.733-21.333 55.467-51.2 66.133-87.467 32-140.8 125.867-140.8 251.733v61.867c0 117.333-91.733 211.2-202.667 211.2s-202.667-96-202.667-211.2v-61.867c0-91.733-46.933-211.2-147.2-251.733-25.6-10.667-44.8-36.267-44.8-64v-51.2zM396.8-117.333h213.333v-64h-213.333v64z" />
<glyph unicode="&#xe915;" glyph-name="billing" d="M917.333 533.333v-554.667h-810.667v554.667zM981.333 597.333h-938.667v-682.667h938.667v682.667zM497.067 70.4v36.267c-59.733 8.533-89.6 51.2-93.867 87.467l44.8 12.8c2.133-25.6 17.067-51.2 49.067-57.6v85.333l-8.533 2.133c-44.8 10.667-74.667 38.4-74.667 81.067 0 44.8 36.267 78.933 83.2 85.333v36.267h38.4v-36.267c53.333-8.533 74.667-44.8 81.067-72.533l-44.8-14.933c-2.133 14.933-12.8 36.267-36.267 42.667v-81.067h4.267c51.2-10.667 78.933-42.667 78.933-83.2 0-38.4-29.867-78.933-83.2-85.333v-36.267h-38.4zM497.067 285.867v76.8c-23.467-4.267-34.133-21.333-34.133-40.533 0-17.067 10.667-29.867 34.133-36.267zM537.6 228.267v-76.8c23.467 4.267 36.267 19.2 36.267 38.4-2.133 17.067-12.8 32-36.267 38.4z" />
<glyph unicode="&#xe916;" glyph-name="calendar" d="M746.667 599.467v61.867h-64v-61.867h-341.333v61.867h-64v-61.867h-149.333v-746.667h768v746.667h-149.333zM277.333 535.467v-64h64v64h341.333v-64h64v64h85.333v-108.8h-640v108.8h85.333zM192-83.2v445.867h640v-445.867h-640zM405.333 300.8h85.333v-64h-85.333v64zM533.333 300.8h85.333v-64h-85.333v64zM661.333 300.8h85.333v-64h-85.333v64zM277.333 172.8h85.333v-64h-85.333v64zM405.333 172.8h85.333v-64h-85.333v64zM533.333 172.8h85.333v-64h-85.333v64zM661.333 172.8h85.333v-64h-85.333v64zM277.333 44.8h85.333v-64h-85.333v64zM405.333 44.8h85.333v-64h-85.333v64zM533.333 44.8h85.333v-64h-85.333v64z" />
<glyph unicode="&#xe917;" glyph-name="camera-offline" d="M85.333-142.933l-42.667 49.067 853.333 776.533 42.667-49.067zM149.333 450.133h396.8l70.4 64h-531.2v-484.267l64 59.733zM768 264.533v125.867l-64-57.6v-266.667h-294.4l-70.4-64h428.8v262.4zM768 264.533l170.667-155.733v296.533l-170.667-140.8zM768 264.533v0 0z" />
<glyph unicode="&#xe918;" glyph-name="cameras" d="M746.667 448v-384h-640v384h640zM810.667 512h-768v-512h768v512zM981.333 125.867l-170.667 138.667 170.667 140.8z" />
<glyph unicode="&#xe919;" glyph-name="car" d="M836.267 313.6c-6.4 0-14.933 0-21.333-2.133-87.467 102.4-213.333 162.133-349.867 162.133-142.933 0-279.467-68.267-364.8-181.333-53.333-29.867-89.6-87.467-89.6-155.733v-46.933h64v46.933c0 64 49.067 113.067 113.067 113.067s115.2-51.2 115.2-113.067v-46.933h422.4v46.933c0 64 49.067 113.067 113.067 113.067s115.2-51.2 115.2-113.067v-46.933h64v46.933c-2.133 98.133-83.2 177.067-181.333 177.067zM659.2 155.733h-294.4c-8.533 83.2-74.667 149.333-157.867 157.867 70.4 61.867 164.267 98.133 260.267 98.133 106.667 0 209.067-42.667 281.6-119.467-49.067-27.733-83.2-78.933-89.6-136.533zM241.067 123.733c0-29.455-23.878-53.333-53.333-53.333s-53.333 23.878-53.333 53.333c0 29.455 23.878 53.333 53.333 53.333s53.333-23.878 53.333-53.333zM891.733 123.733c0-29.455-23.878-53.333-53.333-53.333s-53.333 23.878-53.333 53.333c0 29.455 23.878 53.333 53.333 53.333s53.333-23.878 53.333-53.333zM379.733 324.267h234.667v-64h-234.667v64z" />
<glyph unicode="&#xe91a;" glyph-name="carbon-monoxide-alarm" d="M488.533-194.133c-42.667 42.667-66.133 100.267-66.133 162.133 0 59.733 21.333 115.2 64 157.867 2.133 2.133 4.267 4.267 6.4 6.4 2.133 4.267 6.4 6.4 8.533 10.667 23.467 29.867 38.4 66.133 38.4 104.533s-12.8 74.667-36.267 104.533c-2.133 2.133-4.267 6.4-8.533 8.533-2.133 2.133-6.4 6.4-8.533 8.533l-2.133 2.133c-40.533 42.667-61.867 98.133-61.867 155.733 0 59.733 23.467 117.333 66.133 160l2.133 4.267c4.267 4.267 6.4 8.533 10.667 10.667l49.067-40.533c-4.267-6.4-8.533-10.667-12.8-14.933l-4.267-2.133c-29.867-29.867-46.933-70.4-46.933-115.2 0-40.533 14.933-81.067 42.667-110.933 4.267-4.267 6.4-6.4 10.667-10.667s6.4-8.533 10.667-12.8c32-40.533 51.2-91.733 51.2-145.067s-19.2-104.533-51.2-145.067c-4.267-4.267-8.533-8.533-12.8-12.8-2.133-2.133-6.4-6.4-8.533-8.533-27.733-29.867-44.8-70.4-44.8-113.067 0-44.8 17.067-85.333 49.067-117.333l-44.8-46.933zM275.2-194.133c-42.667 42.667-66.133 100.267-66.133 162.133 0 59.733 21.333 115.2 64 157.867 2.133 2.133 4.267 4.267 6.4 6.4 2.133 4.267 6.4 6.4 8.533 10.667 23.467 29.867 38.4 66.133 38.4 104.533s-12.8 74.667-36.267 104.533c-2.133 2.133-4.267 6.4-8.533 8.533-2.133 2.133-6.4 6.4-8.533 8.533l-2.133 2.133c-40.533 42.667-61.867 98.133-61.867 155.733 0 59.733 23.467 117.333 66.133 160l2.133 4.267c4.267 4.267 6.4 8.533 10.667 10.667l49.067-40.533c-4.267-6.4-8.533-10.667-12.8-14.933l-4.267-2.133c-29.867-29.867-46.933-70.4-46.933-115.2 0-40.533 14.933-81.067 42.667-110.933 4.267-4.267 6.4-6.4 10.667-10.667s6.4-8.533 10.667-12.8c32-40.533 51.2-91.733 51.2-145.067s-19.2-104.533-51.2-145.067c-4.267-4.267-8.533-8.533-12.8-12.8-2.133-2.133-6.4-6.4-8.533-8.533-27.733-29.867-44.8-70.4-44.8-113.067 0-44.8 17.067-85.333 49.067-117.333l-44.8-46.933zM701.867-194.133c-42.667 42.667-66.133 100.267-66.133 162.133 0 59.733 21.333 115.2 64 157.867 2.133 2.133 4.267 4.267 6.4 6.4 2.133 4.267 6.4 6.4 8.533 10.667 23.467 29.867 38.4 66.133 38.4 104.533s-12.8 74.667-36.267 104.533c-2.133 2.133-4.267 6.4-8.533 8.533-2.133 2.133-6.4 6.4-8.533 8.533l-2.133 2.133c-40.533 42.667-61.867 98.133-61.867 155.733 0 59.733 23.467 117.333 66.133 160l2.133 4.267c4.267 4.267 6.4 8.533 10.667 10.667l49.067-40.533c-4.267-6.4-8.533-10.667-12.8-14.933l-4.267-2.133c-29.867-29.867-46.933-70.4-46.933-115.2 0-40.533 14.933-81.067 42.667-110.933 4.267-4.267 6.4-6.4 10.667-10.667s6.4-8.533 10.667-12.8c32-40.533 51.2-91.733 51.2-145.067s-19.2-104.533-51.2-145.067c-4.267-4.267-8.533-8.533-12.8-12.8-2.133-2.133-6.4-6.4-8.533-8.533-27.733-29.867-44.8-70.4-44.8-113.067 0-44.8 17.067-85.333 49.067-117.333l-44.8-46.933z" />
<glyph unicode="&#xe91b;" glyph-name="caret-down" d="M512 29.867l-386.133 384 46.933 46.933 339.2-341.333 339.2 341.333 46.933-46.933z" />
<glyph unicode="&#xe91c;" glyph-name="caret-left" d="M669.867-130.133l-384 386.133 384 386.133 46.933-46.933-341.333-339.2 341.333-339.2z" />
<glyph unicode="&#xe91d;" glyph-name="caret-right" d="M354.133-130.133l-46.933 46.933 341.333 339.2-341.333 339.2 46.933 46.933 384-386.133z" />
<glyph unicode="&#xe91e;" glyph-name="caret-up" d="M851.2 51.2l-339.2 341.333-339.2-341.333-46.933 46.933 386.133 384 386.133-384z" />
<glyph unicode="&#xe91f;" glyph-name="chat-alt" d="M149.333 42.667v298.667h425.749v-298.667h-425.749zM85.333-21.333h86.165v-115.328l103.061 115.328h365.44v426.667h-554.667v-426.667zM384 576v-106.667h64v42.667h426.667v-298.667h-170.667v-64h45.739l103.595-117.333v117.333h85.333v426.667z" />
<glyph unicode="&#xe920;" glyph-name="chat" d="M85.333 57.6h128v-170.667l151.467 170.667h573.867v554.667h-853.333v-554.667zM149.333 548.267h725.333v-426.667h-725.333v426.667z" />
<glyph unicode="&#xe921;" glyph-name="check-box" d="M938.667-170.667h-853.333v853.333h853.333v-853.333zM149.333-106.667h725.333v725.333h-725.333v-725.333zM465.067 121.6l-117.333 117.333 44.8 44.8 72.533-70.4 153.6 153.6 44.8-44.8z" />
<glyph unicode="&#xe922;" glyph-name="checkmark" d="M352-66.133l-279.467 279.467 44.8 44.8 234.667-234.667 554.667 554.667 44.8-44.8z" />
<glyph unicode="&#xe923;" glyph-name="clock" d="M512 618.667c200.533 0 362.667-162.133 362.667-362.667s-162.133-362.667-362.667-362.667-362.667 162.133-362.667 362.667 162.133 362.667 362.667 362.667zM512 682.667c-234.667 0-426.667-192-426.667-426.667s192-426.667 426.667-426.667 426.667 192 426.667 426.667-192 426.667-426.667 426.667zM480 215.467h245.333v61.867h-181.333v234.667h-64z" />
<glyph unicode="&#xe924;" glyph-name="close" d="M866.133 563.2l-46.933 46.933-307.2-309.333-307.2 309.333-46.933-46.933 309.333-307.2-309.333-307.2 46.933-46.933 307.2 309.333 307.2-309.333 46.933 46.933-309.333 307.2z" />
<glyph unicode="&#xe925;" glyph-name="cloudy-strong-winds" d="M729.6 64h-189.867v64h189.867c53.333 0 96 40.533 96 91.733 0 40.533-29.867 76.8-72.533 87.467l-23.467 6.4v25.6c0 66.133-55.467 117.333-123.733 117.333s-121.6-51.2-123.733-115.2l-2.133-29.867h-46.933c-40.533 0-87.467-23.467-89.6-53.333l-64 2.133c2.133 68.267 72.533 110.933 140.8 115.2 17.067 83.2 93.867 147.2 185.6 147.2 96 0 174.933-68.267 187.733-157.867 57.6-23.467 98.133-78.933 98.133-142.933-2.133-89.6-72.533-157.867-162.133-157.867zM576 149.333h-401.067c-17.067 0-32 14.933-32 32s14.933 32 32 32h401.067c12.8 0 23.467 10.667 23.467 23.467s-10.667 23.467-23.467 23.467c-6.4 0-12.8-2.133-17.067-8.533-10.667-12.8-32-14.933-44.8-4.267s-14.933 32-4.267 44.8c17.067 21.333 40.533 32 68.267 32 49.067 0 87.467-38.4 87.467-87.467s-42.667-87.467-89.6-87.467zM396.8-68.267c-25.6 0-51.2 10.667-68.267 32-10.667 12.8-8.533 34.133 4.267 44.8s34.133 8.533 44.8-4.267c4.267-6.4 10.667-8.533 17.067-8.533 12.8 0 23.467 10.667 23.467 23.467s-8.533 23.467-21.333 23.467h-230.4c-17.067 0-32 14.933-32 32s12.8 32 32 32h230.4c49.067 0 87.467-38.4 87.467-87.467s-40.533-87.467-87.467-87.467z" />
<glyph unicode="&#xe926;" glyph-name="cloudy-wind" d="M761.6 83.2h-189.867v64h189.867c53.333 0 96 40.533 96 91.733 0 40.533-29.867 76.8-72.533 87.467l-23.467 6.4v25.6c0 66.133-55.467 117.333-123.733 117.333s-121.6-51.2-123.733-115.2l-2.133-29.867h-46.933c-40.533 0-89.6-23.467-89.6-51.2h-64c0 68.267 70.4 110.933 140.8 115.2 17.067 83.2 93.867 147.2 185.6 147.2 96 0 174.933-68.267 187.733-157.867 57.6-23.467 98.133-78.933 98.133-142.933-2.133-87.467-74.667-157.867-162.133-157.867zM571.733 194.133h-356.267c-17.067 0-32 14.933-32 32s14.933 32 32 32h356.267c17.067 0 32-14.933 32-32s-14.933-32-32-32zM471.467 83.2h-324.267c-17.067 0-32 14.933-32 32s14.933 32 32 32h324.267c17.067 0 32-14.933 32-32s-14.933-32-32-32zM593.067-21.333h-377.6c-17.067 0-32 14.933-32 32s14.933 32 32 32h377.6c17.067 0 32-14.933 32-32s-14.933-32-32-32z" />
<glyph unicode="&#xe927;" glyph-name="cloudy" d="M582.4 0h-296.533c-87.467 0-157.867 68.267-157.867 153.6 0 81.067 64 147.2 147.2 153.6 17.067 83.2 91.733 145.067 183.467 145.067 93.867 0 172.8-68.267 185.6-155.733 57.6-23.467 96-78.933 96-140.8 0-87.467-70.4-155.733-157.867-155.733zM285.867 243.2c-51.2 0-93.867-40.533-93.867-89.6s42.667-89.6 93.867-89.6h296.533c51.2 0 93.867 40.533 93.867 89.6 0 40.533-29.867 76.8-70.4 87.467l-23.467 6.4v25.6c0 64-55.467 117.333-123.733 117.333-66.133 0-121.6-49.067-123.733-113.067l-2.133-29.867h-46.933v-4.267zM772.267 136.533v64c17.067 0 59.733 29.867 59.733 66.133 0 34.133-23.467 64-59.733 72.533l-23.467 6.4v25.6c0 55.467-46.933 98.133-104.533 98.133-32 0-57.6-12.8-61.867-21.333l-55.467 29.867c21.333 38.4 74.667 55.467 117.333 55.467 85.333 0 155.733-59.733 166.4-138.667 51.2-21.333 85.333-72.533 85.333-128 0-68.267-68.267-130.133-123.733-130.133z" />
<glyph unicode="&#xe928;" glyph-name="contrast" d="M512 725.333c-260.267 0-469.333-209.067-469.333-469.333s209.067-469.333 469.333-469.333c260.267 0 469.333 209.067 469.333 469.333s-211.2 469.333-469.333 469.333zM512-149.333c-2.133 0-2.133 0-4.267 0v810.667c2.133 0 2.133 0 4.267 0 224 0 405.333-181.333 405.333-405.333s-181.333-405.333-405.333-405.333z" />
<glyph unicode="&#xe929;" glyph-name="control-off" d="M362.667 253.867c0-35.346-28.654-64-64-64s-64 28.654-64 64c0 35.346 28.654 64 64 64s64-28.654 64-64zM729.6 448c104.533-6.4 187.733-91.733 187.733-194.133 0-104.533-83.2-189.867-185.6-189.867h-437.333c-104.533 2.133-187.733 87.467-187.733 189.867s83.2 187.733 187.733 194.133h435.2zM731.733 512h-439.467c-136.533-6.4-249.6-119.467-249.6-258.133s113.067-251.733 249.6-253.867h437.333c138.667 2.133 251.733 117.333 251.733 253.867s-113.067 251.733-249.6 258.133v0z" />
<glyph unicode="&#xe92a;" glyph-name="control-on" d="M729.6 448c104.533-6.4 187.733-91.733 187.733-194.133 0-104.533-83.2-189.867-185.6-189.867h-437.333c-104.533 2.133-187.733 87.467-187.733 189.867s83.2 187.733 187.733 194.133h435.2zM731.733 512h-439.467c-136.533-6.4-249.6-119.467-249.6-258.133s113.067-251.733 249.6-253.867h437.333c138.667 2.133 251.733 117.333 251.733 253.867s-113.067 251.733-249.6 258.133v0zM768 256c0-35.346-28.654-64-64-64s-64 28.654-64 64c0 35.346 28.654 64 64 64s64-28.654 64-64z" />
<glyph unicode="&#xe92b;" glyph-name="cool-mode" d="M923.733 211.2l-162.133-61.867-185.6 106.667 185.6 106.667 162.133-61.867 23.467 59.733-151.467 59.733 23.467 160-61.867 10.667-27.733-172.8-185.6-106.667v215.467l134.4 108.8-38.4 49.067-128-102.4-128 102.4-38.4-49.067 134.4-108.8v-215.467l-185.6 106.667-27.733 172.8-61.867-10.667 23.467-160-151.467-59.733 23.467-59.733 162.133 61.867 185.6-106.667-185.6-106.667-162.133 61.867-23.467-59.733 151.467-59.733-23.467-160 61.867-10.667 27.733 172.8 185.6 106.667v-215.467l-134.4-108.8 38.4-49.067 128 102.4 128-102.4 38.4 49.067-134.4 108.8v215.467l185.6-106.667 27.733-172.8 61.867 10.667-23.467 160 151.467 59.733z" />
<glyph unicode="&#xe92c;" glyph-name="couple" d="M326.4 236.8c83.2 0 151.467 68.267 151.467 151.467s-68.267 151.467-151.467 151.467c-83.2 0-151.467-68.267-151.467-151.467-2.133-83.2 66.133-151.467 151.467-151.467zM264.533 452.267c17.067 14.933 38.4 25.6 61.867 25.6s46.933-10.667 61.867-25.6c14.933-17.067 25.6-38.4 25.6-61.867s-10.667-46.933-25.6-61.867c-17.067-14.933-38.4-25.6-61.867-25.6s-46.933 10.667-61.867 25.6c-14.933 17.067-25.6 38.4-25.6 61.867-2.133 23.467 8.533 44.8 25.6 61.867zM710.4 236.8c83.2 0 151.467 68.267 151.467 151.467s-68.267 151.467-151.467 151.467c-83.2 0-151.467-68.267-151.467-151.467-2.133-83.2 66.133-151.467 151.467-151.467zM648.533 452.267c17.067 14.933 38.4 25.6 61.867 25.6s46.933-10.667 61.867-25.6c14.933-17.067 25.6-38.4 25.6-61.867s-10.667-46.933-25.6-61.867c-17.067-14.933-38.4-25.6-61.867-25.6s-46.933 10.667-61.867 25.6c-14.933 17.067-25.6 38.4-25.6 61.867-2.133 23.467 8.533 44.8 25.6 61.867zM710.4 228.267c-81.067 0-153.6-44.8-192-108.8-38.4 66.133-110.933 108.8-192 108.8v0c-123.733 0-224-100.267-224-224h64c0 44.8 17.067 83.2 46.933 113.067s68.267 46.933 113.067 46.933v0c44.8 0 83.2-17.067 113.067-46.933s46.933-68.267 46.933-113.067h64c0 44.8 17.067 83.2 46.933 113.067s68.267 46.933 113.067 46.933v0c44.8 0 83.2-17.067 113.067-46.933s46.933-68.267 46.933-113.067h64c0 123.733-100.267 224-224 224z" />
<glyph unicode="&#xe92d;" glyph-name="cross" d="M640 384v277.333h-277.333v-277.333h-256v-277.333h256v-256h277.333v256h277.333v277.333h-277.333zM853.333 170.667h-277.333v-256h-149.333v256h-256v149.333h256v277.333h149.333v-277.333h277.333v-149.333z" />
<glyph unicode="&#xe92e;" glyph-name="custom-actions" d="M853.333 87.467c-14.933 55.467-64 93.867-123.733 93.867s-108.8-40.533-123.733-93.867h-563.2v-64h563.2c12.8-55.467 64-98.133 123.733-98.133s110.933 40.533 123.733 98.133h128v64h-128zM731.733-10.667c-25.6 0-44.8 12.8-55.467 34.133-4.267 8.533-8.533 19.2-8.533 29.867 0 12.8 4.267 23.467 10.667 34.133 10.667 19.2 32 29.867 55.467 29.867s42.667-12.8 53.333-29.867c6.4-10.667 8.533-21.333 8.533-34.133 0-10.667-2.133-21.333-8.533-29.867-10.667-21.333-32-34.133-55.467-34.133zM437.333 492.8c-14.933 55.467-64 93.867-123.733 93.867s-108.8-40.533-123.733-93.867h-147.2v-64h147.2c12.8-55.467 64-98.133 123.733-98.133s110.933 40.533 123.733 98.133h544v64h-544zM315.733 394.667c-25.6 0-44.8 12.8-55.467 34.133-4.267 8.533-8.533 19.2-8.533 29.867 0 12.8 4.267 23.467 10.667 34.133 10.667 19.2 32 29.867 55.467 29.867s42.667-12.8 53.333-29.867c6.4-10.667 8.533-21.333 8.533-34.133 0-10.667-2.133-21.333-8.533-29.867-10.667-21.333-32-34.133-55.467-34.133z" />
<glyph unicode="&#xe92f;" glyph-name="desktop" d="M366.933-125.867l145.067 170.667 147.2-170.667zM917.333 578.133v-469.333h-810.667v469.333h810.667zM981.333 642.133h-938.667v-597.333h938.667v597.333z" />
<glyph unicode="&#xe930;" glyph-name="disarmed" d="M407.467 136.533l104.533 104.533 104.533-104.533 44.8 46.933-104.533 104.533 104.533 102.4-44.8 46.933-104.533-104.533-104.533 104.533-44.8-46.933 104.533-102.4-104.533-104.533zM149.333 682.667v-552.533c0-78.933 42.667-149.333 108.8-192l258.133-164.267 251.733 164.267c66.133 42.667 106.667 121.6 106.667 198.4v546.133h-725.333zM810.667 136.533c0-55.467-27.733-115.2-74.667-145.067l-219.733-140.8-224 140.8c-46.933 29.867-78.933 83.2-78.933 138.667v488.533h597.333v-482.133z" />
<glyph unicode="&#xe931;" glyph-name="doorbells" d="M618.667 725.333h-213.333c-36.267 0-64-27.733-64-64v-810.667c0-36.267 27.733-64 64-64h213.333c36.267 0 64 27.733 64 64v810.667c0 36.267-27.733 64-64 64zM618.667 661.333v-533.333h-213.333v533.333h213.333zM405.333-149.333v213.333h213.333v-213.333h-213.333zM554.667-42.667c0-23.564-19.103-42.667-42.667-42.667s-42.667 19.103-42.667 42.667c0 23.564 19.103 42.667 42.667 42.667s42.667-19.103 42.667-42.667zM285.867 339.2l-42.667 46.933c-38.4-34.133-61.867-85.333-61.867-140.8s23.467-106.667 61.867-140.8l42.667 46.933c-25.6 23.467-40.533 55.467-40.533 93.867s14.933 70.4 40.533 93.867zM117.333 245.333c0 72.533 32 136.533 81.067 181.333l-42.667 46.933c-32-27.733-55.467-61.867-74.667-102.4-17.067-38.4-27.733-81.067-27.733-128 0-89.6 38.4-172.8 102.4-228.267l42.667 46.933c-25.6 23.467-44.8 49.067-59.733 81.067-12.8 32-21.333 66.133-21.333 102.4zM780.8 386.133l-42.667-46.933c25.6-23.467 40.533-55.467 40.533-93.867 0-36.267-14.933-70.4-40.533-93.867l42.667-46.933c38.4 34.133 61.867 85.333 61.867 140.8s-23.467 106.667-61.867 140.8zM738.133 339.2v0 0zM868.267 473.6l-42.667-46.933c0 0 0 0 0 0v0c12.8-10.667 23.467-23.467 34.133-36.267s19.2-27.733 25.6-42.667 21.333-64 21.333-100.267c0-72.533-32-136.533-81.067-181.333l42.667-46.933c38.4 36.267 68.267 81.067 85.333 130.133 10.667 29.867 14.933 64 14.933 98.133 2.133 89.6-36.267 170.667-100.267 226.133z" />
<glyph unicode="&#xe932;" glyph-name="down" d="M866.133 576l-354.133-582.4-356.267 582.4h710.4zM981.333 640h-938.667l469.333-768 469.333 768z" />
<glyph unicode="&#xe933;" glyph-name="drizzle" d="M384 160c0 8.533 4.267 19.2 10.667 29.867 6.4 12.8 14.933 21.333 21.333 29.867l10.667 12.8c2.133-2.133 6.4-6.4 10.667-12.8s10.667-14.933 19.2-27.733c8.533-12.8 10.667-23.467 10.667-32 0-12.8-4.267-21.333-12.8-29.867s-17.067-12.8-29.867-12.8-21.333 4.267-29.867 12.8c-6.4 8.533-10.667 17.067-10.667 29.867zM473.6 40.533c0 8.533 2.133 19.2 6.4 29.867s10.667 21.333 17.067 29.867 12.8 17.067 21.333 25.6c6.4 8.533 12.8 14.933 17.067 19.2l6.4 6.4c2.133-2.133 4.267-4.267 8.533-6.4s8.533-8.533 17.067-17.067 14.933-17.067 21.333-25.6c6.4-8.533 10.667-19.2 17.067-29.867 4.267-10.667 8.533-21.333 8.533-29.867 0-19.2-6.4-36.267-21.333-49.067s-29.867-21.333-49.067-21.333-36.267 6.4-49.067 19.2c-14.933 14.933-21.333 29.867-21.333 49.067zM516.267 238.933c0 6.4 2.133 12.8 6.4 21.333s10.667 14.933 14.933 19.2l6.4 8.533c19.2-19.2 27.733-34.133 27.733-46.933 0-8.533-2.133-14.933-8.533-19.2-6.4-6.4-12.8-8.533-19.2-8.533-8.533 0-14.933 2.133-21.333 8.533-2.133 2.133-6.4 8.533-6.4 17.067zM661.333 74.667v64c53.333 0 96 40.533 96 91.733 0 40.533-29.867 76.8-72.533 87.467l-23.467 4.267v25.6c0 66.133-55.467 117.333-123.733 117.333s-121.6-51.2-123.733-115.2l-4.267-29.867h-46.933c-53.333 0-96-40.533-96-91.733s42.667-91.733 96-91.733v-64c-87.467 0-160 70.4-160 155.733 0 81.067 66.133 149.333 147.2 153.6 17.067 83.2 93.867 147.2 185.6 147.2 96 0 174.933-68.267 187.733-157.867 57.6-23.467 98.133-78.933 98.133-142.933 0-85.333-72.533-153.6-160-153.6z" />
<glyph unicode="&#xe934;" glyph-name="dvr" d="M917.333 535.467v-554.667h-810.667v554.667h810.667zM981.333 599.467h-938.667v-682.667h938.667v682.667zM448 362.667l170.667-108.8-170.667-104.533z" />
<glyph unicode="&#xe935;" glyph-name="emergency" d="M480 64h64v106.667h106.667v64h-106.667v106.667h-64v-106.667h-106.667v-64h106.667zM661.333 490.667v106.667h-298.667v-106.667h-277.333v-576h853.333v576h-277.333zM426.667 533.333h170.667v-42.667h-170.667v42.667zM874.667-21.333h-725.333v448h725.333v-448z" />
<glyph unicode="&#xe936;" glyph-name="error" d="M512 66.133c19.2 0 32-14.933 32-34.133 0-17.067-14.933-32-32-32s-32 14.933-32 32c0 19.2 12.8 34.133 32 34.133zM531.2 98.133h-38.4l-12.8 224h64l-12.8-224zM512 514.133l332.8-576h-665.6l332.8 576zM512 642.133l-443.733-768h887.467l-443.733 768z" />
<glyph unicode="&#xe937;" glyph-name="facebook" d="M853.614 640h-683.227c-23.415 0-42.386-18.972-42.386-42.386v-683.227c0-23.409 18.972-42.386 42.386-42.386h367.825v297.409h-100.084v115.908h100.084v85.478c0 99.198 60.587 153.212 149.077 153.212 42.386 0 78.819-3.157 89.434-4.567v-103.667l-61.372-0.029c-48.127 0-57.444-22.868-57.444-56.426v-74.002h114.777l-14.946-115.908h-99.831v-297.409h195.708c23.409 0 42.386 18.977 42.386 42.386v683.227c0 23.415-18.977 42.386-42.386 42.386z" />
<glyph unicode="&#xe938;" glyph-name="fan" d="M977.067 275.2c-14.933 61.867-51.2 87.467-78.933 100.267-83.2 34.133-187.733-25.6-200.533-32-14.933-8.533-42.667-14.933-70.4-17.067-10.667 17.067-23.467 32-40.533 42.667 8.533 40.533 14.933 87.467 8.533 134.4-8.533 76.8-70.4 151.467-149.333 179.2-68.267 25.6-134.4 12.8-183.467-34.133-46.933-44.8-51.2-87.467-46.933-117.333 10.667-89.6 115.2-151.467 128-157.867 14.933-8.533 32-27.733 49.067-51.2-10.667-17.067-17.067-38.4-17.067-59.733-38.4-12.8-81.067-32-119.467-57.6-61.867-44.8-96-136.533-81.067-219.733 12.8-70.4 57.6-121.6 121.6-140.8 17.067-4.267 34.133-6.4 49.067-6.4 34.133 0 59.733 12.8 76.8 25.6 72.533 55.467 72.533 174.933 72.533 189.867 0 17.067 8.533 42.667 19.2 68.267 21.333 0 40.533 6.4 59.733 14.933 29.867-27.733 68.267-55.467 110.933-74.667 23.467-10.667 51.2-14.933 78.933-14.933 53.333 0 108.8 19.2 151.467 55.467 55.467 42.667 76.8 106.667 61.867 172.8zM512 183.467c-12.8 0-23.467 2.133-32 8.533-10.667 6.4-21.333 14.933-27.733 25.6-4.267 8.533-8.533 17.067-10.667 27.733 0 4.267-2.133 6.4-2.133 10.667 0 8.533 2.133 17.067 4.267 25.6 6.4 14.933 17.067 27.733 29.867 36.267 10.667 6.4 23.467 10.667 36.267 10.667 0 0 2.133 0 2.133 0 8.533 0 19.2-2.133 27.733-4.267 10.667-4.267 21.333-12.8 29.867-21.333 8.533-10.667 14.933-25.6 14.933-40.533 0-2.133 0-2.133 0-4.267 0-10.667-2.133-23.467-8.533-32-4.267-8.533-10.667-17.067-19.2-23.467-8.533-8.533-21.333-12.8-32-14.933-4.267-4.267-8.533-4.267-12.8-4.267zM375.467 430.933c-29.867 17.067-89.6 61.867-96 108.8-2.133 21.333 6.4 42.667 27.733 64 23.467 21.333 49.067 29.867 70.4 29.867 17.067 0 34.133-4.267 44.8-8.533 57.6-21.333 102.4-74.667 108.8-125.867 4.267-36.267 0-72.533-6.4-104.533-4.267 0-10.667 0-14.933 0-27.733 0-51.2-8.533-72.533-21.333-17.067 21.333-38.4 44.8-61.867 57.6zM430.933 51.2c0-34.133-8.533-108.8-46.933-138.667-17.067-12.8-40.533-14.933-68.267-6.4-55.467 17.067-70.4 64-76.8 89.6-10.667 59.733 12.8 125.867 55.467 157.867 27.733 21.333 61.867 36.267 91.733 46.933 12.8-27.733 36.267-51.2 64-66.133-10.667-27.733-19.2-57.6-19.2-83.2zM874.667 149.333c-46.933-38.4-115.2-51.2-164.267-29.867-32 14.933-61.867 36.267-87.467 57.6 14.933 21.333 25.6 49.067 25.6 78.933 0 2.133 0 4.267 0 8.533 29.867 4.267 61.867 10.667 83.2 23.467 29.867 17.067 98.133 46.933 142.933 27.733 19.2-8.533 34.133-27.733 40.533-55.467 12.8-55.467-19.2-93.867-40.533-110.933z" />
<glyph unicode="&#xe939;" glyph-name="fastforward" d="M932.267 243.2l-467.2 268.8v-192l-339.2 192v-507.733l337.067 170.667v-170.667l469.333 238.933zM458.667 243.2l-268.8-136.533v294.4l268.8-151.467c0-2.133 2.133-2.133 2.133-4.267-2.133 0-2.133-2.133-2.133-2.133zM529.067 401.067l270.933-153.6-270.933-138.667v292.267z" />
<glyph unicode="&#xe93a;" glyph-name="fifteen-second-back" d="M475.733 166.4v145.067h-51.2v27.733c29.867 0 51.2 17.067 55.467 40.533h36.267v-211.2h-40.533zM603.733 234.667c2.133-21.333 17.067-38.4 40.533-38.4 21.333 0 38.4 14.933 38.4 36.267 0 25.6-19.2 38.4-38.4 38.4-14.933 0-27.733-6.4-34.133-14.933-6.4 2.133-32 10.667-38.4 12.8l25.6 106.667h117.333v-36.267h-89.6l-12.8-51.2c8.533 8.533 25.6 12.8 40.533 12.8 42.667 0 72.533-25.6 72.533-70.4 0-38.4-29.867-72.533-81.067-72.533-46.933 0-76.8 29.867-81.067 64l40.533 12.8zM563.2 682.667c-221.867 0-403.2-174.933-416-394.667h-104.533l134.4-134.4 134.4 134.4h-100.267c10.667 183.467 164.267 330.667 352 330.667 196.267 0 354.133-160 354.133-354.133s-157.867-354.133-354.133-354.133v-64c230.4 0 418.133 187.733 418.133 418.133s-187.733 418.133-418.133 418.133z" />
<glyph unicode="&#xe93b;" glyph-name="fifteen-second-forward" d="M352 166.4v145.067h-51.2v27.733c29.867 0 51.2 17.067 55.467 40.533h36.267v-211.2h-40.533zM475.733 234.667c2.133-21.333 17.067-38.4 40.533-38.4 21.333 0 38.4 14.933 38.4 36.267 0 25.6-19.2 38.4-38.4 38.4-14.933 0-27.733-6.4-34.133-14.933-6.4 2.133-32 10.667-38.4 12.8l25.6 106.667h117.333v-36.267h-89.6l-12.8-51.2c8.533 8.533 25.6 12.8 40.533 12.8 42.667 0 72.533-25.6 72.533-70.4 0-38.4-29.867-72.533-81.067-72.533-46.933 0-76.8 29.867-81.067 64l40.533 12.8zM876.8 288c-12.8 219.733-194.133 394.667-416 394.667-230.4 0-418.133-187.733-418.133-418.133s187.733-418.133 418.133-418.133v64c-196.267 0-354.133 157.867-354.133 354.133 0 194.133 157.867 354.133 354.133 354.133 187.733 0 341.333-145.067 352-330.667h-102.4l134.4-134.4 134.4 134.4h-102.4z" />
<glyph unicode="&#xe93c;" glyph-name="filter" d="M640-128h-256v394.667l-313.6 373.333h883.2l-313.6-373.333v-394.667zM448-64h128v352l241.067 288h-610.133l241.067-288v-352z" />
<glyph unicode="&#xe93d;" glyph-name="flood-alarm" d="M795.733 288c-53.333 0-102.4 21.333-140.8 64-36.267-40.533-87.467-64-142.933-64-53.333 0-102.4 21.333-140.8 64-36.267-40.533-87.467-64-142.933-64-66.133 0-125.867 34.133-168.533 100.267l53.333 36.267c32-46.933 70.4-70.4 115.2-70.4 46.933 0 91.733 25.6 113.067 68.267l25.6 46.933 29.867-44.8c32-46.933 70.4-70.4 115.2-70.4 46.933 0 91.733 25.6 113.067 68.267l25.6 46.933 29.867-44.8c32-46.933 70.4-70.4 115.2-70.4 46.933 0 91.733 25.6 113.067 68.267l55.467-29.867c-32-66.133-96-104.533-168.533-104.533zM795.733 74.667c-53.333 0-102.4 21.333-140.8 64-36.267-40.533-87.467-64-142.933-64-53.333 0-102.4 21.333-140.8 64-36.267-40.533-87.467-64-142.933-64-66.133 0-125.867 34.133-168.533 100.267l53.333 36.267c32-46.933 70.4-70.4 115.2-70.4 46.933 0 91.733 25.6 113.067 68.267l25.6 46.933 29.867-44.8c32-46.933 70.4-70.4 115.2-70.4 46.933 0 91.733 25.6 113.067 68.267l25.6 46.933 29.867-44.8c32-46.933 70.4-70.4 115.2-70.4 46.933 0 91.733 25.6 113.067 68.267l55.467-29.867c-32-66.133-96-104.533-168.533-104.533z" />
<glyph unicode="&#xe93e;" glyph-name="fog" d="M697.6 341.333h-445.867c-17.067 0-32 14.933-32 32s14.933 32 32 32h445.867c17.067 0 32-14.933 32-32s-14.933-32-32-32zM746.667 85.333h-445.867c-17.067 0-32 14.933-32 32s14.933 32 32 32h445.867c17.067 0 32-14.933 32-32s-12.8-32-32-32zM573.867 213.333h-445.867c-17.067 0-32 14.933-32 32s14.933 32 32 32h445.867c17.067 0 32-14.933 32-32s-14.933-32-32-32zM896 213.333h-172.8c-17.067 0-32 14.933-32 32s12.8 32 32 32h172.8c17.067 0 32-14.933 32-32s-14.933-32-32-32z" />
<glyph unicode="&#xe93f;" glyph-name="gdo-closed" d="M324.267-128h384v405.333h-384v-405.333zM388.267-64v106.667h256v-106.667h-256zM644.267 213.333v-106.667h-256v106.667h256zM960 258.133l-448 426.667-251.733-241.067v89.6h-64v-149.333l-132.267-125.867 42.667-46.933 46.933 42.667v-381.867h64v443.733l294.4 279.467 302.933-285.867v-437.333h64v375.467l38.4-36.267z" />
<glyph unicode="&#xe940;" glyph-name="gdo-open" d="M324.267-128h64v341.333h256v-341.333h64v405.333h-384zM960 258.133l-448 426.667-251.733-241.067v89.6h-64v-149.333l-132.267-125.867 42.667-46.933 46.933 42.667v-381.867h64v443.733l294.4 279.467 302.933-285.867v-437.333h64v375.467l38.4-36.267z" />
<glyph unicode="&#xe941;" glyph-name="gdo-unknown" d="M512 379.733c-83.2 0-123.733-59.733-123.733-115.2 0-8.533 2.133-17.067 4.267-25.6l61.867-4.267c-2.133 6.4-4.267 17.067-4.267 25.6 0 29.867 21.333 61.867 61.867 61.867s59.733-27.733 59.733-55.467c0-19.2-8.533-34.133-25.6-46.933l-25.6-19.2c-32-23.467-44.8-49.067-44.8-83.2 0-8.533 0-12.8 2.133-21.333h55.467c0 4.267 0 6.4 0 6.4 0 21.333 8.533 40.533 27.733 53.333l23.467 17.067c32 23.467 55.467 53.333 55.467 96-2.133 57.6-46.933 110.933-128 110.933zM505.6 59.733c-23.467 0-40.533-19.2-40.533-40.533s17.067-40.533 40.533-40.533c21.333 0 40.533 19.2 40.533 40.533s-19.2 40.533-40.533 40.533zM960 279.467l-448 426.667-251.733-238.933v87.467h-64v-149.333l-132.267-125.867 42.667-44.8 46.933 42.667v-403.2h64v462.933l294.4 281.6 302.933-288v-456.533h64v396.8l38.4-36.267z" />
<glyph unicode="&#xe942;" glyph-name="gear" d="M608-181.333h-192v115.2c-21.333 6.4-42.667 14.933-64 25.6l-81.067-81.067-136.533 136.533 81.067 81.067c-10.667 19.2-19.2 40.533-27.733 64h-113.067v192h115.2c6.4 23.467 14.933 42.667 25.6 61.867l-81.067 81.067 136.533 136.533 81.067-81.067c19.2 10.667 40.533 19.2 64 25.6v117.333h192v-117.333c21.333-6.4 42.667-14.933 64-25.6l81.067 81.067 136.533-136.533-81.067-81.067c10.667-19.2 19.2-38.4 27.733-61.867h115.2v-192h-115.2c-6.4-23.467-14.933-44.8-27.733-64l81.067-83.2-136.533-136.533-81.067 81.067c-19.2-10.667-40.533-19.2-64-25.6v-113.067zM480-117.333h64v100.267l25.6 6.4c32 6.4 61.867 19.2 89.6 36.267l21.333 14.933 72.533-72.533 44.8 44.8-72.533 74.667 14.933 21.333c17.067 27.733 29.867 53.333 36.267 89.6l4.267 25.6h104.533v64h-104.533l-4.267 25.6c-6.4 36.267-17.067 59.733-36.267 87.467l-14.933 21.333 72.533 72.533-44.8 44.8-72.533-70.4-21.333 14.933c-27.733 17.067-57.6 29.867-89.6 36.267l-25.6 6.4v102.4h-64v-104.533l-25.6-6.4c-32-6.4-61.867-19.2-89.6-36.267l-21.333-14.933-72.533 72.533-44.8-44.8 72.533-72.533-14.933-21.333c-19.2-29.867-29.867-51.2-36.267-87.467l-4.267-25.6h-104.533v-64h104.533l4.267-25.6c6.4-36.267 19.2-61.867 36.267-89.6l14.933-21.333-72.533-72.533 44.8-44.8 72.533 72.533 21.333-14.933c27.733-17.067 57.6-29.867 89.6-38.4l25.6-6.4v-100.267zM512 72.533v0c-49.067 0-93.867 19.2-128 53.333s-53.333 78.933-53.333 128c0 49.067 19.2 93.867 53.333 128s78.933 53.333 128 53.333c49.067 0 93.867-19.2 128-53.333s53.333-78.933 53.333-128c0-49.067-19.2-93.867-53.333-128s-78.933-53.333-128-53.333zM512 371.2c-32 0-59.733-12.8-83.2-34.133-21.333-21.333-34.133-51.2-34.133-83.2s12.8-59.733 34.133-83.2c21.333-21.333 51.2-34.133 83.2-34.133s59.733 12.8 83.2 34.133c21.333 21.333 34.133 51.2 34.133 83.2s-12.8 59.733-34.133 83.2c-23.467 23.467-51.2 34.133-83.2 34.133z" />
<glyph unicode="&#xe943;" glyph-name="gocontrol" d="M917.333 514.133v-512h-810.667v512h810.667zM917.333 578.133h-810.667c-36.267 0-64-27.733-64-64v-512c0-36.267 27.733-64 64-64h810.667c36.267 0 64 27.733 64 64v512c0 34.133-27.733 64-64 64v0zM810.667 407.467v-149.333h-234.667v149.333h234.667zM874.667 471.467h-362.667v-277.333h362.667v277.333zM576 128h85.333v-64h-85.333v64zM725.333 128h85.333v-64h-85.333v64z" />
<glyph unicode="&#xe944;" glyph-name="google-plus" d="M85.333 640.058c0 23.532 19.020 42.609 42.609 42.609h768.116c23.532 0 42.609-19.020 42.609-42.609v-768.116c0-23.532-19.020-42.609-42.609-42.609h-768.116c-23.532 0-42.609 19.020-42.609 42.609v768.116zM426.667 277.333v-51.2h84.693c-3.413-21.973-25.6-64.427-84.693-64.427-50.987 0-92.587 42.24-92.587 94.293s41.6 94.293 92.587 94.293c29.013 0 48.427-12.373 59.52-23.040l40.533 39.040c-26.027 24.32-59.733 39.040-100.053 39.040-82.56 0-149.333-66.773-149.333-149.333s66.773-149.333 149.333-149.333c86.187 0 143.36 60.587 143.36 145.92 0 9.813-1.067 17.28-2.347 24.747h-141.013zM746.667 277.333h-42.667v42.667h-42.667v-42.667h-42.667v-42.667h42.667v-42.667h42.667v42.667h42.667v42.667z" />
<glyph unicode="&#xe945;" glyph-name="grid" d="M469.333 298.667h-384v384h384v-384zM149.333 362.667h256v256h-256v-256zM938.667 298.667h-384v384h384v-384zM618.667 362.667h256v256h-256v-256zM469.333-170.667h-384v384h384v-384zM149.333-106.667h256v256h-256v-256zM938.667-170.667h-384v384h384v-384zM618.667-106.667h256v256h-256v-256z" />
<glyph unicode="&#xe946;" glyph-name="grip" d="M85.333 426.667h853.333v-64h-853.333v64zM85.333 149.333h853.333v-64h-853.333v64z" />
<glyph unicode="&#xe947;" glyph-name="heart" d="M512-160l-396.8 398.933c-96 96-96 251.733 0 347.733s251.733 96 347.733 0l49.067-49.067 49.067 49.067c96 96 251.733 96 347.733 0v0c96-96 96-251.733 0-347.733l-396.8-398.933zM288 593.067c-46.933 0-93.867-17.067-128-53.333-70.4-70.4-70.4-185.6 0-258.133l352-349.867 352 352c70.4 70.4 70.4 185.6 0 258.133-70.4 70.4-185.6 70.4-258.133 0l-93.867-96-93.867 93.867c-36.267 36.267-83.2 53.333-130.133 53.333z" />
<glyph unicode="&#xe948;" glyph-name="heat-mode" d="M533.333 693.333l-32 29.867-19.2-40.533c0-2.133-57.6-123.733-121.6-179.2-117.333-102.4-189.867-198.4-189.867-360.533 0-192 155.733-345.6 345.6-345.6s345.6 155.733 345.6 345.6c4.267 241.067-313.6 539.733-328.533 550.4zM422.4-119.467v74.667c0 57.6 57.6 128 96 168.533 38.4-40.533 98.133-117.333 98.133-168.533v-74.667c-29.867-10.667-61.867-17.067-96-17.067s-66.133 6.4-98.133 17.067zM680.533-87.467v40.533c0 104.533-123.733 224-138.667 236.8l-21.333 19.2-21.333-19.2c-14.933-12.8-138.667-128-138.667-238.933v-40.533c-72.533 51.2-121.6 136.533-121.6 232.533 0 138.667 61.867 219.733 166.4 311.467 49.067 42.667 91.733 115.2 117.333 160 78.933-78.933 281.6-300.8 281.6-471.467-2.133-93.867-49.067-179.2-123.733-230.4z" />
<glyph unicode="&#xe949;" glyph-name="heavy-rain" d="M661.333 91.733v64c53.333 0 96 40.533 96 91.733 0 40.533-29.867 76.8-72.533 87.467l-23.467 4.267v25.6c0 66.133-55.467 117.333-123.733 117.333s-121.6-51.2-123.733-115.2l-2.133-29.867h-49.067c-53.333 0-96-40.533-96-91.733s42.667-91.733 96-91.733v-64c-87.467 0-160 70.4-160 155.733 0 81.067 66.133 149.333 147.2 153.6 17.067 83.2 93.867 147.2 185.6 147.2 96 0 174.933-68.267 187.733-157.867 57.6-23.467 98.133-78.933 98.133-142.933 0-85.333-72.533-153.6-160-153.6zM578.133-17.067c-2.133 0-6.4 0-8.533 2.133-17.067 4.267-27.733 21.333-23.467 38.4l55.467 206.933c4.267 17.067 21.333 27.733 38.4 23.467s27.733-21.333 23.467-38.4l-55.467-206.933c-4.267-14.933-17.067-25.6-29.867-25.6zM388.267-17.067c-2.133 0-6.4 0-8.533 2.133-17.067 4.267-27.733 21.333-23.467 38.4l55.467 206.933c4.267 17.067 21.333 27.733 38.4 23.467s27.733-21.333 23.467-38.4l-55.467-206.933c-2.133-14.933-14.933-25.6-29.867-25.6zM454.4-119.467c-2.133 0-6.4 0-8.533 2.133-17.067 4.267-27.733 21.333-23.467 38.4l83.2 309.333c4.267 17.067 21.333 27.733 38.4 23.467s27.733-21.333 23.467-38.4l-83.2-309.333c-2.133-17.067-14.933-25.6-29.867-25.6z" />
<glyph unicode="&#xe94a;" glyph-name="humidity" d="M512 635.733c110.933-113.067 298.667-339.2 298.667-501.333 0-153.6-136.533-283.733-298.667-283.733s-298.667 132.267-298.667 288c0 96 57.6 217.6 166.4 354.133 49.067 59.733 98.133 110.933 132.267 142.933zM512 725.333c0 0-362.667-315.733-362.667-586.667 0-194.133 168.533-352 362.667-352s362.667 153.6 362.667 347.733c0 253.867-362.667 590.933-362.667 590.933v0z" />
<glyph unicode="&#xe94b;" glyph-name="image" d="M42.667 599.467v-682.667h938.667v682.667h-938.667zM155.733-19.2l228.267 215.467 166.4-166.4 83.2 83.2 132.267-132.267h-610.133zM917.333-19.2h-61.867l-221.867 221.867-83.2-83.2-166.4 164.267-277.333-260.267v512h810.667v-554.667zM725.333 330.667c34.133 0 64 27.733 64 64 0 34.133-27.733 64-64 64s-64-27.733-64-64c0-36.267 27.733-64 64-64z" />
<glyph unicode="&#xe94c;" glyph-name="info-encircled" d="M512 725.333c-260.267 0-469.333-209.067-469.333-469.333s209.067-469.333 469.333-469.333 469.333 209.067 469.333 469.333-209.067 469.333-469.333 469.333v0zM512-149.333c-224 0-405.333 181.333-405.333 405.333s181.333 405.333 405.333 405.333 405.333-181.333 405.333-405.333-181.333-405.333-405.333-405.333zM544 310.6h-64v-246.6h64v246.6zM511.467 446.8c-22.8-0.333-41.067-19.067-40.8-41.933-0.133-22.667 18.133-41.133 40.8-41.267 0 0 0 0 0 0 22.933-0.133 41.667 18.333 41.933 41.267-0.133 23.133-18.867 41.867-41.933 41.933z" />
<glyph unicode="&#xe94d;" glyph-name="instagram" d="M511.878 570.831c102.501 0 114.641-0.39 155.119-2.237 37.428-1.708 57.754-7.962 71.282-13.218 17.917-6.964 30.706-15.284 44.139-28.716s21.752-26.222 28.715-44.139c5.257-13.528 11.511-33.854 13.219-71.281 1.847-40.48 2.237-52.62 2.237-155.121s-0.39-114.641-2.237-155.119c-1.708-37.428-7.962-57.754-13.219-71.282-6.962-17.917-15.282-30.706-28.715-44.139s-26.222-21.752-44.139-28.715c-13.528-5.257-33.854-11.511-71.282-13.219-40.472-1.847-52.613-2.237-155.119-2.237s-114.647 0.39-155.119 2.237c-37.428 1.708-57.754 7.962-71.281 13.219-17.918 6.962-30.708 15.282-44.14 28.715s-21.752 26.222-28.715 44.139c-5.257 13.528-11.511 33.854-13.219 71.281-1.847 40.48-2.237 52.62-2.237 155.121s0.39 114.641 2.237 155.119c1.708 37.428 7.962 57.754 13.219 71.282 6.962 17.917 15.282 30.706 28.715 44.139s26.222 21.752 44.14 28.716c13.527 5.256 33.853 11.509 71.279 13.218 40.48 1.847 52.62 2.237 155.121 2.237zM511.878 640c-104.256 0-117.327-0.442-158.272-2.31-40.861-1.865-68.765-8.354-93.184-17.844-25.243-9.81-46.651-22.936-67.992-44.277s-34.467-42.749-44.277-67.992c-9.49-24.419-15.979-52.323-17.844-93.184-1.868-40.943-2.309-54.016-2.309-158.272s0.44-117.329 2.309-158.272c1.865-40.861 8.354-68.765 17.844-93.184 9.81-25.242 22.936-46.651 44.277-67.992s42.749-34.467 67.992-44.277c24.419-9.49 52.323-15.979 93.184-17.844 40.945-1.868 54.016-2.309 158.272-2.309s117.329 0.44 158.272 2.309c40.861 1.865 68.765 8.354 93.184 17.844 25.243 9.81 46.651 22.936 67.992 44.277s34.467 42.749 44.277 67.992c9.49 24.419 15.979 52.323 17.844 93.184 1.868 40.943 2.31 54.016 2.31 158.272s-0.442 117.329-2.31 158.272c-1.865 40.861-8.354 68.765-17.844 93.184-9.81 25.243-22.936 46.651-44.277 67.992s-42.749 34.467-67.992 44.277c-24.419 9.49-52.323 15.979-93.184 17.844-40.943 1.868-54.016 2.31-158.272 2.31zM511.878 453.248c-108.87 0-197.128-88.258-197.128-197.128s88.258-197.128 197.128-197.128c108.87 0 197.128 88.258 197.128 197.128s-88.258 197.128-197.128 197.128v0zM511.878 128.16c-70.67 0-127.96 57.291-127.96 127.96s57.291 127.96 127.96 127.96c70.67 0 127.96-57.291 127.96-127.96s-57.291-127.96-127.96-127.96v0zM762.859 461.036c0-25.442-20.623-46.066-46.065-46.066s-46.066 20.625-46.066 46.066c0 25.442 20.625 46.065 46.066 46.065s46.065-20.623 46.065-46.065z" />
<glyph unicode="&#xe94e;" glyph-name="internet" d="M512 725.333c-258.133 0-469.333-211.2-469.333-469.333s209.067-469.333 469.333-469.333c258.133 0 469.333 209.067 469.333 469.333s-211.2 469.333-469.333 469.333zM917.333 256c0-36.267-4.267-70.4-14.933-104.533l-29.867 55.467v93.867l36.267 36.267c4.267-25.6 8.533-53.333 8.533-81.067zM390.4 642.133l10.667-27.733-70.4-89.6 138.667-104.533 74.667 72.533 23.467-23.467-130.133-157.867-93.867-12.8v-72.533l-4.267 2.133-106.667 110.933v85.333l-44.8 72.533c51.2 68.267 121.6 119.467 202.667 145.067zM509.867 38.4v68.267l51.2 19.2 66.133-40.533 42.667-64-108.8-166.4c-2.133 0-4.267 0-6.4 0v142.933l-44.8 40.533zM106.667 256c0 66.133 14.933 125.867 42.667 181.333l19.2-29.867v-91.733l132.267-136.533 115.2-55.467 29.867-14.933v-98.133l46.933-42.667v-117.333c-213.333 10.667-386.133 187.733-386.133 405.333zM652.8-123.733l93.867 145.067-74.667 110.933-104.533 64-87.467-32-72.533 36.267v46.933l32 4.267 23.467-36.267 53.333 34.133-21.333 34.133 160 194.133-113.067 106.667-78.933-78.933-42.667 32 53.333 66.133-19.2 53.333c17.067 2.133 38.4 4.267 57.6 4.267 170.667 0 315.733-104.533 375.467-253.867l-78.933-81.067v-136.533l64-115.2c-44.8-91.733-123.733-162.133-219.733-198.4z" />
<glyph unicode="&#xe94f;" glyph-name="keyfobs" d="M593.067 661.333c59.733-6.4 113.067-23.467 113.067-130.133v-125.867c0-490.667-93.867-554.667-177.067-554.667h-34.133c-81.067 0-177.067 64-177.067 554.667v125.867c0 106.667 53.333 123.733 113.067 130.133h162.133zM595.2 725.333h-166.4c-64-6.4-172.8-29.867-172.8-194.133v-125.867c0-341.333 38.4-618.667 241.067-618.667h32c202.667 0 238.933 277.333 238.933 618.667v125.867c0 164.267-108.8 187.733-172.8 194.133v0zM554.667-42.667c0-23.564-19.103-42.667-42.667-42.667s-42.667 19.103-42.667 42.667c0 23.564 19.103 42.667 42.667 42.667s42.667-19.103 42.667-42.667zM661.333 445.867c0-19.2-17.067-34.133-36.267-29.867-23.467 6.4-61.867 10.667-113.067 10.667s-89.6-4.267-113.067-10.667c-19.2-4.267-36.267 10.667-36.267 29.867v2.133c0 12.8 8.533 25.6 23.467 29.867 23.467 6.4 64 12.8 125.867 12.8 64 0 104.533-8.533 125.867-12.8 14.933-4.267 23.467-17.067 23.467-32v0zM640 341.333c0-19.2-17.067-34.133-36.267-29.867-21.333 4.267-51.2 8.533-91.733 8.533s-70.4-4.267-91.733-8.533c-19.2-4.267-36.267 8.533-36.267 29.867v0c0 12.8 8.533 25.6 21.333 29.867 21.333 6.4 55.467 12.8 106.667 12.8s85.333-6.4 106.667-12.8c12.8-4.267 21.333-17.067 21.333-29.867v0zM618.667 234.667c0-19.2-19.2-34.133-38.4-29.867-17.067 4.267-40.533 8.533-68.267 8.533s-51.2-4.267-68.267-8.533c-19.2-4.267-38.4 10.667-38.4 29.867v0c0 12.8 8.533 25.6 21.333 29.867 19.2 6.4 49.067 12.8 85.333 12.8s68.267-6.4 85.333-12.8c12.8-4.267 21.333-17.067 21.333-29.867v0zM597.333 128c0-19.2-19.2-34.133-38.4-29.867-14.933 6.4-29.867 8.533-46.933 8.533s-32-2.133-46.933-6.4c-19.2-6.4-38.4 8.533-38.4 27.733v0c0 12.8 8.533 23.467 19.2 27.733 17.067 6.4 40.533 12.8 66.133 12.8s49.067-6.4 66.133-12.8c10.667-2.133 19.2-14.933 19.2-27.733v0z" />
<glyph unicode="&#xe950;" glyph-name="keypad-backspace" d="M889.6 576h-588.8l-258.133-320 258.133-320h588.8c49.067 0 89.6 42.667 89.6 93.867v452.267c2.133 51.2-38.4 93.867-89.6 93.867zM917.333 29.867c0-17.067-12.8-29.867-25.6-29.867h-558.933l-206.933 256 206.933 256h558.933c14.933 0 25.6-12.8 25.6-29.867v-452.267zM689.067 398.933l-98.133-98.133-98.133 98.133-44.8-46.933 98.133-98.133-98.133-98.133 44.8-44.8 98.133 98.133 98.133-98.133 44.8 44.8-98.133 98.133 98.133 98.133z" />
<glyph unicode="&#xe951;" glyph-name="light-off" d="M520.533-10.667c-147.2 0-266.667 119.467-266.667 266.667s119.467 266.667 266.667 266.667 266.667-119.467 266.667-266.667-119.467-266.667-266.667-266.667zM520.533 458.667c-110.933 0-202.667-91.733-202.667-202.667s91.733-202.667 202.667-202.667 202.667 91.733 202.667 202.667-89.6 202.667-202.667 202.667z" />
<glyph unicode="&#xe952;" glyph-name="lights" d="M520.533-10.667c-147.2 0-266.667 119.467-266.667 266.667s119.467 266.667 266.667 266.667 266.667-119.467 266.667-266.667-119.467-266.667-266.667-266.667zM520.533 458.667c-110.933 0-202.667-91.733-202.667-202.667s91.733-202.667 202.667-202.667 202.667 91.733 202.667 202.667-89.6 202.667-202.667 202.667zM208.828 609.579l82.966-82.978-45.261-45.254-82.966 82.978 45.261 45.254zM829.117 608.531l45.254-45.254-82.966-82.966-45.254 45.254 82.966 82.966zM488.533 727.467h64v-128h-64v128zM488.533-83.2h64v-128h-64v128zM851.2 288h128v-64h-128v64zM44.8 288h125.867v-64h-125.867v64zM245.408 27.183l45.254-45.254-82.966-82.966-45.254 45.254 82.966 82.966zM792.063 23.578l82.966-82.978-45.261-45.254-82.966 82.978 45.261 45.254z" />
<glyph unicode="&#xe953;" glyph-name="link" d="M838.4 582.4c-64 64-170.667 64-234.667 0l-72.533-72.533c-57.6-57.6-64-145.067-21.333-209.067l-42.667-42.667c-64 42.667-153.6 36.267-209.067-21.333l-72.533-72.533c-64-64-64-170.667 0-234.667 32-32 74.667-49.067 117.333-49.067s85.333 17.067 117.333 49.067l72.533 72.533c57.6 57.6 64 145.067 21.333 209.067l42.667 42.667c27.733-19.2 59.733-27.733 91.733-27.733 42.667 0 85.333 17.067 117.333 49.067l72.533 72.533c64 66.133 64 170.667 0 234.667zM448 46.933l-72.533-72.533c-40.533-40.533-104.533-40.533-142.933 0s-40.533 104.533 0 142.933l72.533 72.533c19.2 19.2 46.933 29.867 72.533 29.867 14.933 0 32-4.267 44.8-10.667l-66.133-66.133 44.8-44.8 66.133 66.133c17.067-38.4 10.667-85.333-19.2-117.333zM793.6 392.533l-72.533-72.533c-32-32-78.933-38.4-117.333-19.2l57.6 57.6-44.8 46.933-57.6-57.6c-19.2 38.4-12.8 85.333 19.2 117.333l72.533 72.533c19.2 19.2 46.933 29.867 72.533 29.867s51.2-10.667 72.533-29.867c36.267-40.533 36.267-104.533-2.133-145.067z" />
<glyph unicode="&#xe954;" glyph-name="live" d="M96 110.933v290.133h64v-228.267h125.867v-61.867h-189.867zM328.533 110.933v290.133h66.133v-290.133h-66.133zM640 401.067h68.267l-106.667-290.133h-66.133l-106.667 290.133h70.4l70.4-204.8 70.4 204.8zM744.533 110.933v290.133h183.467v-61.867h-119.467v-55.467h108.8v-57.6h-108.8v-55.467h119.467v-61.867h-183.467z" />
<glyph unicode="&#xe955;" glyph-name="location" d="M512 661.333c170.667 0 298.667-128 298.667-298.667 0-96-57.6-215.467-164.267-347.733-49.067-59.733-98.133-108.8-132.267-140.8-110.933 108.8-300.8 326.4-300.8 488.533 0 170.667 128 298.667 298.667 298.667zM512 725.333c-217.6 0-362.667-168.533-362.667-362.667 0-253.867 362.667-576 362.667-576s362.667 305.067 362.667 576c0 194.133-147.2 362.667-362.667 362.667v0zM512 322.133c-36.267 0-64 27.733-64 64 0 34.133 27.733 64 64 64 34.133 0 64-27.733 64-64s-27.733-64-64-64z" />
<glyph unicode="&#xe956;" glyph-name="lock-locked" d="M704 362.667v113.067c0 117.333-83.2 206.933-192 206.933-110.933 0-192-85.333-192-204.8v-115.2h-170.667v-533.333h725.333v533.333h-170.667zM384 477.867c0 83.2 53.333 140.8 128 140.8 83.2 0 128-72.533 128-142.933v-113.067h-256v115.2zM810.667-106.667h-597.333v405.333h597.333v-405.333zM512 42.667c34.133 0 64 27.733 64 64 0 34.133-27.733 64-64 64s-64-27.733-64-64c0-36.267 27.733-64 64-64z" />
<glyph unicode="&#xe957;" glyph-name="lock-unlocked" d="M384 364.8v113.067c0 78.933 59.733 138.667 138.667 138.667 42.667 0 74.667-17.067 102.4-51.2l51.2 40.533c-40.533 51.2-91.733 76.8-153.6 76.8-113.067 0-202.667-89.6-202.667-202.667v-113.067h-170.667v-533.333h725.333v533.333h-490.667zM810.667-104.533h-597.333v405.333h597.333v-405.333zM512 42.667c34.133 0 64 27.733 64 64 0 34.133-27.733 64-64 64s-64-27.733-64-64c0-36.267 27.733-64 64-64z" />
<glyph unicode="&#xe958;" glyph-name="locks" d="M492.8 509.867c0-21.208-17.192-38.4-38.4-38.4s-38.4 17.192-38.4 38.4c0 21.208 17.192 38.4 38.4 38.4s38.4-17.192 38.4-38.4zM608 509.867c0-21.208-17.192-38.4-38.4-38.4s-38.4 17.192-38.4 38.4c0 21.208 17.192 38.4 38.4 38.4s38.4-17.192 38.4-38.4zM492.8 392.533c0-21.208-17.192-38.4-38.4-38.4s-38.4 17.192-38.4 38.4c0 21.208 17.192 38.4 38.4 38.4s38.4-17.192 38.4-38.4zM608 392.533c0-21.208-17.192-38.4-38.4-38.4s-38.4 17.192-38.4 38.4c0 21.208 17.192 38.4 38.4 38.4s38.4-17.192 38.4-38.4zM512-204.8c-147.2 0-264.533 119.467-264.533 264.533v390.4c0 147.2 117.333 266.667 264.533 266.667s264.533-119.467 264.533-266.667v-388.267c0-147.2-117.333-266.667-264.533-266.667zM512 652.8c-110.933 0-200.533-89.6-200.533-200.533v-388.267c0-110.933 89.6-200.533 200.533-200.533s200.533 89.6 200.533 200.533v386.133c0 110.933-89.6 202.667-200.533 202.667zM512 230.4c-91.733 0-168.533-74.667-168.533-168.533s76.8-168.533 168.533-168.533 168.533 74.667 168.533 168.533-76.8 168.533-168.533 168.533zM512 166.4c17.067 0 32-4.267 46.933-12.8l-138.667-138.667c-6.4 14.933-12.8 29.867-12.8 46.933 0 57.6 46.933 104.533 104.533 104.533zM512-42.667c-17.067 0-32 4.267-46.933 12.8l138.667 138.667c6.4-14.933 12.8-29.867 12.8-46.933 0-57.6-46.933-104.533-104.533-104.533z" />
<glyph unicode="&#xe959;" glyph-name="menu" d="M87.467 522.667h851.2v-64h-851.2v64zM87.467 288h851.2v-64h-851.2v64zM87.467 53.333h851.2v-64h-851.2v64z" />
<glyph unicode="&#xe95a;" glyph-name="message" d="M42.667 597.333v-682.667h938.667v682.667h-938.667zM857.6 533.333l-345.6-258.133-343.467 258.133h689.067zM106.667-21.333v522.667l405.333-305.067 405.333 302.933v-520.533h-810.667z" />
<glyph unicode="&#xe95b;" glyph-name="mic-off" d="M895.369 641.963l45.254-45.254-767.816-767.816-45.254 45.254 767.816 767.816zM324.267 70.4c44.8-49.067 110.933-81.067 181.333-81.067 134.4 0 245.333 108.8 245.333 243.2h64c0-170.667-138.667-307.2-309.333-307.2-89.6 0-170.667 38.4-228.267 100.267zM241.067 74.667c-27.733 46.933-44.8 100.267-44.8 157.867h64c0-40.533 10.667-76.8 27.733-110.933zM394.667 142.933c25.6-27.733 64-46.933 110.933-46.933 78.933 0 138.667 53.333 138.667 121.6v172.8l64 64v-236.8c0-104.533-89.6-185.6-202.667-185.6-64 0-119.467 25.6-155.733 66.133l44.8 44.8zM473.6-21.333h64v-142.933h-64v142.933zM334.933-128h341.333v-64h-341.333v64zM644.267 490.667c0 74.667-64 138.667-138.667 138.667s-138.667-64-138.667-138.667v-273.067c0-6.4 0-10.667 0-14.933l-51.2-51.2c-8.533 21.333-12.8 42.667-12.8 68.267v270.933c0 108.8 93.867 202.667 202.667 202.667 93.867 0 174.933-68.267 196.267-155.733l-57.6-57.6v10.667z" />
<glyph unicode="&#xe95c;" glyph-name="mic-on" d="M505.6-74.667c-170.667 0-309.333 138.667-309.333 307.2h64c0-134.4 108.8-243.2 245.333-243.2 134.4 0 245.333 108.8 245.333 243.2h64c0-168.533-138.667-307.2-309.333-307.2zM505.6 32c-113.067 0-202.667 81.067-202.667 185.6v273.067c0 108.8 93.867 202.667 202.667 202.667s202.667-93.867 202.667-202.667v-273.067c0-104.533-87.467-185.6-202.667-185.6zM505.6 629.333c-74.667 0-138.667-64-138.667-138.667v-273.067c0-70.4 59.733-121.6 138.667-121.6s138.667 53.333 138.667 121.6v273.067c0 72.533-64 138.667-138.667 138.667zM473.6-21.333h64v-142.933h-64v142.933zM334.933-128h341.333v-64h-341.333v64z" />
<glyph unicode="&#xe95d;" glyph-name="minus" d="M85.333 288h853.333v-64h-853.333v64z" />
<glyph unicode="&#xe95e;" glyph-name="mobile-phone" d="M469.333 0h85.333v-64h-85.333v64zM405.333 576h213.333v-64h-213.333v64zM704 684.8h-384c-36.267 0-64-27.733-64-64v-725.333c0-36.267 27.733-64 64-64h384c36.267 0 64 27.733 64 64v725.333c0 34.133-27.733 64-64 64zM704 620.8v-514.133h-384v514.133h384zM320-104.533v147.2h384v-147.2h-384z" />
<glyph unicode="&#xe95f;" glyph-name="monitoring-off" d="M896 106.501c0-23.462-19.964-42.576-44.47-42.576h-19.53v214.004h19.53c24.506 0 44.47-19.094 44.47-42.536v-128.893zM192 63.926h-19.557c-24.534 0-44.443 19.114-44.443 42.576v128.893c0 23.442 19.908 42.536 44.443 42.536h19.557v-214.004zM697.734 495.261c43.777-48.256 69.988-113.86 69.988-186.022v-276.622c0-23.462-17.71-55.675-40.831-55.675h-93.284c-11.614 26.152-37.814 44.391-68.274 44.391-41.237 0-74.667-33.429-74.667-74.667s33.429-74.667 74.667-74.667c29.658 0 55.278 17.292 67.327 42.344h94.231c46.339 0 84.092 44.349 97.299 86.984h32.186c57.13 0 103.624 47.201 103.624 105.174v128.893c0.039 57.953-46.475 105.134-103.605 105.134h-28.543c-7.582 81.518-42.396 154.527-95.613 208.047l100.552 155.362h-71.649l-75.771-116.549c-49.268 33.281-108.494 52.612-173.352 52.612-169.325 0-300.090-131.719-315.673-299.472h-28.742c-57.149 0-103.605-47.181-103.605-105.134v-128.893c0-57.973 46.456-105.174 103.605-105.174h57.998c17.043 0 30.834 14.014 30.834 31.289v276.622c0 147.868 109.846 268.163 255.563 268.163 52.227 0 99.87-15.46 139.505-42.106l-471.798-725.714h74.249l443.778 685.679z" />
<glyph unicode="&#xe960;" glyph-name="monitoring" d="M896 106.501v128.893c0 23.442-19.964 42.536-44.47 42.536h-19.53v-214.004h19.53c24.506 0 44.47 19.114 44.47 42.576zM192 63.926v214.004h-19.557c-24.534 0-44.443-19.094-44.443-42.536v-128.893c0-23.462 19.908-42.576 44.443-42.576h19.557zM633.607-23.058h93.284c23.121 0 40.831 32.212 40.831 55.675v276.622c0 147.848-110.025 268.163-255.722 268.163-145.717 0-255.563-120.295-255.563-268.163v-276.622c0-17.275-13.791-31.289-30.834-31.289h-57.998c-57.149 0-103.605 47.201-103.605 105.174v128.893c0 57.953 46.456 105.134 103.605 105.134h28.742c15.583 167.752 146.348 299.472 315.673 299.472 169.305 0 300.23-131.719 315.832-299.472h28.543c57.13 0 103.644-47.181 103.605-105.134v-128.893c0-57.973-46.495-105.174-103.624-105.174h-32.186c-13.206-42.635-50.96-86.984-97.299-86.984h-94.231c-12.049-25.052-37.669-42.344-67.327-42.344-41.237 0-74.667 33.429-74.667 74.667s33.429 74.667 74.667 74.667c30.46 0 56.659-18.239 68.274-44.391z" />
<glyph unicode="&#xe961;" glyph-name="mostly-cloudy-wind" d="M859.733 322.133c0 87.467-72.533 160-160 160-38.4 0-74.667-14.933-104.533-38.4-21.333 6.4-42.667 10.667-66.133 10.667-91.733 0-166.4-61.867-185.6-147.2-70.4-4.267-140.8-46.933-140.8-115.2h64c0 29.867 46.933 51.2 89.6 51.2h46.933l2.133 29.867c2.133 64 57.6 115.2 123.733 115.2 68.267 0 123.733-53.333 123.733-117.333v-25.6l23.467-6.4c42.667-10.667 72.533-46.933 72.533-87.467 0-49.067-42.667-91.733-96-91.733h-189.867v-64h189.867c87.467 0 160 70.4 160 155.733 0 17.067-2.133 34.133-8.533 49.067 36.267 32 55.467 74.667 55.467 121.6zM716.8 296.533c-6.4 42.667-27.733 83.2-59.733 110.933 12.8 6.4 27.733 10.667 42.667 10.667 53.333 0 96-42.667 96-96 0-23.467-8.533-44.8-23.467-61.867-14.933 14.933-34.133 27.733-55.467 36.267zM992 354.133h-64c-17.067 0-32-14.933-32-32s14.933-32 32-32h64c17.067 0 32 14.933 32 32s-14.933 32-32 32zM861.867 452.267c8.533 0 17.067 2.133 23.467 8.533l44.8 44.8c12.8 12.8 12.8 32 0 44.8s-32 12.8-44.8 0l-44.8-44.8c-12.8-12.8-12.8-32 0-44.8 6.4-4.267 14.933-8.533 21.333-8.533zM701.867 522.667c17.067 0 32 14.933 32 32v64c0 17.067-14.933 32-32 32s-32-14.933-32-32v-64c0-19.2 12.8-32 32-32zM492.8 486.4c6.4-6.4 14.933-8.533 23.467-8.533s17.067 2.133 23.467 8.533c12.8 12.8 12.8 32 0 44.8l-23.467 23.467c-12.8 12.8-32 12.8-44.8 0s-12.8-32 0-44.8l21.333-23.467zM902.4 160c-12.8 12.8-32 12.8-44.8 0s-12.8-32 0-44.8l23.467-23.467c6.4-6.4 14.933-8.533 23.467-8.533s17.067 2.133 23.467 8.533c12.8 12.8 12.8 32 0 44.8l-25.6 23.467zM108.8 108.8h356.267c17.067 0 32 14.933 32 32s-14.933 32-32 32h-356.267c-17.067 0-32-14.933-32-32s14.933-32 32-32zM396.8 29.867c0 17.067-14.933 32-32 32h-324.267c-17.067 0-32-14.933-32-32s14.933-32 32-32h324.267c17.067 0 32 14.933 32 32zM486.4-42.667h-377.6c-17.067 0-32-14.933-32-32s14.933-32 32-32h377.6c17.067 0 32 14.933 32 32s-14.933 32-32 32z" />
<glyph unicode="&#xe962;" glyph-name="mostly-cloudy" d="M804.267 300.8c0 87.467-72.533 160-160 160-38.4 0-74.667-14.933-104.533-38.4-21.333 6.4-42.667 10.667-66.133 10.667-91.733 0-166.4-61.867-185.6-147.2-83.2-6.4-147.2-72.533-147.2-153.6 0-85.333 72.533-155.733 160-155.733h298.667c87.467 0 160 70.4 160 155.733 0 17.067-2.133 34.133-8.533 49.067 34.133 29.867 53.333 72.533 53.333 119.467zM644.267 396.8c53.333 0 96-42.667 96-96 0-23.467-8.533-44.8-23.467-61.867-14.933 14.933-34.133 27.733-55.467 36.267-6.4 42.667-27.733 83.2-61.867 110.933 14.933 6.4 29.867 10.667 44.8 10.667zM599.467 40.533h-298.667c-53.333 0-96 40.533-96 91.733s42.667 91.733 96 91.733h46.933l2.133 29.867c2.133 64 57.6 115.2 123.733 115.2 68.267 0 123.733-53.333 123.733-117.333v-25.6l23.467-6.4c42.667-10.667 72.533-46.933 72.533-87.467 2.133-49.067-40.533-91.733-93.867-91.733zM936.533 332.8h-64c-17.067 0-32-14.933-32-32s14.933-32 32-32h64c17.067 0 32 14.933 32 32s-14.933 32-32 32zM806.4 430.933c8.533 0 17.067 2.133 23.467 8.533l44.8 44.8c12.8 12.8 12.8 32 0 44.8s-32 12.8-44.8 0l-44.8-44.8c-12.8-12.8-12.8-32 0-44.8 6.4-4.267 12.8-8.533 21.333-8.533zM644.267 501.333c17.067 0 32 14.933 32 32v64c0 17.067-14.933 32-32 32s-32-14.933-32-32v-64c0-19.2 14.933-32 32-32zM437.333 465.067c6.4-6.4 14.933-8.533 23.467-8.533s17.067 2.133 23.467 8.533c12.8 12.8 12.8 32 0 44.8l-23.467 23.467c-12.8 12.8-32 12.8-44.8 0s-12.8-32 0-44.8l21.333-23.467zM846.933 138.667c-12.8 12.8-32 12.8-44.8 0s-12.8-32 0-44.8l23.467-23.467c6.4-6.4 14.933-8.533 23.467-8.533s17.067 2.133 23.467 8.533c12.8 12.8 12.8 32 0 44.8l-25.6 23.467z" />
<glyph unicode="&#xe963;" glyph-name="motion-indicator" d="M618.667 509.867c-59.733 0-106.667 46.933-106.667 106.667s46.933 106.667 106.667 106.667 106.667-46.933 106.667-106.667-49.067-106.667-106.667-106.667zM618.667 659.2c-23.467 0-42.667-19.2-42.667-42.667s19.2-42.667 42.667-42.667 42.667 19.2 42.667 42.667-19.2 42.667-42.667 42.667zM864-66.133l-32-29.867-117.333 123.733v343.467c0 51.2-40.533 106.667-96 106.667h-36.267l-187.733-119.467v-179.2h64v142.933l142.933 91.733h17.067c14.933 0 32-23.467 32-42.667v-277.333l-64 66.133v181.333l-64-38.4v-168.533l309.333-322.133 76.8 76.8-44.8 44.8zM256 588.8h192v-64h-192v64zM128 439.467h192v-64h-192v64zM768 311.467h128v-64h-128v64zM426.667-202.667l-85.333 85.333 177.067 174.933 44.8-44.8-130.133-130.133 38.4-38.4z" />
<glyph unicode="&#xe964;" glyph-name="nest" d="M512 768c-281.6 0-512-230.4-512-512s230.4-512 512-512 512 230.4 512 512-230.4 512-512 512zM576-29.867h-134.4v174.933c0 38.4 32 68.267 68.267 68.267 38.4 0 66.133-32 66.133-68.267v-174.933zM770.133 230.4l-57.6 46.933v-302.933h-76.8v174.933c0 70.4-57.6 123.733-125.867 123.733-70.4 0-125.867-57.6-125.867-123.733v-174.933h-81.067v305.067l-57.6-46.933-51.2 64 317.867 256 136.533-115.2v38.4h64v-91.733l108.8-89.6-51.2-64z" />
<glyph unicode="&#xe965;" glyph-name="options-horizontal" d="M597.333 256c0-47.128-38.205-85.333-85.333-85.333s-85.333 38.205-85.333 85.333c0 47.128 38.205 85.333 85.333 85.333s85.333-38.205 85.333-85.333zM256 256c0-47.128-38.205-85.333-85.333-85.333s-85.333 38.205-85.333 85.333c0 47.128 38.205 85.333 85.333 85.333s85.333-38.205 85.333-85.333zM938.667 256c0-47.128-38.205-85.333-85.333-85.333s-85.333 38.205-85.333 85.333c0 47.128 38.205 85.333 85.333 85.333s85.333-38.205 85.333-85.333z" />
<glyph unicode="&#xe966;" glyph-name="options-vertical" d="M597.333 256c0-47.128-38.205-85.333-85.333-85.333s-85.333 38.205-85.333 85.333c0 47.128 38.205 85.333 85.333 85.333s85.333-38.205 85.333-85.333zM597.333 597.333c0-47.128-38.205-85.333-85.333-85.333s-85.333 38.205-85.333 85.333c0 47.128 38.205 85.333 85.333 85.333s85.333-38.205 85.333-85.333zM597.333-85.333c0-47.128-38.205-85.333-85.333-85.333s-85.333 38.205-85.333 85.333c0 47.128 38.205 85.333 85.333 85.333s85.333-38.205 85.333-85.333z" />
<glyph unicode="&#xe967;" glyph-name="outlets" d="M448 168.533h128v-59.733c0-36.267-27.733-64-64-64-34.133 0-64 27.733-64 64v59.733zM364.8 445.867h64v-187.733h-64v187.733zM595.2 445.867h64v-187.733h-64v187.733zM761.6 576c98.133-76.8 155.733-194.133 155.733-320s-57.6-243.2-155.733-320h-499.2c-98.133 76.8-155.733 194.133-155.733 320s57.6 243.2 155.733 320h499.2zM780.8 640h-537.6c-121.6-85.333-200.533-226.133-200.533-384s78.933-298.667 200.533-384h539.733c121.6 85.333 200.533 226.133 200.533 384s-81.067 298.667-202.667 384v0z" />
<glyph unicode="&#xe968;" glyph-name="panel-100" d="M539.733-134.4l-283.733 243.2h-202.667v298.667h202.667l283.733 236.8v-778.667zM117.333 172.8h162.133l194.133-166.4v501.333l-194.133-164.267h-162.133v-170.667zM836.267-68.267l-44.8 44.8c74.667 74.667 115.2 172.8 115.2 279.467 0 104.533-40.533 204.8-115.2 279.467l44.8 44.8c87.467-87.467 134.4-202.667 134.4-324.267s-46.933-236.8-134.4-324.267zM686.933 113.067l-44.8 44.8c25.6 25.6 40.533 61.867 40.533 98.133s-14.933 72.533-40.533 98.133l44.8 44.8c38.4-38.4 59.733-89.6 59.733-142.933s-21.333-104.533-59.733-142.933z" />
<glyph unicode="&#xe969;" glyph-name="panel-down" d="M917.333 535.467v-554.667h-810.667v554.667h810.667zM917.333 599.467h-810.667c-36.267 0-64-27.733-64-64v-554.667c0-36.267 27.733-64 64-64h810.667c36.267 0 64 27.733 64 64v554.667c0 34.133-27.733 64-64 64v0zM384 87.467h85.333v-64h-85.333v64zM554.667 87.467h85.333v-64h-85.333v64zM149.333 492.8v-362.667h725.333v362.667h-725.333zM810.667 234.667l-524.8 192h524.8v-192zM213.333 386.133l524.8-192h-524.8v192z" />
<glyph unicode="&#xe96a;" glyph-name="panel-mute" d="M962.133 360.533l-46.933 46.933-104.533-106.667-104.533 106.667-46.933-46.933 106.667-104.533-106.667-104.533 46.933-46.933 104.533 106.667 104.533-106.667 46.933 46.933-106.667 104.533zM53.333 407.467v-298.667h202.667l281.6-241.067v776.533l-281.6-236.8h-202.667zM475.733 507.733v-501.333l-194.133 166.4h-164.267v170.667h162.133l196.267 164.267z" />
<glyph unicode="&#xe96b;" glyph-name="panel" d="M917.333 535.467v-554.667h-810.667v554.667h810.667zM917.333 599.467h-810.667c-36.267 0-64-27.733-64-64v-554.667c0-36.267 27.733-64 64-64h810.667c36.267 0 64 27.733 64 64v554.667c0 34.133-27.733 64-64 64v0zM810.667 428.8v-234.667h-597.333v234.667h597.333zM874.667 492.8h-725.333v-362.667h725.333v362.667zM384 87.467h85.333v-64h-85.333v64zM554.667 87.467h85.333v-64h-85.333v64z" />
<glyph unicode="&#xe96c;" glyph-name="panic" d="M785.626 332.87l-197.291-64.064 19.755-60.885 136.427 44.309 19.776-60.864 197.291 64.064-19.755 60.864-136.427-44.288zM617.907 388.789l113.045 88.299 39.403-50.432 163.477 127.68-39.381 50.432-113.045-88.299-39.403 50.453-163.499-127.701zM734.699-42.692l-163.484 127.685 39.39 50.43 113.043-88.276 39.39 50.43 163.502-127.674-39.398-50.459-113.054 88.294zM126.409 146.219h145.643l195.691-149.867v506.304l-194.837-164.437h-146.496v-192zM531.742-133.291l-281.387 215.509h-187.947v320h187.093l282.24 238.187v-773.696z" />
<glyph unicode="&#xe96d;" glyph-name="partly-cloudy-strong-winds" d="M834.133 300.8c0 87.467-72.533 160-160 160-38.4 0-74.667-14.933-104.533-38.4-21.333 6.4-42.667 10.667-66.133 10.667-91.733 0-166.4-61.867-185.6-147.2-68.267-4.267-140.8-46.933-140.8-115.2l64-2.133c0 29.867 46.933 53.333 89.6 53.333h46.933l2.133 29.867c2.133 64 57.6 115.2 123.733 115.2 68.267 0 123.733-53.333 123.733-117.333v-25.6l23.467-6.4c42.667-10.667 72.533-46.933 72.533-87.467 0-49.067-42.667-91.733-96-91.733h-189.867v-64h189.867c87.467 0 160 70.4 160 155.733 0 17.067-2.133 34.133-8.533 49.067 34.133 32 55.467 74.667 55.467 121.6zM691.2 275.2c-6.4 42.667-27.733 83.2-59.733 110.933 12.8 6.4 27.733 10.667 42.667 10.667 53.333 0 96-42.667 96-96 0-23.467-8.533-44.8-23.467-64-17.067 17.067-34.133 29.867-55.467 38.4zM966.4 332.8h-64c-17.067 0-32-14.933-32-32s14.933-32 32-32h64c17.067 0 32 14.933 32 32s-14.933 32-32 32zM836.267 430.933c8.533 0 17.067 2.133 23.467 8.533l44.8 44.8c12.8 12.8 12.8 32 0 44.8s-32 12.8-44.8 0l-44.8-44.8c-12.8-12.8-12.8-32 0-44.8 6.4-4.267 12.8-8.533 21.333-8.533zM674.133 501.333c17.067 0 32 14.933 32 32v64c0 17.067-14.933 32-32 32s-32-14.933-32-32v-64c0-19.2 14.933-32 32-32zM467.2 465.067c6.4-6.4 14.933-8.533 23.467-8.533s17.067 2.133 23.467 8.533c12.8 12.8 12.8 32 0 44.8l-23.467 23.467c-12.8 12.8-32 12.8-44.8 0s-12.8-32 0-44.8l21.333-23.467zM876.8 138.667c-12.8 12.8-32 12.8-44.8 0s-12.8-32 0-44.8l23.467-23.467c6.4-6.4 14.933-8.533 23.467-8.533s17.067 2.133 23.467 8.533c12.8 12.8 12.8 32 0 44.8l-25.6 23.467zM473.6 64c49.067 0 87.467 38.4 87.467 87.467s-38.4 87.467-87.467 87.467c-25.6 0-51.2-10.667-68.267-32-10.667-12.8-8.533-34.133 4.267-44.8s34.133-8.533 44.8 4.267c4.267 6.4 10.667 8.533 17.067 8.533 12.8 0 23.467-10.667 23.467-23.467s-8.533-23.467-21.333-23.467h-420.267c-19.2 0-32-14.933-32-32s12.8-32 32-32h420.267zM294.4 21.333h-230.4c-17.067 0-32-14.933-32-32s14.933-32 32-32h230.4c12.8 0 23.467-10.667 23.467-23.467s-10.667-23.467-23.467-23.467c-6.4 0-12.8 2.133-17.067 8.533-10.667 12.8-32 14.933-44.8 4.267s-14.933-32-4.267-44.8c17.067-21.333 40.533-32 68.267-32 49.067 0 87.467 38.4 87.467 87.467s-42.667 87.467-89.6 87.467z" />
<glyph unicode="&#xe96e;" glyph-name="partly-sunny" d="M674.133 213.333c0 87.467-72.533 160-160 160s-160-72.533-160-160c0-2.133 0-2.133 0-4.267-14.933-14.933-27.733-32-34.133-53.333-46.933-8.533-83.2-51.2-83.2-100.267 0-55.467 44.8-102.4 102.4-102.4h162.133c55.467 0 102.4 44.8 102.4 102.4 0 8.533-2.133 14.933-2.133 23.467 44.8 29.867 72.533 81.067 72.533 134.4zM503.467 19.2h-162.133c-21.333 0-38.4 17.067-38.4 38.4s17.067 38.4 38.4 38.4h40.533v32c0 29.867 23.467 51.2 53.333 51.2s53.333-23.467 53.333-53.333v-25.6l23.467-6.4c17.067-4.267 27.733-19.2 27.733-36.267 0-21.333-17.067-38.4-36.267-38.4zM567.467 134.4c-6.4 4.267-12.8 8.533-19.2 12.8-10.667 53.333-57.6 93.867-115.2 93.867-4.267 0-8.533 0-12.8 0 10.667 40.533 49.067 70.4 91.733 70.4 53.333 0 96-42.667 96-96 2.133-34.133-14.933-64-40.533-81.067zM806.4 181.333h-64c-17.067 0-32 14.933-32 32s14.933 32 32 32h64c17.067 0 32-14.933 32-32s-14.933-32-32-32zM283.733 181.333h-64c-17.067 0-32 14.933-32 32s14.933 32 32 32h64c17.067 0 32-14.933 32-32s-14.933-32-32-32zM283.733 181.333h-64c-17.067 0-32 14.933-32 32s14.933 32 32 32h64c17.067 0 32-14.933 32-32s-12.8-32-32-32zM678.4 343.467c-8.533 0-17.067 2.133-23.467 8.533-12.8 12.8-12.8 32 0 44.8l44.8 44.8c12.8 12.8 32 12.8 44.8 0s12.8-32 0-44.8l-44.8-44.8c-4.267-4.267-12.8-8.533-21.333-8.533zM516.267 413.867c-17.067 0-32 14.933-32 32v64c0 17.067 14.933 32 32 32s32-14.933 32-32v-64c0-19.2-14.933-32-32-32zM330.667 369.067c-8.533 0-17.067 2.133-23.467 8.533l-23.467 23.467c-12.8 12.8-12.8 32 0 44.8s32 12.8 44.8 0l23.467-23.467c12.8-12.8 12.8-32 0-44.8-4.267-6.4-12.8-8.533-21.333-8.533zM718.933-25.6c-8.533 0-17.067 2.133-23.467 8.533l-23.467 23.467c-12.8 12.8-12.8 32 0 44.8s32 12.8 44.8 0l23.467-23.467c12.8-12.8 12.8-32 0-44.8-4.267-6.4-12.8-8.533-21.333-8.533z" />
<glyph unicode="&#xe96f;" glyph-name="pencil" d="M731.733 663.467l-597.333-597.333-17.067-206.933 204.8 21.333 595.2 595.2-185.6 187.733zM827.733 475.733l-93.867-93.867-96 96 93.867 93.867 96-96zM292.267-57.6l-104.533-10.667 8.533 106.667 394.667 394.667 96-96-394.667-394.667z" />
<glyph unicode="&#xe970;" glyph-name="phone" d="M821.333-160c-4.267 0-6.4 0-10.667 0-140.8 21.333-292.267 106.667-418.133 232.533l-64 64c-125.867 123.733-209.067 277.333-232.533 418.133-4.267 34.133 19.2 68.267 55.467 76.8l123.733 38.4c53.333 12.8 68.267-21.333 70.4-32 10.667-42.667 46.933-113.067 104.533-204.8l12.8-19.2-55.467-64c19.2-25.6 40.533-49.067 61.867-72.533l64-64c23.467-23.467 46.933-42.667 72.533-61.867l64 55.467 19.2-12.8c91.733-57.6 162.133-91.733 204.8-104.533v0c10.667-2.133 46.933-17.067 32-68.267l-38.4-123.733c-6.4-34.133-36.267-57.6-66.133-57.6zM285.867 605.867l-121.6-38.4c-2.133 0-4.267-2.133-4.267-4.267 19.2-128 98.133-266.667 213.333-381.867l64-64c115.2-115.2 256-194.133 381.867-213.333 2.133 0 4.267 2.133 4.267 4.267v4.267l36.267 119.467c-44.8 14.933-106.667 46.933-187.733 93.867l-68.267-57.6-21.333 14.933c-34.133 25.6-68.267 53.333-100.267 85.333l-64 64c-32 32-59.733 64-85.333 100.267l-14.933 21.333 57.6 68.267c-42.667 76.8-74.667 138.667-89.6 183.467z" />
<glyph unicode="&#xe971;" glyph-name="photo" d="M512 119.467c-66.133 0-117.333 51.2-117.333 117.333 0 64 53.333 117.333 117.333 117.333s117.333-53.333 117.333-117.333c0-66.133-53.333-117.333-117.333-117.333zM512 290.133c-29.867 0-53.333-23.467-53.333-53.333s23.467-53.333 53.333-53.333c29.867 0 53.333 23.467 53.333 53.333s-23.467 53.333-53.333 53.333zM981.333-83.2h-938.667v597.333h247.467l44.8 85.333h352l44.8-85.333h249.6v-597.333zM106.667-19.2h810.667v469.333h-226.133l-44.8 85.333h-273.067l-44.8-85.333h-221.867v-469.333z" />
<glyph unicode="&#xe972;" glyph-name="physical-access" d="M532.48 432.128v-352.256h-481.28v352.256h481.28zM532.48 462.848h-481.28c-17.408 0-30.72-13.312-30.72-30.72v-352.256c0-17.408 13.312-30.72 30.72-30.72h481.28c17.408 0 30.72 13.312 30.72 30.72v352.256c0 16.384-13.312 30.72-30.72 30.72v0zM467.968 367.616v-158.72h-352.256v158.72h352.256zM498.688 398.336h-413.696v-220.16h413.696v220.16zM204.8 143.36h51.2v-30.72h-51.2v30.72zM317.44 143.36h51.2v-30.72h-51.2v30.72zM811.008 433.152c0-15.27-12.378-27.648-27.648-27.648s-27.648 12.378-27.648 27.648c0 15.27 12.378 27.648 27.648 27.648s27.648-12.378 27.648-27.648zM892.928 433.152c0-15.27-12.378-27.648-27.648-27.648s-27.648 12.378-27.648 27.648c0 15.27 12.378 27.648 27.648 27.648s27.648-12.378 27.648-27.648zM811.008 351.232c0-15.27-12.378-27.648-27.648-27.648s-27.648 12.378-27.648 27.648c0 15.27 12.378 27.648 27.648 27.648s27.648-12.378 27.648-27.648zM892.928 351.232c0-15.27-12.378-27.648-27.648-27.648s-27.648 12.378-27.648 27.648c0 15.27 12.378 27.648 27.648 27.648s27.648-12.378 27.648-27.648zM824.32 571.392c-99.328 0-179.2-79.872-179.2-179.2v-273.408c0-98.304 80.896-179.2 179.2-179.2s179.2 80.896 179.2 180.224v272.384c0 99.328-80.896 179.2-179.2 179.2zM972.8 119.808c0-81.92-66.56-148.48-148.48-148.48s-148.48 66.56-148.48 148.48v272.384c0 81.92 66.56 148.48 148.48 148.48s148.48-66.56 148.48-148.48v-272.384zM824.32 230.4c-61.44 0-110.592-50.176-110.592-110.592s50.176-110.592 110.592-110.592 110.592 50.176 110.592 110.592-50.176 110.592-110.592 110.592zM743.424 119.808c0 44.032 35.84 79.872 79.872 79.872 16.384 0 31.744-5.12 45.056-13.312l-110.592-111.616c-9.216 12.288-14.336 27.648-14.336 45.056zM824.32 38.912c-16.384 0-31.744 5.12-45.056 13.312l111.616 111.616c8.192-12.288 13.312-28.672 13.312-45.056 0-44.032-35.84-79.872-79.872-79.872z" />
<glyph unicode="&#xe973;" glyph-name="pinterest" d="M512.012 640c-212.076 0-384.012-171.912-384.012-383.988 0-162.683 101.212-301.634 244.071-357.573-3.367 30.371-6.404 76.986 1.318 110.135 6.992 29.97 45.038 190.888 45.038 190.888s-11.489 23.002-11.489 56.998c0 53.396 30.936 93.254 69.476 93.254 32.772 0 48.593-24.579 48.593-54.079 0-32.96-20.977-82.213-31.807-127.863-9.041-38.21 19.164-69.382 56.857-69.382 68.251 0 120.729 71.971 120.729 175.844 0 91.936-66.062 156.232-160.399 156.232-109.264 0-173.395-81.954-173.395-166.662 0-32.984 12.713-68.393 28.581-87.627 3.131-3.79 3.602-7.134 2.66-11.018-2.919-12.125-9.394-38.21-10.665-43.531-1.672-7.039-5.58-8.523-12.855-5.156-47.957 22.342-77.928 92.454-77.928 148.769 0 121.129 88.004 232.371 253.724 232.371 133.183 0 236.726-94.926 236.726-221.776 0-132.336-83.46-238.845-199.269-238.845-38.917 0-75.479 20.224-88.004 44.096 0 0-19.258-73.313-23.92-91.277-8.687-33.361-32.089-75.173-47.745-100.67 35.927-11.112 74.114-17.116 113.713-17.116 212.053 0 383.988 171.912 383.988 383.988s-171.935 383.988-383.988 383.988z" />
<glyph unicode="&#xe974;" glyph-name="plus" d="M938.667 288h-394.667v394.667h-64v-394.667h-394.667v-64h394.667v-394.667h64v394.667h394.667z" />
<glyph unicode="&#xe975;" glyph-name="power" d="M480 725.333h64v-473.6h-64v473.6zM512-213.333c-253.867 0-458.667 206.933-458.667 458.667 0 162.133 83.2 309.333 221.867 394.667l32-55.467c-119.467-72.533-192-198.4-192-339.2 2.133-217.6 179.2-394.667 396.8-394.667s394.667 177.067 394.667 394.667c0 140.8-72.533 266.667-192 339.2l34.133 55.467c138.667-83.2 221.867-230.4 221.867-392.533 0-253.867-204.8-460.8-458.667-460.8z" />
<glyph unicode="&#xe976;" glyph-name="rain-showers" d="M661.333 100.267v64c53.333 0 96 40.533 96 91.733 0 40.533-29.867 76.8-72.533 87.467l-23.467 6.4v25.6c0 66.133-55.467 117.333-123.733 117.333s-121.6-51.2-123.733-115.2l-2.133-29.867h-49.067c-53.333 0-96-40.533-96-91.733s42.667-91.733 96-91.733v-64c-87.467 0-160 70.4-160 155.733 0 81.067 66.133 149.333 147.2 153.6 17.067 83.2 93.867 147.2 185.6 147.2 96 0 174.933-68.267 187.733-157.867 57.6-23.467 98.133-78.933 98.133-142.933 0-85.333-72.533-155.733-160-155.733zM443.733 198.4c-2.133 0-6.4 0-8.533 2.133-17.067 4.267-27.733 21.333-23.467 38.4l10.667 36.267c4.267 17.067 21.333 27.733 38.4 23.467s27.733-21.333 23.467-38.4l-10.667-36.267c-2.133-17.067-14.933-25.6-29.867-25.6zM398.933 23.467c-2.133 0-6.4 0-8.533 2.133-17.067 4.267-27.733 21.333-23.467 38.4l10.667 36.267c4.267 17.067 21.333 27.733 38.4 23.467s27.733-21.333 23.467-38.4l-10.667-36.267c-4.267-17.067-17.067-25.6-29.867-25.6zM509.867 87.467c-2.133 0-6.4 0-8.533 2.133-17.067 4.267-27.733 21.333-23.467 38.4l10.667 36.267c4.267 17.067 21.333 27.733 38.4 23.467s27.733-21.333 23.467-38.4l-10.667-36.267c-2.133-17.067-14.933-25.6-29.867-25.6zM462.933-87.467c-2.133 0-6.4 0-8.533 2.133-17.067 4.267-27.733 21.333-23.467 38.4l10.667 36.267c4.267 17.067 21.333 27.733 38.4 23.467s27.733-21.333 23.467-38.4l-8.533-38.4c-4.267-12.8-17.067-23.467-32-23.467zM620.8 149.333c-2.133 0-6.4 0-8.533 2.133-17.067 4.267-27.733 21.333-23.467 38.4l10.667 36.267c4.267 17.067 21.333 27.733 38.4 23.467s27.733-21.333 23.467-38.4l-10.667-36.267c-2.133-14.933-14.933-25.6-29.867-25.6zM573.867-23.467c-2.133 0-6.4 0-8.533 2.133-17.067 4.267-27.733 21.333-23.467 38.4l10.667 36.267c4.267 17.067 21.333 27.733 38.4 23.467s27.733-21.333 23.467-38.4l-8.533-38.4c-4.267-14.933-17.067-23.467-32-23.467z" />
<glyph unicode="&#xe977;" glyph-name="rain-snow" d="M661.333 96v64c53.333 0 96 40.533 96 91.733 0 40.533-29.867 76.8-72.533 87.467l-23.467 6.4v25.6c0 66.133-55.467 117.333-123.733 117.333s-121.6-51.2-123.733-115.2l-4.267-32h-46.933c-53.333 0-96-40.533-96-91.733s42.667-91.733 96-91.733v-64c-87.467 0-160 70.4-160 155.733 0 81.067 66.133 149.333 147.2 153.6 17.067 83.2 93.867 147.2 185.6 147.2 96 0 174.933-68.267 187.733-157.867 57.6-23.467 98.133-78.933 98.133-142.933 0-83.2-72.533-153.6-160-153.6zM448 185.6c-2.133 0-6.4 0-8.533 2.133-17.067 4.267-27.733 21.333-23.467 38.4l10.667 36.267c4.267 17.067 21.333 27.733 38.4 23.467s27.733-21.333 23.467-38.4l-10.667-36.267c-2.133-17.067-14.933-25.6-29.867-25.6zM396.8-8.533c-2.133 0-6.4 0-8.533 2.133-17.067 4.267-27.733 21.333-23.467 38.4l10.667 36.267c4.267 17.067 21.333 27.733 38.4 23.467s27.733-21.333 23.467-38.4l-10.667-38.4c-2.133-12.8-14.933-23.467-29.867-23.467zM507.733 66.133c-2.133 0-6.4 0-8.533 2.133-17.067 4.267-27.733 21.333-23.467 38.4l10.667 36.267c4.267 17.067 21.333 27.733 38.4 23.467s27.733-21.333 23.467-38.4l-10.667-36.267c-2.133-14.933-14.933-25.6-29.867-25.6zM456.533-125.867c-2.133 0-6.4 0-8.533 2.133-17.067 4.267-27.733 21.333-23.467 38.4l10.667 36.267c4.267 17.067 21.333 27.733 38.4 23.467s27.733-21.333 23.467-38.4l-10.667-36.267c-2.133-14.933-14.933-25.6-29.867-25.6zM618.667 138.667c-2.133 0-6.4 0-8.533 2.133-17.067 4.267-27.733 21.333-23.467 38.4l10.667 36.267c4.267 17.067 21.333 27.733 38.4 23.467s27.733-21.333 23.467-38.4l-10.667-36.267c-2.133-14.933-14.933-25.6-29.867-25.6zM567.467-53.333c-2.133 0-6.4 0-8.533 2.133-17.067 4.267-27.733 21.333-23.467 38.4l10.667 36.267c4.267 17.067 21.333 27.733 38.4 23.467s27.733-21.333 23.467-38.4l-10.667-36.267c-2.133-17.067-14.933-25.6-29.867-25.6zM426.667 106.667c-8.533 0-17.067 4.267-23.467 8.533-2.133 2.133-4.267 6.4-6.4 10.667s-2.133 8.533-2.133 12.8c0 2.133 0 4.267 0 6.4s0 4.267 2.133 6.4c0 2.133 2.133 4.267 2.133 6.4s2.133 4.267 4.267 4.267c2.133 2.133 4.267 2.133 4.267 4.267 2.133 0 4.267 2.133 6.4 2.133s4.267 2.133 6.4 2.133c10.667 2.133 21.333-2.133 27.733-8.533 2.133-2.133 2.133-2.133 4.267-4.267 0-2.133 2.133-4.267 2.133-6.4s2.133-4.267 2.133-6.4c0-2.133 0-4.267 0-6.4 0-8.533-4.267-17.067-8.533-23.467s-12.8-8.533-21.333-8.533zM486.4-10.667c-8.533 0-17.067 2.133-23.467 8.533-2.133 2.133-4.267 6.4-6.4 10.667s-2.133 8.533-2.133 12.8c0 2.133 0 4.267 0 6.4s0 4.267 2.133 6.4c0 2.133 2.133 4.267 2.133 6.4s2.133 4.267 4.267 4.267c2.133 2.133 2.133 2.133 4.267 4.267s4.267 2.133 6.4 2.133 4.267 2.133 6.4 2.133c4.267 0 8.533 0 12.8 0 2.133 0 4.267 0 6.4-2.133s4.267-2.133 6.4-2.133c2.133 0 4.267-2.133 4.267-4.267 2.133-2.133 2.133-2.133 4.267-4.267s2.133-4.267 2.133-6.4 2.133-4.267 2.133-6.4 0-4.267 0-6.4c0-8.533-4.267-17.067-8.533-23.467-6.4-6.4-14.933-8.533-23.467-8.533zM597.333 59.733c-8.533 0-17.067 4.267-23.467 8.533-6.4 6.4-8.533 14.933-8.533 23.467 0 2.133 0 4.267 0 6.4s2.133 4.267 2.133 6.4c0 2.133 2.133 4.267 2.133 6.4 2.133 2.133 2.133 4.267 4.267 4.267 2.133 2.133 2.133 2.133 4.267 4.267s4.267 2.133 6.4 2.133c2.133 0 4.267 2.133 6.4 2.133 4.267 0 8.533 0 12.8 0 2.133 0 4.267 0 6.4-2.133 2.133 0 4.267-2.133 6.4-2.133s4.267-2.133 4.267-4.267c2.133-2.133 2.133-2.133 4.267-4.267 0-2.133 2.133-4.267 2.133-6.4s2.133-4.267 2.133-6.4c0-2.133 0-4.267 0-6.4 0-8.533-4.267-17.067-8.533-23.467-6.4-4.267-14.933-8.533-23.467-8.533z" />
<glyph unicode="&#xe978;" glyph-name="remote-access" d="M1003.52 532.48h-695.296v-430.080h333.824l-99.328-112.64h225.28l-99.328 112.64h334.848v430.080zM972.8 133.12h-633.856v368.64h633.856v-368.64zM235.52 399.36h-184.32c-17.408 0-30.72-13.312-30.72-30.72v-348.16c0-17.408 13.312-30.72 30.72-30.72h184.32c17.408 0 30.72 13.312 30.72 30.72v348.16c0 16.384-13.312 30.72-30.72 30.72zM235.52 368.64v-245.76h-184.32v245.76h184.32zM51.2 20.48v71.68h184.32v-71.68h-184.32zM122.88 70.656h40.96v-30.72h-40.96v30.72zM92.16 347.136h102.4v-30.72h-102.4v30.72z" />
<glyph unicode="&#xe979;" glyph-name="rewind" d="M893.867 512l-337.067-192v192l-469.333-268.8 469.333-241.067v172.8l337.067-170.667v507.733zM492.8 108.8l-270.933 138.667 270.933 153.6v-292.267zM829.867 106.667l-268.8 136.533c0 2.133-2.133 2.133-2.133 4.267 0 0 0 2.133 2.133 4.267l268.8 151.467v-296.533z" />
<glyph unicode="&#xe97a;" glyph-name="router" d="M940.8 488.533c-46.933 51.2-113.067 81.067-183.467 81.067s-136.533-29.867-183.467-81.067l-46.933 42.667c59.733 64 142.933 102.4 230.4 102.4s170.667-36.267 230.4-102.4l-46.933-42.667zM817.067 394.667c-14.933 17.067-36.267 25.6-59.733 25.6s-42.667-8.533-59.733-25.6l-46.933 42.667c27.733 29.867 66.133 46.933 106.667 46.933s78.933-17.067 106.667-46.933l-46.933-42.667zM789.333 258.133v85.333h-64v-85.333h-682.667v-341.333h938.667v341.333h-192zM917.333-19.2h-810.667v213.333h810.667v-213.333zM256 87.467c0-23.564-19.103-42.667-42.667-42.667s-42.667 19.103-42.667 42.667c0 23.564 19.103 42.667 42.667 42.667s42.667-19.103 42.667-42.667zM426.667 87.467c0-23.564-19.103-42.667-42.667-42.667s-42.667 19.103-42.667 42.667c0 23.564 19.103 42.667 42.667 42.667s42.667-19.103 42.667-42.667z" />
<glyph unicode="&#xe97b;" glyph-name="sc-home" d="M960 251.733l-448 426.667-251.733-238.933v89.6h-64v-149.333l-132.267-128 42.667-44.8 44.8 42.667v-403.2h725.333v396.8l38.4-36.267 44.8 44.8zM814.933-89.6h-597.333v398.933l294.4 281.6 302.933-288v-392.533z" />
<glyph unicode="&#xe97c;" glyph-name="scattered-drizzle" d="M774.4 339.2c0 87.467-72.533 160-160 160-36.267 0-70.4-12.8-98.133-34.133-17.067 6.4-36.267 8.533-55.467 8.533-91.733 0-166.4-61.867-185.6-147.2-83.2-6.4-147.2-72.533-147.2-155.733 0-85.333 72.533-155.733 160-155.733v64c-53.333 2.133-96 42.667-96 91.733s42.667 91.733 96 91.733h46.933l2.133 29.867c2.133 64 57.6 115.2 123.733 115.2 68.267 0 123.733-53.333 123.733-117.333v-25.6l23.467-6.4c42.667-10.667 72.533-46.933 72.533-87.467 0-49.067-42.667-91.733-96-91.733v-64c87.467 0 160 70.4 160 155.733 0 21.333-4.267 40.533-12.8 57.6 27.733 29.867 42.667 68.267 42.667 110.933zM646.4 313.6c-6.4 44.8-29.867 85.333-64 113.067 10.667 4.267 21.333 6.4 32 6.4 53.333 0 96-42.667 96-96 0-19.2-6.4-38.4-17.067-53.333-12.8 12.8-27.733 23.467-46.933 29.867zM906.667 369.067h-64c-17.067 0-32-14.933-32-32s14.933-32 32-32h64c17.067 0 32 14.933 32 32s-12.8 32-32 32zM778.667 469.333c8.533 0 17.067 2.133 23.467 8.533l44.8 44.8c12.8 12.8 12.8 32 0 44.8s-32 12.8-44.8 0l-44.8-44.8c-12.8-12.8-12.8-32 0-44.8 4.267-6.4 12.8-8.533 21.333-8.533zM616.533 537.6c17.067 0 32 14.933 32 32v64c0 17.067-14.933 32-32 32s-32-14.933-32-32v-64c0-17.067 14.933-32 32-32zM409.6 503.467c6.4-6.4 14.933-8.533 23.467-8.533s17.067 2.133 23.467 8.533c12.8 12.8 12.8 32 0 44.8l-23.467 23.467c-12.8 12.8-32 12.8-44.8 0s-12.8-32 0-44.8l21.333-23.467zM819.2 177.067c-12.8 12.8-32 12.8-44.8 0s-12.8-32 0-44.8l23.467-23.467c6.4-6.4 14.933-8.533 23.467-8.533s17.067 2.133 23.467 8.533c12.8 12.8 12.8 32 0 44.8l-25.6 23.467zM469.333 153.6c8.533 0 14.933 2.133 19.2 8.533 6.4 6.4 8.533 12.8 8.533 19.2 0 12.8-8.533 29.867-27.733 46.933l-6.4-8.533c-4.267-4.267-10.667-12.8-14.933-19.2-4.267-8.533-6.4-14.933-6.4-21.333 0-8.533 2.133-14.933 8.533-19.2 4.267-4.267 12.8-6.4 19.2-6.4zM362.667 162.133c-4.267 6.4-8.533 10.667-10.667 12.8l-10.667-12.8c-6.4-8.533-14.933-17.067-21.333-29.867s-10.667-21.333-10.667-29.867c0-10.667 4.267-21.333 12.8-29.867s19.2-12.8 29.867-12.8c12.8 0 21.333 4.267 29.867 12.8s12.8 17.067 12.8 29.867c0 8.533-4.267 19.2-10.667 32-10.667 12.8-17.067 21.333-21.333 27.733zM512 42.667c-6.4 8.533-12.8 17.067-21.333 25.6s-12.8 14.933-17.067 17.067-6.4 4.267-8.533 6.4l-6.4-6.4c-4.267-4.267-10.667-10.667-17.067-19.2s-12.8-17.067-21.333-25.6c-6.4-8.533-12.8-19.2-17.067-29.867s-6.4-21.333-6.4-29.867c0-19.2 6.4-36.267 21.333-49.067 12.8-12.8 29.867-19.2 49.067-19.2s36.267 6.4 49.067 21.333 21.333 29.867 21.333 49.067c0 8.533-2.133 19.2-8.533 29.867-4.267 10.667-10.667 21.333-17.067 29.867z" />
<glyph unicode="&#xe97d;" glyph-name="scattered-heavy-rain" d="M776.533 358.4c0 87.467-72.533 160-160 160-36.267 0-70.4-12.8-98.133-34.133-17.067 6.4-36.267 8.533-55.467 8.533-91.733 0-166.4-61.867-185.6-147.2-85.333-4.267-149.333-72.533-149.333-153.6 0-85.333 72.533-155.733 160-155.733v64c-53.333 0-96 40.533-96 91.733s42.667 91.733 96 91.733h46.933l2.133 29.867c2.133 64 57.6 115.2 123.733 115.2 68.267 0 123.733-53.333 123.733-117.333v-25.6l23.467-6.4c42.667-10.667 72.533-46.933 72.533-87.467 0-49.067-42.667-91.733-96-91.733v-64c87.467 0 160 70.4 160 155.733 0 21.333-4.267 40.533-12.8 57.6 27.733 29.867 44.8 68.267 44.8 108.8zM646.4 334.933c-6.4 44.8-29.867 85.333-64 113.067 10.667 4.267 21.333 6.4 32 6.4 53.333 0 96-42.667 96-96 0-19.2-6.4-38.4-17.067-55.467-12.8 12.8-27.733 23.467-46.933 32zM906.667 390.4h-64c-17.067 0-32-14.933-32-32s14.933-32 32-32h64c17.067 0 32 14.933 32 32s-12.8 32-32 32zM778.667 488.533c8.533 0 17.067 2.133 23.467 8.533l44.8 44.8c12.8 12.8 12.8 34.133 0 46.933s-34.133 12.8-46.933 0l-44.8-44.8c-12.8-12.8-12.8-34.133 0-46.933 6.4-4.267 14.933-8.533 23.467-8.533zM616.533 556.8c17.067 0 32 14.933 32 32v64c0 17.067-14.933 32-32 32s-32-14.933-32-32v-64c0-17.067 14.933-32 32-32zM409.6 522.667c6.4-6.4 14.933-8.533 23.467-8.533s17.067 2.133 23.467 8.533c12.8 12.8 12.8 34.133 0 46.933l-23.467 23.467c-12.8 12.8-34.133 12.8-46.933 0s-12.8-34.133 0-46.933l23.467-23.467zM819.2 198.4c-12.8 12.8-34.133 12.8-46.933 0s-12.8-34.133 0-46.933l23.467-23.467c6.4-6.4 14.933-8.533 23.467-8.533s17.067 2.133 23.467 8.533c12.8 12.8 12.8 34.133 0 46.933l-23.467 23.467zM565.333 198.4c-17.067 4.267-34.133-6.4-38.4-23.467l-57.6-204.8c-4.267-17.067 6.4-34.133 23.467-38.4 2.133 0 6.4-2.133 8.533-2.133 14.933 0 27.733 8.533 29.867 23.467l55.467 206.933c4.267 17.067-4.267 34.133-21.333 38.4zM375.467 198.4c-17.067 4.267-34.133-6.4-38.4-23.467l-55.467-206.933c-4.267-17.067 6.4-34.133 23.467-38.4 2.133 0 6.4-2.133 8.533-2.133 14.933 0 27.733 8.533 29.867 23.467l55.467 206.933c4.267 19.2-6.4 36.267-23.467 40.533zM471.467 198.4c-17.067 4.267-34.133-6.4-38.4-23.467l-83.2-309.333c-4.267-17.067 6.4-34.133 23.467-38.4 2.133 0 6.4-2.133 8.533-2.133 14.933 0 27.733 8.533 29.867 23.467l83.2 309.333c2.133 19.2-6.4 36.267-23.467 40.533z" />
<glyph unicode="&#xe97e;" glyph-name="scattered-rain-showers" d="M776.533 326.4c0 87.467-72.533 160-160 160-36.267 0-70.4-12.8-98.133-34.133-17.067 6.4-36.267 8.533-55.467 8.533-91.733 0-166.4-61.867-185.6-147.2-85.333-6.4-149.333-72.533-149.333-153.6 0-85.333 72.533-155.733 160-155.733v64c-53.333 0-96 40.533-96 91.733s42.667 91.733 96 91.733h46.933l2.133 29.867c2.133 64 57.6 115.2 123.733 115.2 68.267 0 123.733-53.333 123.733-117.333v-25.6l23.467-6.4c42.667-10.667 72.533-46.933 72.533-87.467 0-49.067-42.667-91.733-96-91.733v-64c87.467 0 160 70.4 160 155.733 0 21.333-4.267 40.533-12.8 57.6 27.733 27.733 44.8 66.133 44.8 108.8zM646.4 300.8c-6.4 44.8-29.867 85.333-64 113.067 10.667 4.267 21.333 6.4 32 6.4 53.333 0 96-42.667 96-96 0-19.2-6.4-38.4-17.067-55.467-12.8 14.933-27.733 25.6-46.933 32zM906.667 358.4h-64c-17.067 0-32-14.933-32-32s14.933-32 32-32h64c17.067 0 32 14.933 32 32s-12.8 32-32 32zM778.667 456.533c8.533 0 17.067 2.133 23.467 8.533l44.8 44.8c12.8 12.8 12.8 34.133 0 46.933s-34.133 12.8-46.933 0l-44.8-44.8c-12.8-12.8-12.8-34.133 0-46.933 6.4-6.4 14.933-8.533 23.467-8.533zM616.533 524.8c17.067 0 32 14.933 32 32v64c0 17.067-14.933 32-32 32s-32-14.933-32-32v-64c0-17.067 14.933-32 32-32zM409.6 490.667c6.4-6.4 14.933-8.533 23.467-8.533s17.067 2.133 23.467 8.533c12.8 12.8 12.8 34.133 0 46.933l-23.467 23.467c-12.8 12.8-34.133 12.8-46.933 0s-12.8-34.133 0-46.933l23.467-23.467zM819.2 166.4c-12.8 12.8-34.133 12.8-46.933 0s-12.8-34.133 0-46.933l23.467-23.467c6.4-6.4 14.933-8.533 23.467-8.533s17.067 2.133 23.467 8.533c12.8 12.8 12.8 34.133 0 46.933l-23.467 23.467zM360.533 102.4c2.133 0 6.4-2.133 8.533-2.133 14.933 0 27.733 8.533 29.867 23.467l10.667 36.267c4.267 17.067-6.4 34.133-23.467 38.4s-34.133-6.4-38.4-23.467l-10.667-36.267c-4.267-14.933 6.4-32 23.467-36.267zM339.2 25.6c-17.067 4.267-34.133-6.4-38.4-23.467l-10.667-36.267c-4.267-17.067 6.4-34.133 23.467-38.4 2.133 0 6.4-2.133 8.533-2.133 14.933 0 27.733 8.533 29.867 23.467l10.667 36.267c4.267 19.2-6.4 36.267-23.467 40.533zM452.267 89.6c-17.067 4.267-34.133-6.4-38.4-23.467l-10.667-36.267c-4.267-17.067 6.4-34.133 23.467-38.4 2.133 0 6.4-2.133 8.533-2.133 14.933 0 27.733 8.533 29.867 23.467l10.667 36.267c2.133 19.2-6.4 36.267-23.467 40.533zM405.333-85.333c-17.067 4.267-34.133-6.4-38.4-23.467l-10.667-36.267c-4.267-17.067 6.4-34.133 23.467-38.4 2.133 0 6.4-2.133 8.533-2.133 14.933 0 27.733 8.533 29.867 23.467l10.667 36.267c4.267 19.2-6.4 36.267-23.467 40.533zM563.2 153.6c-17.067 4.267-34.133-6.4-38.4-23.467l-10.667-36.267c-4.267-17.067 6.4-34.133 23.467-38.4 2.133 0 6.4-2.133 8.533-2.133 14.933 0 27.733 8.533 29.867 23.467l10.667 36.267c4.267 17.067-6.4 34.133-23.467 40.533zM516.267-21.333c-17.067 4.267-34.133-6.4-38.4-23.467l-10.667-36.267c-4.267-17.067 6.4-34.133 23.467-38.4 2.133 0 6.4-2.133 8.533-2.133 14.933 0 27.733 8.533 29.867 23.467l10.667 36.267c4.267 17.067-6.4 36.267-23.467 40.533z" />
<glyph unicode="&#xe97f;" glyph-name="scattered-rain-snow" d="M755.2 343.467c0 87.467-72.533 160-160 160-36.267 0-70.4-12.8-98.133-34.133-17.067 6.4-36.267 8.533-55.467 8.533-91.733 0-166.4-61.867-185.6-147.2-85.333-6.4-149.333-72.533-149.333-153.6 0-85.333 72.533-155.733 160-155.733v64c-53.333 0-96 40.533-96 91.733s42.667 91.733 96 91.733h46.933l2.133 29.867c2.133 64 57.6 115.2 123.733 115.2 68.267 0 123.733-53.333 123.733-117.333v-25.6l23.467-6.4c42.667-10.667 72.533-46.933 72.533-87.467 0-49.067-42.667-91.733-96-91.733v-64c87.467 0 160 70.4 160 155.733 0 21.333-4.267 40.533-12.8 57.6 27.733 27.733 44.8 66.133 44.8 108.8zM625.067 317.867c-6.4 44.8-29.867 85.333-64 113.067 10.667 4.267 21.333 6.4 32 6.4 53.333 0 96-42.667 96-96 0-19.2-6.4-38.4-17.067-55.467-12.8 14.933-27.733 25.6-46.933 32zM885.333 375.467h-64c-17.067 0-32-14.933-32-32s14.933-32 32-32h64c17.067 0 32 14.933 32 32s-12.8 32-32 32zM757.333 473.6c8.533 0 17.067 2.133 23.467 8.533l44.8 44.8c12.8 12.8 12.8 34.133 0 46.933s-34.133 12.8-46.933 0l-44.8-44.8c-12.8-12.8-12.8-34.133 0-46.933 6.4-6.4 14.933-8.533 23.467-8.533zM595.2 541.867c17.067 0 32 14.933 32 32v64c0 17.067-14.933 32-32 32s-32-14.933-32-32v-64c0-17.067 14.933-32 32-32zM388.267 507.733c6.4-6.4 14.933-8.533 23.467-8.533s17.067 2.133 23.467 8.533c12.8 12.8 12.8 34.133 0 46.933l-23.467 21.333c-12.8 12.8-34.133 12.8-46.933 0s-12.8-34.133 0-46.933l23.467-21.333zM797.867 183.467c-12.8 12.8-34.133 12.8-46.933 0s-12.8-34.133 0-46.933l23.467-23.467c6.4-6.4 14.933-8.533 23.467-8.533s17.067 2.133 23.467 8.533c12.8 12.8 12.8 34.133 0 46.933l-23.467 23.467zM352 108.8c14.933 0 27.733 8.533 29.867 23.467l10.667 36.267c4.267 17.067-6.4 34.133-23.467 38.4s-34.133-6.4-38.4-23.467l-10.667-34.133c-4.267-17.067 6.4-34.133 23.467-38.4 2.133-2.133 4.267-2.133 8.533-2.133zM339.2-23.467c4.267 17.067-6.4 34.133-23.467 38.4s-34.133-6.4-38.4-23.467l-8.533-34.133c-4.267-17.067 6.4-34.133 23.467-38.4 2.133 0 6.4-2.133 8.533-2.133 14.933 0 27.733 8.533 29.867 23.467l8.533 36.267zM452.267 51.2c4.267 17.067-6.4 34.133-23.467 38.4s-34.133-6.4-38.4-23.467l-10.667-36.267c-4.267-17.067 6.4-34.133 23.467-38.4 2.133 0 6.4-2.133 8.533-2.133 14.933 0 27.733 8.533 29.867 23.467l10.667 38.4zM377.6-102.4c-17.067 4.267-34.133-6.4-38.4-23.467l-10.667-36.267c-4.267-17.067 6.4-34.133 23.467-38.4 2.133 0 6.4-2.133 8.533-2.133 14.933 0 27.733 8.533 29.867 23.467l10.667 36.267c4.267 19.2-6.4 36.267-23.467 40.533zM539.733 162.133c-17.067 4.267-34.133-6.4-38.4-23.467l-10.667-34.133c-4.267-17.067 6.4-34.133 23.467-38.4 2.133 0 6.4-2.133 8.533-2.133 14.933 0 27.733 8.533 29.867 23.467l10.667 36.267c4.267 17.067-6.4 34.133-23.467 38.4zM488.533-29.867c-17.067 4.267-34.133-6.4-38.4-23.467l-10.667-36.267c-4.267-17.067 6.4-34.133 23.467-38.4 2.133 0 6.4-2.133 8.533-2.133 14.933 0 27.733 8.533 29.867 23.467l10.667 36.267c4.267 19.2-6.4 36.267-23.467 40.533zM298.667 64c0-8.533 4.267-17.067 8.533-23.467 2.133-2.133 6.4-4.267 10.667-6.4s8.533-2.133 12.8-2.133 17.067 4.267 23.467 8.533c6.4 6.4 8.533 14.933 8.533 23.467s-4.267 17.067-8.533 23.467c-12.8 12.8-34.133 12.8-44.8 0-8.533-8.533-10.667-14.933-10.667-23.467zM384-23.467c-2.133 0-4.267 0-6.4-2.133-2.133 0-4.267-2.133-6.4-2.133-2.133-2.133-2.133-2.133-4.267-4.267-6.4-6.4-8.533-14.933-8.533-23.467s2.133-17.067 8.533-23.467 14.933-8.533 23.467-8.533 17.067 4.267 23.467 8.533c6.4 6.4 8.533 14.933 8.533 23.467s-4.267 17.067-8.533 23.467c-8.533 8.533-19.2 10.667-29.867 8.533zM529.067 29.867c0 2.133-2.133 4.267-2.133 6.4-2.133 2.133-2.133 4.267-4.267 4.267-2.133 2.133-4.267 2.133-4.267 4.267-2.133 2.133-4.267 2.133-6.4 2.133s-4.267 2.133-6.4 2.133c-4.267 0-8.533 0-12.8 0-2.133 0-4.267 0-6.4-2.133-2.133 0-4.267-2.133-6.4-2.133-2.133-2.133-4.267-2.133-4.267-4.267-2.133-2.133-2.133-2.133-4.267-4.267 0-2.133-2.133-4.267-2.133-6.4s-2.133-4.267-2.133-6.4 0-4.267 0-6.4c0-8.533 4.267-17.067 8.533-23.467 6.4-6.4 14.933-8.533 23.467-8.533s17.067 4.267 23.467 8.533c6.4 6.4 8.533 14.933 8.533 23.467 0 2.133 0 4.267 0 6.4s0 4.267-2.133 6.4z" />
</font>
</defs>
</svg>
